M48
; DRILL file {KiCad 9.0.1} date 2025-06-21T19:31:34-0400
; FORMAT={-:-/ absolute / inch / decimal}
; #@! TF.CreationDate,2025-06-21T19:31:34-04:00
; #@! TF.GenerationSoftware,Kicad,Pcbnew,9.0.1
; #@! TF.FileFunction,Plated,1,2,PTH
FMAT,2
INCH
; #@! TA.AperFunction,Plated,PTH,ViaDrill
T1C0.0118
; #@! TA.AperFunction,Plated,PTH,ComponentDrill
T2C0.0315
; #@! TA.AperFunction,Plated,PTH,ComponentDrill
T3C0.0394
; #@! TA.AperFunction,Plated,PTH,ComponentDrill
T4C0.0787
%
G90
G05
T1
X4.0291Y-2.554
X4.1567Y-2.6154
X4.627Y-3.6662
X4.6363Y-2.7374
X4.9495Y-2.7894
X5.3594Y-2.4798
X5.5468Y-3.4424
X5.5908Y-2.7007
X5.6152Y-4.0207
X5.6693Y-4.0551
X5.6855Y-3.6791
X6.1054Y-3.0248
X6.1503Y-2.5528
X6.2993Y-2.7562
X6.3723Y-3.722
X6.5015Y-3.8692
X6.7421Y-4.0945
X6.7913Y-4.1339
X7.5934Y-2.5498
X7.7978Y-3.8492
X7.8313Y-3.8352
X8.3371Y-4.6309
X8.3537Y-3.8705
X8.3664Y-3.7204
X8.3995Y-4.555
X8.6949Y-2.5492
X8.754Y-2.7007
X8.755Y-3.7272
X8.7731Y-3.8859
X8.9398Y-2.7843
X8.957Y-3.6216
X8.9636Y-2.554
X9.3982Y-3.887
X9.4682Y-3.8165
X9.553Y-4.666
X9.595Y-4.6379
X9.7878Y-2.6717
T2
X3.9669Y-4.2008
X3.9669Y-4.7913
X3.9685Y-3.4925
X3.9685Y-3.7886
X4.0685Y-3.4925
X4.0685Y-3.7886
X4.1685Y-3.4925
X4.1685Y-3.7886
X4.2685Y-3.4925
X4.2685Y-3.7886
X4.3685Y-3.4925
X4.3685Y-3.7886
X4.4394Y-4.2008
X4.4394Y-4.7913
X4.4685Y-3.4925
X4.4685Y-3.7886
X4.5685Y-3.4925
X4.5685Y-3.7886
X4.6685Y-3.4925
X4.6685Y-3.7886
X5.0102Y-3.4925
X5.0102Y-3.7886
X5.1102Y-3.4925
X5.1102Y-3.7886
X5.2102Y-3.4925
X5.2102Y-3.7886
X5.3102Y-3.4925
X5.3102Y-3.7886
X5.4102Y-3.4925
X5.4102Y-3.7886
X5.5102Y-3.4925
X5.5102Y-3.7886
X5.6102Y-3.4925
X5.6102Y-3.7886
X5.7102Y-3.4925
X5.7102Y-3.7886
X6.0142Y-3.4929
X6.0142Y-3.789
X6.1142Y-3.4929
X6.1142Y-3.789
X6.2142Y-3.4929
X6.2142Y-3.789
X6.3142Y-3.4929
X6.3142Y-3.789
X6.4142Y-3.4929
X6.4142Y-3.789
X6.5142Y-3.4929
X6.5142Y-3.789
X6.6142Y-3.4929
X6.6142Y-3.789
X6.7142Y-3.4929
X6.7142Y-3.789
X7.0394Y-3.4929
X7.0394Y-3.789
X7.1394Y-3.4929
X7.1394Y-3.789
X7.2394Y-3.4929
X7.2394Y-3.789
X7.3394Y-3.4929
X7.3394Y-3.789
X7.4394Y-3.4929
X7.4394Y-3.789
X7.5394Y-3.4929
X7.5394Y-3.789
X7.6394Y-3.4929
X7.6394Y-3.789
X7.7394Y-3.4929
X7.7394Y-3.789
X8.1122Y-3.4929
X8.1122Y-3.789
X8.2122Y-3.4929
X8.2122Y-3.789
X8.3122Y-3.4929
X8.3122Y-3.789
X8.4122Y-3.4929
X8.4122Y-3.789
X8.5122Y-3.4929
X8.5122Y-3.789
X8.6122Y-3.4929
X8.6122Y-3.789
X8.7122Y-3.4929
X8.7122Y-3.789
X8.8122Y-3.4929
X8.8122Y-3.789
X9.1244Y-3.4929
X9.1244Y-3.789
X9.2244Y-3.4929
X9.2244Y-3.789
X9.3244Y-3.4929
X9.3244Y-3.789
X9.4244Y-3.4929
X9.4244Y-3.789
X9.5244Y-3.4929
X9.5244Y-3.789
X9.6244Y-3.4929
X9.6244Y-3.789
X9.7244Y-3.4929
X9.7244Y-3.789
X9.8244Y-3.4929
X9.8244Y-3.789
T3
X8.0236Y-4.05
X8.0236Y-4.75
X8.1236Y-4.05
X8.1236Y-4.75
X8.2236Y-4.05
X8.2236Y-4.75
X8.3236Y-4.05
X8.3236Y-4.75
X8.4236Y-4.05
X8.4236Y-4.75
X8.5236Y-4.05
X8.5236Y-4.75
X8.6236Y-4.05
X8.6236Y-4.75
X8.7236Y-4.05
X8.7236Y-4.75
X8.8236Y-4.05
X8.8236Y-4.75
X8.9236Y-4.05
X8.9236Y-4.75
X9.0236Y-4.05
X9.0236Y-4.75
X9.1236Y-4.05
X9.1236Y-4.75
X9.2236Y-4.05
X9.2236Y-4.75
X9.3236Y-4.05
X9.3236Y-4.75
X9.4236Y-4.05
X9.4236Y-4.75
X9.5236Y-4.05
X9.5236Y-4.75
X9.6236Y-4.05
X9.6236Y-4.75
X9.7236Y-4.05
X9.7236Y-4.75
X9.8236Y-4.05
X9.8236Y-4.75
X9.9236Y-4.05
X9.9236Y-4.75
T4
X4.2358Y-2.4606
X4.2358Y-2.6378
X4.2358Y-2.815
X4.2959Y-2.3228
X4.2959Y-2.9528
X4.4533Y-2.2835
X4.4533Y-2.9921
X4.6108Y-2.3228
X4.6108Y-2.9528
X4.6709Y-2.4606
X4.6709Y-2.6378
X4.6709Y-2.815
X5.0811Y-2.4606
X5.0811Y-2.6378
X5.0811Y-2.815
X5.1411Y-2.3228
X5.1411Y-2.9528
X5.2986Y-2.2835
X5.2986Y-2.9921
X5.4561Y-2.3228
X5.4561Y-2.9528
X5.5161Y-2.4606
X5.5161Y-2.6378
X5.5161Y-2.815
X6.2392Y-2.4606
X6.2392Y-2.6378
X6.2392Y-2.815
X6.2992Y-2.3228
X6.2992Y-2.9528
X6.4567Y-2.2835
X6.4567Y-2.9921
X6.6142Y-2.3228
X6.6142Y-2.9528
X6.6742Y-2.4606
X6.6742Y-2.6378
X6.6742Y-2.815
X7.0844Y-2.4606
X7.0844Y-2.6378
X7.0844Y-2.815
X7.1445Y-2.3228
X7.1445Y-2.9528
X7.302Y-2.2835
X7.302Y-2.9921
X7.4594Y-2.3228
X7.4594Y-2.9528
X7.5195Y-2.4606
X7.5195Y-2.6378
X7.5195Y-2.815
X8.247Y-2.4606
X8.247Y-2.6378
X8.247Y-2.815
X8.3071Y-2.3228
X8.3071Y-2.9528
X8.4646Y-2.2835
X8.4646Y-2.9921
X8.622Y-2.3228
X8.622Y-2.9528
X8.6821Y-2.4606
X8.6821Y-2.6378
X8.6821Y-2.815
X9.0923Y-2.4606
X9.0923Y-2.6378
X9.0923Y-2.815
X9.1524Y-2.3228
X9.1524Y-2.9528
X9.3098Y-2.2835
X9.3098Y-2.9921
X9.4673Y-2.3228
X9.4673Y-2.9528
X9.5274Y-2.4606
X9.5274Y-2.6378
X9.5274Y-2.815
M30
