%TF.GenerationSoftware,KiCad,Pcbnew,9.0.1*%
%TF.CreationDate,2025-06-21T19:31:08-04:00*%
%TF.ProjectId,delorean,64656c6f-7265-4616-9e2e-6b696361645f,rev?*%
%TF.SameCoordinates,Original*%
%TF.FileFunction,Legend,Top*%
%TF.FilePolarity,Positive*%
%FSLAX46Y46*%
G04 Gerber Fmt 4.6, Leading zero omitted, Abs format (unit mm)*
G04 Created by KiCad (PCBNEW 9.0.1) date 2025-06-21 19:31:08*
%MOMM*%
%LPD*%
G01*
G04 APERTURE LIST*
%ADD10C,0.150000*%
%ADD11C,0.156250*%
%ADD12C,0.300000*%
%ADD13C,0.375000*%
%ADD14C,0.125000*%
%ADD15C,0.120000*%
%ADD16C,0.000000*%
%ADD17C,0.100000*%
%ADD18C,5.000000*%
%ADD19C,3.000000*%
G04 APERTURE END LIST*
D10*
X227478207Y-52629819D02*
X227144874Y-52153628D01*
X226906779Y-52629819D02*
X226906779Y-51629819D01*
X226906779Y-51629819D02*
X227287731Y-51629819D01*
X227287731Y-51629819D02*
X227382969Y-51677438D01*
X227382969Y-51677438D02*
X227430588Y-51725057D01*
X227430588Y-51725057D02*
X227478207Y-51820295D01*
X227478207Y-51820295D02*
X227478207Y-51963152D01*
X227478207Y-51963152D02*
X227430588Y-52058390D01*
X227430588Y-52058390D02*
X227382969Y-52106009D01*
X227382969Y-52106009D02*
X227287731Y-52153628D01*
X227287731Y-52153628D02*
X226906779Y-52153628D01*
X228382969Y-51629819D02*
X227906779Y-51629819D01*
X227906779Y-51629819D02*
X227859160Y-52106009D01*
X227859160Y-52106009D02*
X227906779Y-52058390D01*
X227906779Y-52058390D02*
X228002017Y-52010771D01*
X228002017Y-52010771D02*
X228240112Y-52010771D01*
X228240112Y-52010771D02*
X228335350Y-52058390D01*
X228335350Y-52058390D02*
X228382969Y-52106009D01*
X228382969Y-52106009D02*
X228430588Y-52201247D01*
X228430588Y-52201247D02*
X228430588Y-52439342D01*
X228430588Y-52439342D02*
X228382969Y-52534580D01*
X228382969Y-52534580D02*
X228335350Y-52582200D01*
X228335350Y-52582200D02*
X228240112Y-52629819D01*
X228240112Y-52629819D02*
X228002017Y-52629819D01*
X228002017Y-52629819D02*
X227906779Y-52582200D01*
X227906779Y-52582200D02*
X227859160Y-52534580D01*
D11*
X120400415Y-118638898D02*
X120400415Y-117805565D01*
X120400415Y-117924613D02*
X120459938Y-117865089D01*
X120459938Y-117865089D02*
X120578986Y-117805565D01*
X120578986Y-117805565D02*
X120757557Y-117805565D01*
X120757557Y-117805565D02*
X120876605Y-117865089D01*
X120876605Y-117865089D02*
X120936129Y-117984136D01*
X120936129Y-117984136D02*
X120936129Y-118638898D01*
X120936129Y-117984136D02*
X120995653Y-117865089D01*
X120995653Y-117865089D02*
X121114700Y-117805565D01*
X121114700Y-117805565D02*
X121293272Y-117805565D01*
X121293272Y-117805565D02*
X121412319Y-117865089D01*
X121412319Y-117865089D02*
X121471843Y-117984136D01*
X121471843Y-117984136D02*
X121471843Y-118638898D01*
X122543272Y-118579375D02*
X122424224Y-118638898D01*
X122424224Y-118638898D02*
X122186129Y-118638898D01*
X122186129Y-118638898D02*
X122067082Y-118579375D01*
X122067082Y-118579375D02*
X122007558Y-118460327D01*
X122007558Y-118460327D02*
X122007558Y-117984136D01*
X122007558Y-117984136D02*
X122067082Y-117865089D01*
X122067082Y-117865089D02*
X122186129Y-117805565D01*
X122186129Y-117805565D02*
X122424224Y-117805565D01*
X122424224Y-117805565D02*
X122543272Y-117865089D01*
X122543272Y-117865089D02*
X122602796Y-117984136D01*
X122602796Y-117984136D02*
X122602796Y-118103184D01*
X122602796Y-118103184D02*
X122007558Y-118222232D01*
X123674225Y-117805565D02*
X123674225Y-118817470D01*
X123674225Y-118817470D02*
X123614701Y-118936517D01*
X123614701Y-118936517D02*
X123555177Y-118996041D01*
X123555177Y-118996041D02*
X123436130Y-119055565D01*
X123436130Y-119055565D02*
X123257558Y-119055565D01*
X123257558Y-119055565D02*
X123138511Y-118996041D01*
X123674225Y-118579375D02*
X123555177Y-118638898D01*
X123555177Y-118638898D02*
X123317082Y-118638898D01*
X123317082Y-118638898D02*
X123198034Y-118579375D01*
X123198034Y-118579375D02*
X123138511Y-118519851D01*
X123138511Y-118519851D02*
X123078987Y-118400803D01*
X123078987Y-118400803D02*
X123078987Y-118043660D01*
X123078987Y-118043660D02*
X123138511Y-117924613D01*
X123138511Y-117924613D02*
X123198034Y-117865089D01*
X123198034Y-117865089D02*
X123317082Y-117805565D01*
X123317082Y-117805565D02*
X123555177Y-117805565D01*
X123555177Y-117805565D02*
X123674225Y-117865089D01*
X124269463Y-118638898D02*
X124269463Y-117388898D01*
X124805177Y-118638898D02*
X124805177Y-117984136D01*
X124805177Y-117984136D02*
X124745653Y-117865089D01*
X124745653Y-117865089D02*
X124626605Y-117805565D01*
X124626605Y-117805565D02*
X124448034Y-117805565D01*
X124448034Y-117805565D02*
X124328986Y-117865089D01*
X124328986Y-117865089D02*
X124269463Y-117924613D01*
X125936129Y-118638898D02*
X125936129Y-117984136D01*
X125936129Y-117984136D02*
X125876605Y-117865089D01*
X125876605Y-117865089D02*
X125757557Y-117805565D01*
X125757557Y-117805565D02*
X125519462Y-117805565D01*
X125519462Y-117805565D02*
X125400415Y-117865089D01*
X125936129Y-118579375D02*
X125817081Y-118638898D01*
X125817081Y-118638898D02*
X125519462Y-118638898D01*
X125519462Y-118638898D02*
X125400415Y-118579375D01*
X125400415Y-118579375D02*
X125340891Y-118460327D01*
X125340891Y-118460327D02*
X125340891Y-118341279D01*
X125340891Y-118341279D02*
X125400415Y-118222232D01*
X125400415Y-118222232D02*
X125519462Y-118162708D01*
X125519462Y-118162708D02*
X125817081Y-118162708D01*
X125817081Y-118162708D02*
X125936129Y-118103184D01*
X126531367Y-117805565D02*
X126531367Y-118638898D01*
X126531367Y-117924613D02*
X126590890Y-117865089D01*
X126590890Y-117865089D02*
X126709938Y-117805565D01*
X126709938Y-117805565D02*
X126888509Y-117805565D01*
X126888509Y-117805565D02*
X127007557Y-117865089D01*
X127007557Y-117865089D02*
X127067081Y-117984136D01*
X127067081Y-117984136D02*
X127067081Y-118638898D01*
X128198033Y-118638898D02*
X128198033Y-117984136D01*
X128198033Y-117984136D02*
X128138509Y-117865089D01*
X128138509Y-117865089D02*
X128019461Y-117805565D01*
X128019461Y-117805565D02*
X127781366Y-117805565D01*
X127781366Y-117805565D02*
X127662319Y-117865089D01*
X128198033Y-118579375D02*
X128078985Y-118638898D01*
X128078985Y-118638898D02*
X127781366Y-118638898D01*
X127781366Y-118638898D02*
X127662319Y-118579375D01*
X127662319Y-118579375D02*
X127602795Y-118460327D01*
X127602795Y-118460327D02*
X127602795Y-118341279D01*
X127602795Y-118341279D02*
X127662319Y-118222232D01*
X127662319Y-118222232D02*
X127781366Y-118162708D01*
X127781366Y-118162708D02*
X128078985Y-118162708D01*
X128078985Y-118162708D02*
X128198033Y-118103184D01*
X129745652Y-118638898D02*
X129745652Y-117805565D01*
X129745652Y-117388898D02*
X129686128Y-117448422D01*
X129686128Y-117448422D02*
X129745652Y-117507946D01*
X129745652Y-117507946D02*
X129805175Y-117448422D01*
X129805175Y-117448422D02*
X129745652Y-117388898D01*
X129745652Y-117388898D02*
X129745652Y-117507946D01*
X130340890Y-117805565D02*
X130340890Y-118638898D01*
X130340890Y-117924613D02*
X130400413Y-117865089D01*
X130400413Y-117865089D02*
X130519461Y-117805565D01*
X130519461Y-117805565D02*
X130698032Y-117805565D01*
X130698032Y-117805565D02*
X130817080Y-117865089D01*
X130817080Y-117865089D02*
X130876604Y-117984136D01*
X130876604Y-117984136D02*
X130876604Y-118638898D01*
X132007556Y-118579375D02*
X131888508Y-118638898D01*
X131888508Y-118638898D02*
X131650413Y-118638898D01*
X131650413Y-118638898D02*
X131531365Y-118579375D01*
X131531365Y-118579375D02*
X131471842Y-118519851D01*
X131471842Y-118519851D02*
X131412318Y-118400803D01*
X131412318Y-118400803D02*
X131412318Y-118043660D01*
X131412318Y-118043660D02*
X131471842Y-117924613D01*
X131471842Y-117924613D02*
X131531365Y-117865089D01*
X131531365Y-117865089D02*
X131650413Y-117805565D01*
X131650413Y-117805565D02*
X131888508Y-117805565D01*
X131888508Y-117805565D02*
X132007556Y-117865089D01*
X132543271Y-118519851D02*
X132602794Y-118579375D01*
X132602794Y-118579375D02*
X132543271Y-118638898D01*
X132543271Y-118638898D02*
X132483747Y-118579375D01*
X132483747Y-118579375D02*
X132543271Y-118519851D01*
X132543271Y-118519851D02*
X132543271Y-118638898D01*
D12*
X154740225Y-109600828D02*
X155311653Y-109600828D01*
X154954510Y-109100828D02*
X154954510Y-110386542D01*
X154954510Y-110386542D02*
X155025939Y-110529400D01*
X155025939Y-110529400D02*
X155168796Y-110600828D01*
X155168796Y-110600828D02*
X155311653Y-110600828D01*
X155811653Y-110600828D02*
X155811653Y-109100828D01*
X156454511Y-110600828D02*
X156454511Y-109815114D01*
X156454511Y-109815114D02*
X156383082Y-109672257D01*
X156383082Y-109672257D02*
X156240225Y-109600828D01*
X156240225Y-109600828D02*
X156025939Y-109600828D01*
X156025939Y-109600828D02*
X155883082Y-109672257D01*
X155883082Y-109672257D02*
X155811653Y-109743685D01*
X157740225Y-110529400D02*
X157597368Y-110600828D01*
X157597368Y-110600828D02*
X157311654Y-110600828D01*
X157311654Y-110600828D02*
X157168796Y-110529400D01*
X157168796Y-110529400D02*
X157097368Y-110386542D01*
X157097368Y-110386542D02*
X157097368Y-109815114D01*
X157097368Y-109815114D02*
X157168796Y-109672257D01*
X157168796Y-109672257D02*
X157311654Y-109600828D01*
X157311654Y-109600828D02*
X157597368Y-109600828D01*
X157597368Y-109600828D02*
X157740225Y-109672257D01*
X157740225Y-109672257D02*
X157811654Y-109815114D01*
X157811654Y-109815114D02*
X157811654Y-109957971D01*
X157811654Y-109957971D02*
X157097368Y-110100828D01*
D13*
G36*
X153721271Y-111679782D02*
G01*
X153984094Y-111755915D01*
X154228840Y-111882628D01*
X154459237Y-112063895D01*
X154639923Y-112270994D01*
X154763724Y-112493213D01*
X154835623Y-112734649D01*
X154855966Y-113001267D01*
X154820411Y-113300375D01*
X154441224Y-115124258D01*
X154330438Y-115476484D01*
X154151378Y-115796714D01*
X153898845Y-116090557D01*
X153562561Y-116360737D01*
X153246710Y-116545725D01*
X152945342Y-116671150D01*
X152655060Y-116743520D01*
X152372182Y-116767096D01*
X150918937Y-116767096D01*
X151006976Y-116343640D01*
X151448333Y-116343640D01*
X152460415Y-116343640D01*
X152734538Y-116311486D01*
X153029082Y-116209730D01*
X153351596Y-116025819D01*
X153599443Y-115827462D01*
X153784978Y-115612715D01*
X153916038Y-115379657D01*
X153996702Y-115124258D01*
X154375889Y-113300375D01*
X154401229Y-113033317D01*
X154364015Y-112799301D01*
X154267436Y-112588814D01*
X154106306Y-112395150D01*
X153870184Y-112218295D01*
X153619347Y-112115478D01*
X153346406Y-112080992D01*
X152334324Y-112080992D01*
X151448333Y-116343640D01*
X151006976Y-116343640D01*
X151982004Y-111653872D01*
X153435249Y-111653872D01*
X153721271Y-111679782D01*
G37*
G36*
X159308068Y-116767096D02*
G01*
X156732222Y-116767096D01*
X157795289Y-111653872D01*
X160371135Y-111653872D01*
X160282292Y-112080992D01*
X158147304Y-112080992D01*
X157802922Y-113737569D01*
X159393248Y-113737569D01*
X159304710Y-114164384D01*
X157714384Y-114164384D01*
X157261313Y-116343640D01*
X159396301Y-116343640D01*
X159308068Y-116767096D01*
G37*
G36*
X164847496Y-116767096D02*
G01*
X162271650Y-116767096D01*
X163324031Y-111705163D01*
X163764890Y-111705163D01*
X162800741Y-116343640D01*
X164935729Y-116343640D01*
X164847496Y-116767096D01*
G37*
G36*
X170510585Y-111683630D02*
G01*
X170783378Y-111768424D01*
X171017976Y-111905612D01*
X171220708Y-112098089D01*
X171376066Y-112330028D01*
X171468132Y-112581087D01*
X171499461Y-112858196D01*
X171465867Y-113170315D01*
X171032641Y-115254012D01*
X170941985Y-115552871D01*
X170799249Y-115828899D01*
X170601185Y-116086026D01*
X170341434Y-116326543D01*
X170050934Y-116522754D01*
X169754167Y-116659030D01*
X169447706Y-116739954D01*
X169127241Y-116767096D01*
X168803238Y-116737386D01*
X168528819Y-116652966D01*
X168294340Y-116516857D01*
X168093178Y-116326543D01*
X167939417Y-116096482D01*
X167848317Y-115846111D01*
X167817660Y-115568344D01*
X167827315Y-115479939D01*
X168268457Y-115479939D01*
X168290468Y-115679814D01*
X168355963Y-115860186D01*
X168466564Y-116026125D01*
X168611235Y-116163060D01*
X168780623Y-116261172D01*
X168979655Y-116322145D01*
X169215474Y-116343640D01*
X169523227Y-116308832D01*
X169813681Y-116204562D01*
X170093527Y-116025819D01*
X170330325Y-115793942D01*
X170492630Y-115538480D01*
X170588119Y-115254012D01*
X171021345Y-113170315D01*
X171045861Y-112944521D01*
X171023585Y-112745374D01*
X170957837Y-112566202D01*
X170847016Y-112401866D01*
X170702261Y-112263179D01*
X170533331Y-112164074D01*
X170335416Y-112102623D01*
X170101465Y-112080992D01*
X169791866Y-112116164D01*
X169500333Y-112221450D01*
X169220054Y-112401866D01*
X168983752Y-112631842D01*
X168821724Y-112886155D01*
X168726378Y-113170315D01*
X168293152Y-115254012D01*
X168268457Y-115479939D01*
X167827315Y-115479939D01*
X167851988Y-115254012D01*
X168285214Y-113170315D01*
X168376160Y-112869474D01*
X168518537Y-112592891D01*
X168715292Y-112336551D01*
X168972452Y-112098089D01*
X169265151Y-111899992D01*
X169563259Y-111762613D01*
X169870209Y-111681158D01*
X170190308Y-111653872D01*
X170510585Y-111683630D01*
G37*
G36*
X176065736Y-111688075D02*
G01*
X176390833Y-111782652D01*
X176651448Y-111930478D01*
X176830017Y-112102097D01*
X176954271Y-112303751D01*
X177027891Y-112541905D01*
X177047972Y-112826567D01*
X177005294Y-113170315D01*
X176888362Y-113579756D01*
X176731710Y-113906167D01*
X176538991Y-114163539D01*
X176309882Y-114362156D01*
X176040100Y-114507868D01*
X175721798Y-114601578D01*
X176342786Y-116613224D01*
X175906202Y-116784193D01*
X175250409Y-114683705D01*
X175200645Y-114681873D01*
X175029370Y-114687063D01*
X173950427Y-114687063D01*
X173527887Y-116719164D01*
X173086723Y-116719164D01*
X173598653Y-114256585D01*
X174039881Y-114256585D01*
X175118824Y-114256585D01*
X175439026Y-114233036D01*
X175716545Y-114165925D01*
X175958408Y-114058443D01*
X176170402Y-113904792D01*
X176340077Y-113709994D01*
X176470577Y-113468290D01*
X176560772Y-113170315D01*
X176593767Y-112862640D01*
X176560224Y-112623600D01*
X176471290Y-112435410D01*
X176326910Y-112285851D01*
X176137379Y-112177599D01*
X175890623Y-112106979D01*
X175570978Y-112080992D01*
X174492035Y-112080992D01*
X174039881Y-114256585D01*
X173598653Y-114256585D01*
X174139715Y-111653872D01*
X175659822Y-111653872D01*
X176065736Y-111688075D01*
G37*
G36*
X181465779Y-116767096D02*
G01*
X178889933Y-116767096D01*
X179953000Y-111653872D01*
X182528846Y-111653872D01*
X182440003Y-112080992D01*
X180305015Y-112080992D01*
X179960633Y-113737569D01*
X181550959Y-113737569D01*
X181462421Y-114164384D01*
X179872095Y-114164384D01*
X179419024Y-116343640D01*
X181554012Y-116343640D01*
X181465779Y-116767096D01*
G37*
G36*
X187680844Y-116651081D02*
G01*
X187229300Y-116767096D01*
X187044591Y-115469251D01*
X184989898Y-115469251D01*
X184262360Y-116767096D01*
X183862107Y-116651081D01*
X184760421Y-115038773D01*
X185226509Y-115038773D01*
X186980172Y-115038773D01*
X186625409Y-112535284D01*
X185226509Y-115038773D01*
X184760421Y-115038773D01*
X186617777Y-111705163D01*
X186974982Y-111705163D01*
X187680844Y-116651081D01*
G37*
G36*
X192885659Y-116719164D02*
G01*
X192504640Y-116719164D01*
X190984839Y-112685493D01*
X190146170Y-116719164D01*
X189705006Y-116719164D01*
X190747313Y-111705163D01*
X191128026Y-111705163D01*
X192644164Y-115742498D01*
X193483443Y-111705163D01*
X193927965Y-111705163D01*
X192885659Y-116719164D01*
G37*
D14*
X230120331Y-124671119D02*
X230120331Y-124004452D01*
X230120331Y-124099690D02*
X230167950Y-124052071D01*
X230167950Y-124052071D02*
X230263188Y-124004452D01*
X230263188Y-124004452D02*
X230406045Y-124004452D01*
X230406045Y-124004452D02*
X230501283Y-124052071D01*
X230501283Y-124052071D02*
X230548902Y-124147309D01*
X230548902Y-124147309D02*
X230548902Y-124671119D01*
X230548902Y-124147309D02*
X230596521Y-124052071D01*
X230596521Y-124052071D02*
X230691759Y-124004452D01*
X230691759Y-124004452D02*
X230834616Y-124004452D01*
X230834616Y-124004452D02*
X230929855Y-124052071D01*
X230929855Y-124052071D02*
X230977474Y-124147309D01*
X230977474Y-124147309D02*
X230977474Y-124671119D01*
X231834616Y-124623500D02*
X231739378Y-124671119D01*
X231739378Y-124671119D02*
X231548902Y-124671119D01*
X231548902Y-124671119D02*
X231453664Y-124623500D01*
X231453664Y-124623500D02*
X231406045Y-124528261D01*
X231406045Y-124528261D02*
X231406045Y-124147309D01*
X231406045Y-124147309D02*
X231453664Y-124052071D01*
X231453664Y-124052071D02*
X231548902Y-124004452D01*
X231548902Y-124004452D02*
X231739378Y-124004452D01*
X231739378Y-124004452D02*
X231834616Y-124052071D01*
X231834616Y-124052071D02*
X231882235Y-124147309D01*
X231882235Y-124147309D02*
X231882235Y-124242547D01*
X231882235Y-124242547D02*
X231406045Y-124337785D01*
X232739378Y-124004452D02*
X232739378Y-124813976D01*
X232739378Y-124813976D02*
X232691759Y-124909214D01*
X232691759Y-124909214D02*
X232644140Y-124956833D01*
X232644140Y-124956833D02*
X232548902Y-125004452D01*
X232548902Y-125004452D02*
X232406045Y-125004452D01*
X232406045Y-125004452D02*
X232310807Y-124956833D01*
X232739378Y-124623500D02*
X232644140Y-124671119D01*
X232644140Y-124671119D02*
X232453664Y-124671119D01*
X232453664Y-124671119D02*
X232358426Y-124623500D01*
X232358426Y-124623500D02*
X232310807Y-124575880D01*
X232310807Y-124575880D02*
X232263188Y-124480642D01*
X232263188Y-124480642D02*
X232263188Y-124194928D01*
X232263188Y-124194928D02*
X232310807Y-124099690D01*
X232310807Y-124099690D02*
X232358426Y-124052071D01*
X232358426Y-124052071D02*
X232453664Y-124004452D01*
X232453664Y-124004452D02*
X232644140Y-124004452D01*
X232644140Y-124004452D02*
X232739378Y-124052071D01*
X233215569Y-124671119D02*
X233215569Y-123671119D01*
X233644140Y-124671119D02*
X233644140Y-124147309D01*
X233644140Y-124147309D02*
X233596521Y-124052071D01*
X233596521Y-124052071D02*
X233501283Y-124004452D01*
X233501283Y-124004452D02*
X233358426Y-124004452D01*
X233358426Y-124004452D02*
X233263188Y-124052071D01*
X233263188Y-124052071D02*
X233215569Y-124099690D01*
X234548902Y-124671119D02*
X234548902Y-124147309D01*
X234548902Y-124147309D02*
X234501283Y-124052071D01*
X234501283Y-124052071D02*
X234406045Y-124004452D01*
X234406045Y-124004452D02*
X234215569Y-124004452D01*
X234215569Y-124004452D02*
X234120331Y-124052071D01*
X234548902Y-124623500D02*
X234453664Y-124671119D01*
X234453664Y-124671119D02*
X234215569Y-124671119D01*
X234215569Y-124671119D02*
X234120331Y-124623500D01*
X234120331Y-124623500D02*
X234072712Y-124528261D01*
X234072712Y-124528261D02*
X234072712Y-124433023D01*
X234072712Y-124433023D02*
X234120331Y-124337785D01*
X234120331Y-124337785D02*
X234215569Y-124290166D01*
X234215569Y-124290166D02*
X234453664Y-124290166D01*
X234453664Y-124290166D02*
X234548902Y-124242547D01*
X235025093Y-124004452D02*
X235025093Y-124671119D01*
X235025093Y-124099690D02*
X235072712Y-124052071D01*
X235072712Y-124052071D02*
X235167950Y-124004452D01*
X235167950Y-124004452D02*
X235310807Y-124004452D01*
X235310807Y-124004452D02*
X235406045Y-124052071D01*
X235406045Y-124052071D02*
X235453664Y-124147309D01*
X235453664Y-124147309D02*
X235453664Y-124671119D01*
X236358426Y-124671119D02*
X236358426Y-124147309D01*
X236358426Y-124147309D02*
X236310807Y-124052071D01*
X236310807Y-124052071D02*
X236215569Y-124004452D01*
X236215569Y-124004452D02*
X236025093Y-124004452D01*
X236025093Y-124004452D02*
X235929855Y-124052071D01*
X236358426Y-124623500D02*
X236263188Y-124671119D01*
X236263188Y-124671119D02*
X236025093Y-124671119D01*
X236025093Y-124671119D02*
X235929855Y-124623500D01*
X235929855Y-124623500D02*
X235882236Y-124528261D01*
X235882236Y-124528261D02*
X235882236Y-124433023D01*
X235882236Y-124433023D02*
X235929855Y-124337785D01*
X235929855Y-124337785D02*
X236025093Y-124290166D01*
X236025093Y-124290166D02*
X236263188Y-124290166D01*
X236263188Y-124290166D02*
X236358426Y-124242547D01*
X237596522Y-124671119D02*
X237596522Y-124004452D01*
X237596522Y-123671119D02*
X237548903Y-123718738D01*
X237548903Y-123718738D02*
X237596522Y-123766357D01*
X237596522Y-123766357D02*
X237644141Y-123718738D01*
X237644141Y-123718738D02*
X237596522Y-123671119D01*
X237596522Y-123671119D02*
X237596522Y-123766357D01*
X238072712Y-124004452D02*
X238072712Y-124671119D01*
X238072712Y-124099690D02*
X238120331Y-124052071D01*
X238120331Y-124052071D02*
X238215569Y-124004452D01*
X238215569Y-124004452D02*
X238358426Y-124004452D01*
X238358426Y-124004452D02*
X238453664Y-124052071D01*
X238453664Y-124052071D02*
X238501283Y-124147309D01*
X238501283Y-124147309D02*
X238501283Y-124671119D01*
X239406045Y-124623500D02*
X239310807Y-124671119D01*
X239310807Y-124671119D02*
X239120331Y-124671119D01*
X239120331Y-124671119D02*
X239025093Y-124623500D01*
X239025093Y-124623500D02*
X238977474Y-124575880D01*
X238977474Y-124575880D02*
X238929855Y-124480642D01*
X238929855Y-124480642D02*
X238929855Y-124194928D01*
X238929855Y-124194928D02*
X238977474Y-124099690D01*
X238977474Y-124099690D02*
X239025093Y-124052071D01*
X239025093Y-124052071D02*
X239120331Y-124004452D01*
X239120331Y-124004452D02*
X239310807Y-124004452D01*
X239310807Y-124004452D02*
X239406045Y-124052071D01*
X239834617Y-124575880D02*
X239882236Y-124623500D01*
X239882236Y-124623500D02*
X239834617Y-124671119D01*
X239834617Y-124671119D02*
X239786998Y-124623500D01*
X239786998Y-124623500D02*
X239834617Y-124575880D01*
X239834617Y-124575880D02*
X239834617Y-124671119D01*
X241786997Y-123623500D02*
X240929855Y-124909214D01*
X242834616Y-123623500D02*
X241977474Y-124909214D01*
X243929855Y-124671119D02*
X243929855Y-123671119D01*
X244358426Y-124671119D02*
X244358426Y-124147309D01*
X244358426Y-124147309D02*
X244310807Y-124052071D01*
X244310807Y-124052071D02*
X244215569Y-124004452D01*
X244215569Y-124004452D02*
X244072712Y-124004452D01*
X244072712Y-124004452D02*
X243977474Y-124052071D01*
X243977474Y-124052071D02*
X243929855Y-124099690D01*
X244834617Y-124671119D02*
X244834617Y-124004452D01*
X244834617Y-123671119D02*
X244786998Y-123718738D01*
X244786998Y-123718738D02*
X244834617Y-123766357D01*
X244834617Y-123766357D02*
X244882236Y-123718738D01*
X244882236Y-123718738D02*
X244834617Y-123671119D01*
X244834617Y-123671119D02*
X244834617Y-123766357D01*
X245739378Y-124004452D02*
X245739378Y-124813976D01*
X245739378Y-124813976D02*
X245691759Y-124909214D01*
X245691759Y-124909214D02*
X245644140Y-124956833D01*
X245644140Y-124956833D02*
X245548902Y-125004452D01*
X245548902Y-125004452D02*
X245406045Y-125004452D01*
X245406045Y-125004452D02*
X245310807Y-124956833D01*
X245739378Y-124623500D02*
X245644140Y-124671119D01*
X245644140Y-124671119D02*
X245453664Y-124671119D01*
X245453664Y-124671119D02*
X245358426Y-124623500D01*
X245358426Y-124623500D02*
X245310807Y-124575880D01*
X245310807Y-124575880D02*
X245263188Y-124480642D01*
X245263188Y-124480642D02*
X245263188Y-124194928D01*
X245263188Y-124194928D02*
X245310807Y-124099690D01*
X245310807Y-124099690D02*
X245358426Y-124052071D01*
X245358426Y-124052071D02*
X245453664Y-124004452D01*
X245453664Y-124004452D02*
X245644140Y-124004452D01*
X245644140Y-124004452D02*
X245739378Y-124052071D01*
X246215569Y-124671119D02*
X246215569Y-123671119D01*
X246644140Y-124671119D02*
X246644140Y-124147309D01*
X246644140Y-124147309D02*
X246596521Y-124052071D01*
X246596521Y-124052071D02*
X246501283Y-124004452D01*
X246501283Y-124004452D02*
X246358426Y-124004452D01*
X246358426Y-124004452D02*
X246263188Y-124052071D01*
X246263188Y-124052071D02*
X246215569Y-124099690D01*
X247025093Y-124004452D02*
X247215569Y-124671119D01*
X247215569Y-124671119D02*
X247406045Y-124194928D01*
X247406045Y-124194928D02*
X247596521Y-124671119D01*
X247596521Y-124671119D02*
X247786997Y-124004452D01*
X248596521Y-124671119D02*
X248596521Y-124147309D01*
X248596521Y-124147309D02*
X248548902Y-124052071D01*
X248548902Y-124052071D02*
X248453664Y-124004452D01*
X248453664Y-124004452D02*
X248263188Y-124004452D01*
X248263188Y-124004452D02*
X248167950Y-124052071D01*
X248596521Y-124623500D02*
X248501283Y-124671119D01*
X248501283Y-124671119D02*
X248263188Y-124671119D01*
X248263188Y-124671119D02*
X248167950Y-124623500D01*
X248167950Y-124623500D02*
X248120331Y-124528261D01*
X248120331Y-124528261D02*
X248120331Y-124433023D01*
X248120331Y-124433023D02*
X248167950Y-124337785D01*
X248167950Y-124337785D02*
X248263188Y-124290166D01*
X248263188Y-124290166D02*
X248501283Y-124290166D01*
X248501283Y-124290166D02*
X248596521Y-124242547D01*
X248977474Y-124004452D02*
X249215569Y-124671119D01*
X249453664Y-124004452D02*
X249215569Y-124671119D01*
X249215569Y-124671119D02*
X249120331Y-124909214D01*
X249120331Y-124909214D02*
X249072712Y-124956833D01*
X249072712Y-124956833D02*
X248977474Y-125004452D01*
X250548903Y-123766357D02*
X250596522Y-123718738D01*
X250596522Y-123718738D02*
X250691760Y-123671119D01*
X250691760Y-123671119D02*
X250929855Y-123671119D01*
X250929855Y-123671119D02*
X251025093Y-123718738D01*
X251025093Y-123718738D02*
X251072712Y-123766357D01*
X251072712Y-123766357D02*
X251120331Y-123861595D01*
X251120331Y-123861595D02*
X251120331Y-123956833D01*
X251120331Y-123956833D02*
X251072712Y-124099690D01*
X251072712Y-124099690D02*
X250501284Y-124671119D01*
X250501284Y-124671119D02*
X251120331Y-124671119D01*
X251739379Y-123671119D02*
X251834617Y-123671119D01*
X251834617Y-123671119D02*
X251929855Y-123718738D01*
X251929855Y-123718738D02*
X251977474Y-123766357D01*
X251977474Y-123766357D02*
X252025093Y-123861595D01*
X252025093Y-123861595D02*
X252072712Y-124052071D01*
X252072712Y-124052071D02*
X252072712Y-124290166D01*
X252072712Y-124290166D02*
X252025093Y-124480642D01*
X252025093Y-124480642D02*
X251977474Y-124575880D01*
X251977474Y-124575880D02*
X251929855Y-124623500D01*
X251929855Y-124623500D02*
X251834617Y-124671119D01*
X251834617Y-124671119D02*
X251739379Y-124671119D01*
X251739379Y-124671119D02*
X251644141Y-124623500D01*
X251644141Y-124623500D02*
X251596522Y-124575880D01*
X251596522Y-124575880D02*
X251548903Y-124480642D01*
X251548903Y-124480642D02*
X251501284Y-124290166D01*
X251501284Y-124290166D02*
X251501284Y-124052071D01*
X251501284Y-124052071D02*
X251548903Y-123861595D01*
X251548903Y-123861595D02*
X251596522Y-123766357D01*
X251596522Y-123766357D02*
X251644141Y-123718738D01*
X251644141Y-123718738D02*
X251739379Y-123671119D01*
X252453665Y-123766357D02*
X252501284Y-123718738D01*
X252501284Y-123718738D02*
X252596522Y-123671119D01*
X252596522Y-123671119D02*
X252834617Y-123671119D01*
X252834617Y-123671119D02*
X252929855Y-123718738D01*
X252929855Y-123718738D02*
X252977474Y-123766357D01*
X252977474Y-123766357D02*
X253025093Y-123861595D01*
X253025093Y-123861595D02*
X253025093Y-123956833D01*
X253025093Y-123956833D02*
X252977474Y-124099690D01*
X252977474Y-124099690D02*
X252406046Y-124671119D01*
X252406046Y-124671119D02*
X253025093Y-124671119D01*
X253929855Y-123671119D02*
X253453665Y-123671119D01*
X253453665Y-123671119D02*
X253406046Y-124147309D01*
X253406046Y-124147309D02*
X253453665Y-124099690D01*
X253453665Y-124099690D02*
X253548903Y-124052071D01*
X253548903Y-124052071D02*
X253786998Y-124052071D01*
X253786998Y-124052071D02*
X253882236Y-124099690D01*
X253882236Y-124099690D02*
X253929855Y-124147309D01*
X253929855Y-124147309D02*
X253977474Y-124242547D01*
X253977474Y-124242547D02*
X253977474Y-124480642D01*
X253977474Y-124480642D02*
X253929855Y-124575880D01*
X253929855Y-124575880D02*
X253882236Y-124623500D01*
X253882236Y-124623500D02*
X253786998Y-124671119D01*
X253786998Y-124671119D02*
X253548903Y-124671119D01*
X253548903Y-124671119D02*
X253453665Y-124623500D01*
X253453665Y-124623500D02*
X253406046Y-124575880D01*
D10*
X203404819Y-93241904D02*
X204214342Y-93241904D01*
X204214342Y-93241904D02*
X204309580Y-93194285D01*
X204309580Y-93194285D02*
X204357200Y-93146666D01*
X204357200Y-93146666D02*
X204404819Y-93051428D01*
X204404819Y-93051428D02*
X204404819Y-92860952D01*
X204404819Y-92860952D02*
X204357200Y-92765714D01*
X204357200Y-92765714D02*
X204309580Y-92718095D01*
X204309580Y-92718095D02*
X204214342Y-92670476D01*
X204214342Y-92670476D02*
X203404819Y-92670476D01*
X203404819Y-91765714D02*
X203404819Y-91956190D01*
X203404819Y-91956190D02*
X203452438Y-92051428D01*
X203452438Y-92051428D02*
X203500057Y-92099047D01*
X203500057Y-92099047D02*
X203642914Y-92194285D01*
X203642914Y-92194285D02*
X203833390Y-92241904D01*
X203833390Y-92241904D02*
X204214342Y-92241904D01*
X204214342Y-92241904D02*
X204309580Y-92194285D01*
X204309580Y-92194285D02*
X204357200Y-92146666D01*
X204357200Y-92146666D02*
X204404819Y-92051428D01*
X204404819Y-92051428D02*
X204404819Y-91860952D01*
X204404819Y-91860952D02*
X204357200Y-91765714D01*
X204357200Y-91765714D02*
X204309580Y-91718095D01*
X204309580Y-91718095D02*
X204214342Y-91670476D01*
X204214342Y-91670476D02*
X203976247Y-91670476D01*
X203976247Y-91670476D02*
X203881009Y-91718095D01*
X203881009Y-91718095D02*
X203833390Y-91765714D01*
X203833390Y-91765714D02*
X203785771Y-91860952D01*
X203785771Y-91860952D02*
X203785771Y-92051428D01*
X203785771Y-92051428D02*
X203833390Y-92146666D01*
X203833390Y-92146666D02*
X203881009Y-92194285D01*
X203881009Y-92194285D02*
X203976247Y-92241904D01*
X212035238Y-92934819D02*
X212035238Y-91934819D01*
X212606666Y-92934819D02*
X212178095Y-92363390D01*
X212606666Y-91934819D02*
X212035238Y-92506247D01*
X213559047Y-92934819D02*
X212987619Y-92934819D01*
X213273333Y-92934819D02*
X213273333Y-91934819D01*
X213273333Y-91934819D02*
X213178095Y-92077676D01*
X213178095Y-92077676D02*
X213082857Y-92172914D01*
X213082857Y-92172914D02*
X212987619Y-92220533D01*
X214463809Y-91934819D02*
X213987619Y-91934819D01*
X213987619Y-91934819D02*
X213940000Y-92411009D01*
X213940000Y-92411009D02*
X213987619Y-92363390D01*
X213987619Y-92363390D02*
X214082857Y-92315771D01*
X214082857Y-92315771D02*
X214320952Y-92315771D01*
X214320952Y-92315771D02*
X214416190Y-92363390D01*
X214416190Y-92363390D02*
X214463809Y-92411009D01*
X214463809Y-92411009D02*
X214511428Y-92506247D01*
X214511428Y-92506247D02*
X214511428Y-92744342D01*
X214511428Y-92744342D02*
X214463809Y-92839580D01*
X214463809Y-92839580D02*
X214416190Y-92887200D01*
X214416190Y-92887200D02*
X214320952Y-92934819D01*
X214320952Y-92934819D02*
X214082857Y-92934819D01*
X214082857Y-92934819D02*
X213987619Y-92887200D01*
X213987619Y-92887200D02*
X213940000Y-92839580D01*
X215416190Y-91934819D02*
X214940000Y-91934819D01*
X214940000Y-91934819D02*
X214892381Y-92411009D01*
X214892381Y-92411009D02*
X214940000Y-92363390D01*
X214940000Y-92363390D02*
X215035238Y-92315771D01*
X215035238Y-92315771D02*
X215273333Y-92315771D01*
X215273333Y-92315771D02*
X215368571Y-92363390D01*
X215368571Y-92363390D02*
X215416190Y-92411009D01*
X215416190Y-92411009D02*
X215463809Y-92506247D01*
X215463809Y-92506247D02*
X215463809Y-92744342D01*
X215463809Y-92744342D02*
X215416190Y-92839580D01*
X215416190Y-92839580D02*
X215368571Y-92887200D01*
X215368571Y-92887200D02*
X215273333Y-92934819D01*
X215273333Y-92934819D02*
X215035238Y-92934819D01*
X215035238Y-92934819D02*
X214940000Y-92887200D01*
X214940000Y-92887200D02*
X214892381Y-92839580D01*
X215892381Y-92934819D02*
X215892381Y-91934819D01*
X216368571Y-92934819D02*
X216368571Y-91934819D01*
X216368571Y-91934819D02*
X216606666Y-91934819D01*
X216606666Y-91934819D02*
X216749523Y-91982438D01*
X216749523Y-91982438D02*
X216844761Y-92077676D01*
X216844761Y-92077676D02*
X216892380Y-92172914D01*
X216892380Y-92172914D02*
X216939999Y-92363390D01*
X216939999Y-92363390D02*
X216939999Y-92506247D01*
X216939999Y-92506247D02*
X216892380Y-92696723D01*
X216892380Y-92696723D02*
X216844761Y-92791961D01*
X216844761Y-92791961D02*
X216749523Y-92887200D01*
X216749523Y-92887200D02*
X216606666Y-92934819D01*
X216606666Y-92934819D02*
X216368571Y-92934819D01*
X217892380Y-92934819D02*
X217320952Y-92934819D01*
X217606666Y-92934819D02*
X217606666Y-91934819D01*
X217606666Y-91934819D02*
X217511428Y-92077676D01*
X217511428Y-92077676D02*
X217416190Y-92172914D01*
X217416190Y-92172914D02*
X217320952Y-92220533D01*
X229114819Y-93241904D02*
X229924342Y-93241904D01*
X229924342Y-93241904D02*
X230019580Y-93194285D01*
X230019580Y-93194285D02*
X230067200Y-93146666D01*
X230067200Y-93146666D02*
X230114819Y-93051428D01*
X230114819Y-93051428D02*
X230114819Y-92860952D01*
X230114819Y-92860952D02*
X230067200Y-92765714D01*
X230067200Y-92765714D02*
X230019580Y-92718095D01*
X230019580Y-92718095D02*
X229924342Y-92670476D01*
X229924342Y-92670476D02*
X229114819Y-92670476D01*
X229114819Y-92289523D02*
X229114819Y-91622857D01*
X229114819Y-91622857D02*
X230114819Y-92051428D01*
X237745238Y-92934819D02*
X237745238Y-91934819D01*
X238316666Y-92934819D02*
X237888095Y-92363390D01*
X238316666Y-91934819D02*
X237745238Y-92506247D01*
X239269047Y-92934819D02*
X238697619Y-92934819D01*
X238983333Y-92934819D02*
X238983333Y-91934819D01*
X238983333Y-91934819D02*
X238888095Y-92077676D01*
X238888095Y-92077676D02*
X238792857Y-92172914D01*
X238792857Y-92172914D02*
X238697619Y-92220533D01*
X240173809Y-91934819D02*
X239697619Y-91934819D01*
X239697619Y-91934819D02*
X239650000Y-92411009D01*
X239650000Y-92411009D02*
X239697619Y-92363390D01*
X239697619Y-92363390D02*
X239792857Y-92315771D01*
X239792857Y-92315771D02*
X240030952Y-92315771D01*
X240030952Y-92315771D02*
X240126190Y-92363390D01*
X240126190Y-92363390D02*
X240173809Y-92411009D01*
X240173809Y-92411009D02*
X240221428Y-92506247D01*
X240221428Y-92506247D02*
X240221428Y-92744342D01*
X240221428Y-92744342D02*
X240173809Y-92839580D01*
X240173809Y-92839580D02*
X240126190Y-92887200D01*
X240126190Y-92887200D02*
X240030952Y-92934819D01*
X240030952Y-92934819D02*
X239792857Y-92934819D01*
X239792857Y-92934819D02*
X239697619Y-92887200D01*
X239697619Y-92887200D02*
X239650000Y-92839580D01*
X241126190Y-91934819D02*
X240650000Y-91934819D01*
X240650000Y-91934819D02*
X240602381Y-92411009D01*
X240602381Y-92411009D02*
X240650000Y-92363390D01*
X240650000Y-92363390D02*
X240745238Y-92315771D01*
X240745238Y-92315771D02*
X240983333Y-92315771D01*
X240983333Y-92315771D02*
X241078571Y-92363390D01*
X241078571Y-92363390D02*
X241126190Y-92411009D01*
X241126190Y-92411009D02*
X241173809Y-92506247D01*
X241173809Y-92506247D02*
X241173809Y-92744342D01*
X241173809Y-92744342D02*
X241126190Y-92839580D01*
X241126190Y-92839580D02*
X241078571Y-92887200D01*
X241078571Y-92887200D02*
X240983333Y-92934819D01*
X240983333Y-92934819D02*
X240745238Y-92934819D01*
X240745238Y-92934819D02*
X240650000Y-92887200D01*
X240650000Y-92887200D02*
X240602381Y-92839580D01*
X241602381Y-92934819D02*
X241602381Y-91934819D01*
X242078571Y-92934819D02*
X242078571Y-91934819D01*
X242078571Y-91934819D02*
X242316666Y-91934819D01*
X242316666Y-91934819D02*
X242459523Y-91982438D01*
X242459523Y-91982438D02*
X242554761Y-92077676D01*
X242554761Y-92077676D02*
X242602380Y-92172914D01*
X242602380Y-92172914D02*
X242649999Y-92363390D01*
X242649999Y-92363390D02*
X242649999Y-92506247D01*
X242649999Y-92506247D02*
X242602380Y-92696723D01*
X242602380Y-92696723D02*
X242554761Y-92791961D01*
X242554761Y-92791961D02*
X242459523Y-92887200D01*
X242459523Y-92887200D02*
X242316666Y-92934819D01*
X242316666Y-92934819D02*
X242078571Y-92934819D01*
X243602380Y-92934819D02*
X243030952Y-92934819D01*
X243316666Y-92934819D02*
X243316666Y-91934819D01*
X243316666Y-91934819D02*
X243221428Y-92077676D01*
X243221428Y-92077676D02*
X243126190Y-92172914D01*
X243126190Y-92172914D02*
X243030952Y-92220533D01*
X250013333Y-52464819D02*
X249680000Y-51988628D01*
X249441905Y-52464819D02*
X249441905Y-51464819D01*
X249441905Y-51464819D02*
X249822857Y-51464819D01*
X249822857Y-51464819D02*
X249918095Y-51512438D01*
X249918095Y-51512438D02*
X249965714Y-51560057D01*
X249965714Y-51560057D02*
X250013333Y-51655295D01*
X250013333Y-51655295D02*
X250013333Y-51798152D01*
X250013333Y-51798152D02*
X249965714Y-51893390D01*
X249965714Y-51893390D02*
X249918095Y-51941009D01*
X249918095Y-51941009D02*
X249822857Y-51988628D01*
X249822857Y-51988628D02*
X249441905Y-51988628D01*
X250870476Y-51464819D02*
X250680000Y-51464819D01*
X250680000Y-51464819D02*
X250584762Y-51512438D01*
X250584762Y-51512438D02*
X250537143Y-51560057D01*
X250537143Y-51560057D02*
X250441905Y-51702914D01*
X250441905Y-51702914D02*
X250394286Y-51893390D01*
X250394286Y-51893390D02*
X250394286Y-52274342D01*
X250394286Y-52274342D02*
X250441905Y-52369580D01*
X250441905Y-52369580D02*
X250489524Y-52417200D01*
X250489524Y-52417200D02*
X250584762Y-52464819D01*
X250584762Y-52464819D02*
X250775238Y-52464819D01*
X250775238Y-52464819D02*
X250870476Y-52417200D01*
X250870476Y-52417200D02*
X250918095Y-52369580D01*
X250918095Y-52369580D02*
X250965714Y-52274342D01*
X250965714Y-52274342D02*
X250965714Y-52036247D01*
X250965714Y-52036247D02*
X250918095Y-51941009D01*
X250918095Y-51941009D02*
X250870476Y-51893390D01*
X250870476Y-51893390D02*
X250775238Y-51845771D01*
X250775238Y-51845771D02*
X250584762Y-51845771D01*
X250584762Y-51845771D02*
X250489524Y-51893390D01*
X250489524Y-51893390D02*
X250441905Y-51941009D01*
X250441905Y-51941009D02*
X250394286Y-52036247D01*
X176833333Y-52574819D02*
X176500000Y-52098628D01*
X176261905Y-52574819D02*
X176261905Y-51574819D01*
X176261905Y-51574819D02*
X176642857Y-51574819D01*
X176642857Y-51574819D02*
X176738095Y-51622438D01*
X176738095Y-51622438D02*
X176785714Y-51670057D01*
X176785714Y-51670057D02*
X176833333Y-51765295D01*
X176833333Y-51765295D02*
X176833333Y-51908152D01*
X176833333Y-51908152D02*
X176785714Y-52003390D01*
X176785714Y-52003390D02*
X176738095Y-52051009D01*
X176738095Y-52051009D02*
X176642857Y-52098628D01*
X176642857Y-52098628D02*
X176261905Y-52098628D01*
X177166667Y-51574819D02*
X177785714Y-51574819D01*
X177785714Y-51574819D02*
X177452381Y-51955771D01*
X177452381Y-51955771D02*
X177595238Y-51955771D01*
X177595238Y-51955771D02*
X177690476Y-52003390D01*
X177690476Y-52003390D02*
X177738095Y-52051009D01*
X177738095Y-52051009D02*
X177785714Y-52146247D01*
X177785714Y-52146247D02*
X177785714Y-52384342D01*
X177785714Y-52384342D02*
X177738095Y-52479580D01*
X177738095Y-52479580D02*
X177690476Y-52527200D01*
X177690476Y-52527200D02*
X177595238Y-52574819D01*
X177595238Y-52574819D02*
X177309524Y-52574819D01*
X177309524Y-52574819D02*
X177214286Y-52527200D01*
X177214286Y-52527200D02*
X177166667Y-52479580D01*
X162761905Y-83854819D02*
X162761905Y-82854819D01*
X162761905Y-82854819D02*
X163333333Y-83854819D01*
X163333333Y-83854819D02*
X163333333Y-82854819D01*
X163714286Y-82854819D02*
X164380952Y-83854819D01*
X164380952Y-82854819D02*
X163714286Y-83854819D01*
X164666667Y-82854819D02*
X165285714Y-82854819D01*
X165285714Y-82854819D02*
X164952381Y-83235771D01*
X164952381Y-83235771D02*
X165095238Y-83235771D01*
X165095238Y-83235771D02*
X165190476Y-83283390D01*
X165190476Y-83283390D02*
X165238095Y-83331009D01*
X165238095Y-83331009D02*
X165285714Y-83426247D01*
X165285714Y-83426247D02*
X165285714Y-83664342D01*
X165285714Y-83664342D02*
X165238095Y-83759580D01*
X165238095Y-83759580D02*
X165190476Y-83807200D01*
X165190476Y-83807200D02*
X165095238Y-83854819D01*
X165095238Y-83854819D02*
X164809524Y-83854819D01*
X164809524Y-83854819D02*
X164714286Y-83807200D01*
X164714286Y-83807200D02*
X164666667Y-83759580D01*
X124614819Y-93231904D02*
X125424342Y-93231904D01*
X125424342Y-93231904D02*
X125519580Y-93184285D01*
X125519580Y-93184285D02*
X125567200Y-93136666D01*
X125567200Y-93136666D02*
X125614819Y-93041428D01*
X125614819Y-93041428D02*
X125614819Y-92850952D01*
X125614819Y-92850952D02*
X125567200Y-92755714D01*
X125567200Y-92755714D02*
X125519580Y-92708095D01*
X125519580Y-92708095D02*
X125424342Y-92660476D01*
X125424342Y-92660476D02*
X124614819Y-92660476D01*
X124614819Y-92279523D02*
X124614819Y-91660476D01*
X124614819Y-91660476D02*
X124995771Y-91993809D01*
X124995771Y-91993809D02*
X124995771Y-91850952D01*
X124995771Y-91850952D02*
X125043390Y-91755714D01*
X125043390Y-91755714D02*
X125091009Y-91708095D01*
X125091009Y-91708095D02*
X125186247Y-91660476D01*
X125186247Y-91660476D02*
X125424342Y-91660476D01*
X125424342Y-91660476D02*
X125519580Y-91708095D01*
X125519580Y-91708095D02*
X125567200Y-91755714D01*
X125567200Y-91755714D02*
X125614819Y-91850952D01*
X125614819Y-91850952D02*
X125614819Y-92136666D01*
X125614819Y-92136666D02*
X125567200Y-92231904D01*
X125567200Y-92231904D02*
X125519580Y-92279523D01*
X133245238Y-92924819D02*
X133245238Y-91924819D01*
X133816666Y-92924819D02*
X133388095Y-92353390D01*
X133816666Y-91924819D02*
X133245238Y-92496247D01*
X134769047Y-92924819D02*
X134197619Y-92924819D01*
X134483333Y-92924819D02*
X134483333Y-91924819D01*
X134483333Y-91924819D02*
X134388095Y-92067676D01*
X134388095Y-92067676D02*
X134292857Y-92162914D01*
X134292857Y-92162914D02*
X134197619Y-92210533D01*
X135673809Y-91924819D02*
X135197619Y-91924819D01*
X135197619Y-91924819D02*
X135150000Y-92401009D01*
X135150000Y-92401009D02*
X135197619Y-92353390D01*
X135197619Y-92353390D02*
X135292857Y-92305771D01*
X135292857Y-92305771D02*
X135530952Y-92305771D01*
X135530952Y-92305771D02*
X135626190Y-92353390D01*
X135626190Y-92353390D02*
X135673809Y-92401009D01*
X135673809Y-92401009D02*
X135721428Y-92496247D01*
X135721428Y-92496247D02*
X135721428Y-92734342D01*
X135721428Y-92734342D02*
X135673809Y-92829580D01*
X135673809Y-92829580D02*
X135626190Y-92877200D01*
X135626190Y-92877200D02*
X135530952Y-92924819D01*
X135530952Y-92924819D02*
X135292857Y-92924819D01*
X135292857Y-92924819D02*
X135197619Y-92877200D01*
X135197619Y-92877200D02*
X135150000Y-92829580D01*
X136626190Y-91924819D02*
X136150000Y-91924819D01*
X136150000Y-91924819D02*
X136102381Y-92401009D01*
X136102381Y-92401009D02*
X136150000Y-92353390D01*
X136150000Y-92353390D02*
X136245238Y-92305771D01*
X136245238Y-92305771D02*
X136483333Y-92305771D01*
X136483333Y-92305771D02*
X136578571Y-92353390D01*
X136578571Y-92353390D02*
X136626190Y-92401009D01*
X136626190Y-92401009D02*
X136673809Y-92496247D01*
X136673809Y-92496247D02*
X136673809Y-92734342D01*
X136673809Y-92734342D02*
X136626190Y-92829580D01*
X136626190Y-92829580D02*
X136578571Y-92877200D01*
X136578571Y-92877200D02*
X136483333Y-92924819D01*
X136483333Y-92924819D02*
X136245238Y-92924819D01*
X136245238Y-92924819D02*
X136150000Y-92877200D01*
X136150000Y-92877200D02*
X136102381Y-92829580D01*
X137102381Y-92924819D02*
X137102381Y-91924819D01*
X137578571Y-92924819D02*
X137578571Y-91924819D01*
X137578571Y-91924819D02*
X137816666Y-91924819D01*
X137816666Y-91924819D02*
X137959523Y-91972438D01*
X137959523Y-91972438D02*
X138054761Y-92067676D01*
X138054761Y-92067676D02*
X138102380Y-92162914D01*
X138102380Y-92162914D02*
X138149999Y-92353390D01*
X138149999Y-92353390D02*
X138149999Y-92496247D01*
X138149999Y-92496247D02*
X138102380Y-92686723D01*
X138102380Y-92686723D02*
X138054761Y-92781961D01*
X138054761Y-92781961D02*
X137959523Y-92877200D01*
X137959523Y-92877200D02*
X137816666Y-92924819D01*
X137816666Y-92924819D02*
X137578571Y-92924819D01*
X139102380Y-92924819D02*
X138530952Y-92924819D01*
X138816666Y-92924819D02*
X138816666Y-91924819D01*
X138816666Y-91924819D02*
X138721428Y-92067676D01*
X138721428Y-92067676D02*
X138626190Y-92162914D01*
X138626190Y-92162914D02*
X138530952Y-92210533D01*
X150114819Y-93241904D02*
X150924342Y-93241904D01*
X150924342Y-93241904D02*
X151019580Y-93194285D01*
X151019580Y-93194285D02*
X151067200Y-93146666D01*
X151067200Y-93146666D02*
X151114819Y-93051428D01*
X151114819Y-93051428D02*
X151114819Y-92860952D01*
X151114819Y-92860952D02*
X151067200Y-92765714D01*
X151067200Y-92765714D02*
X151019580Y-92718095D01*
X151019580Y-92718095D02*
X150924342Y-92670476D01*
X150924342Y-92670476D02*
X150114819Y-92670476D01*
X150448152Y-91765714D02*
X151114819Y-91765714D01*
X150067200Y-92003809D02*
X150781485Y-92241904D01*
X150781485Y-92241904D02*
X150781485Y-91622857D01*
X158745238Y-92934819D02*
X158745238Y-91934819D01*
X159316666Y-92934819D02*
X158888095Y-92363390D01*
X159316666Y-91934819D02*
X158745238Y-92506247D01*
X160269047Y-92934819D02*
X159697619Y-92934819D01*
X159983333Y-92934819D02*
X159983333Y-91934819D01*
X159983333Y-91934819D02*
X159888095Y-92077676D01*
X159888095Y-92077676D02*
X159792857Y-92172914D01*
X159792857Y-92172914D02*
X159697619Y-92220533D01*
X161173809Y-91934819D02*
X160697619Y-91934819D01*
X160697619Y-91934819D02*
X160650000Y-92411009D01*
X160650000Y-92411009D02*
X160697619Y-92363390D01*
X160697619Y-92363390D02*
X160792857Y-92315771D01*
X160792857Y-92315771D02*
X161030952Y-92315771D01*
X161030952Y-92315771D02*
X161126190Y-92363390D01*
X161126190Y-92363390D02*
X161173809Y-92411009D01*
X161173809Y-92411009D02*
X161221428Y-92506247D01*
X161221428Y-92506247D02*
X161221428Y-92744342D01*
X161221428Y-92744342D02*
X161173809Y-92839580D01*
X161173809Y-92839580D02*
X161126190Y-92887200D01*
X161126190Y-92887200D02*
X161030952Y-92934819D01*
X161030952Y-92934819D02*
X160792857Y-92934819D01*
X160792857Y-92934819D02*
X160697619Y-92887200D01*
X160697619Y-92887200D02*
X160650000Y-92839580D01*
X162126190Y-91934819D02*
X161650000Y-91934819D01*
X161650000Y-91934819D02*
X161602381Y-92411009D01*
X161602381Y-92411009D02*
X161650000Y-92363390D01*
X161650000Y-92363390D02*
X161745238Y-92315771D01*
X161745238Y-92315771D02*
X161983333Y-92315771D01*
X161983333Y-92315771D02*
X162078571Y-92363390D01*
X162078571Y-92363390D02*
X162126190Y-92411009D01*
X162126190Y-92411009D02*
X162173809Y-92506247D01*
X162173809Y-92506247D02*
X162173809Y-92744342D01*
X162173809Y-92744342D02*
X162126190Y-92839580D01*
X162126190Y-92839580D02*
X162078571Y-92887200D01*
X162078571Y-92887200D02*
X161983333Y-92934819D01*
X161983333Y-92934819D02*
X161745238Y-92934819D01*
X161745238Y-92934819D02*
X161650000Y-92887200D01*
X161650000Y-92887200D02*
X161602381Y-92839580D01*
X162602381Y-92934819D02*
X162602381Y-91934819D01*
X163078571Y-92934819D02*
X163078571Y-91934819D01*
X163078571Y-91934819D02*
X163316666Y-91934819D01*
X163316666Y-91934819D02*
X163459523Y-91982438D01*
X163459523Y-91982438D02*
X163554761Y-92077676D01*
X163554761Y-92077676D02*
X163602380Y-92172914D01*
X163602380Y-92172914D02*
X163649999Y-92363390D01*
X163649999Y-92363390D02*
X163649999Y-92506247D01*
X163649999Y-92506247D02*
X163602380Y-92696723D01*
X163602380Y-92696723D02*
X163554761Y-92791961D01*
X163554761Y-92791961D02*
X163459523Y-92887200D01*
X163459523Y-92887200D02*
X163316666Y-92934819D01*
X163316666Y-92934819D02*
X163078571Y-92934819D01*
X164602380Y-92934819D02*
X164030952Y-92934819D01*
X164316666Y-92934819D02*
X164316666Y-91934819D01*
X164316666Y-91934819D02*
X164221428Y-92077676D01*
X164221428Y-92077676D02*
X164126190Y-92172914D01*
X164126190Y-92172914D02*
X164030952Y-92220533D01*
X102463333Y-51664819D02*
X102130000Y-51188628D01*
X101891905Y-51664819D02*
X101891905Y-50664819D01*
X101891905Y-50664819D02*
X102272857Y-50664819D01*
X102272857Y-50664819D02*
X102368095Y-50712438D01*
X102368095Y-50712438D02*
X102415714Y-50760057D01*
X102415714Y-50760057D02*
X102463333Y-50855295D01*
X102463333Y-50855295D02*
X102463333Y-50998152D01*
X102463333Y-50998152D02*
X102415714Y-51093390D01*
X102415714Y-51093390D02*
X102368095Y-51141009D01*
X102368095Y-51141009D02*
X102272857Y-51188628D01*
X102272857Y-51188628D02*
X101891905Y-51188628D01*
X103415714Y-51664819D02*
X102844286Y-51664819D01*
X103130000Y-51664819D02*
X103130000Y-50664819D01*
X103130000Y-50664819D02*
X103034762Y-50807676D01*
X103034762Y-50807676D02*
X102939524Y-50902914D01*
X102939524Y-50902914D02*
X102844286Y-50950533D01*
X151913333Y-52724819D02*
X151580000Y-52248628D01*
X151341905Y-52724819D02*
X151341905Y-51724819D01*
X151341905Y-51724819D02*
X151722857Y-51724819D01*
X151722857Y-51724819D02*
X151818095Y-51772438D01*
X151818095Y-51772438D02*
X151865714Y-51820057D01*
X151865714Y-51820057D02*
X151913333Y-51915295D01*
X151913333Y-51915295D02*
X151913333Y-52058152D01*
X151913333Y-52058152D02*
X151865714Y-52153390D01*
X151865714Y-52153390D02*
X151818095Y-52201009D01*
X151818095Y-52201009D02*
X151722857Y-52248628D01*
X151722857Y-52248628D02*
X151341905Y-52248628D01*
X152294286Y-51820057D02*
X152341905Y-51772438D01*
X152341905Y-51772438D02*
X152437143Y-51724819D01*
X152437143Y-51724819D02*
X152675238Y-51724819D01*
X152675238Y-51724819D02*
X152770476Y-51772438D01*
X152770476Y-51772438D02*
X152818095Y-51820057D01*
X152818095Y-51820057D02*
X152865714Y-51915295D01*
X152865714Y-51915295D02*
X152865714Y-52010533D01*
X152865714Y-52010533D02*
X152818095Y-52153390D01*
X152818095Y-52153390D02*
X152246667Y-52724819D01*
X152246667Y-52724819D02*
X152865714Y-52724819D01*
X133346905Y-83854819D02*
X133346905Y-82854819D01*
X133346905Y-82854819D02*
X133918333Y-83854819D01*
X133918333Y-83854819D02*
X133918333Y-82854819D01*
X134299286Y-82854819D02*
X134965952Y-83854819D01*
X134965952Y-82854819D02*
X134299286Y-83854819D01*
X135299286Y-82950057D02*
X135346905Y-82902438D01*
X135346905Y-82902438D02*
X135442143Y-82854819D01*
X135442143Y-82854819D02*
X135680238Y-82854819D01*
X135680238Y-82854819D02*
X135775476Y-82902438D01*
X135775476Y-82902438D02*
X135823095Y-82950057D01*
X135823095Y-82950057D02*
X135870714Y-83045295D01*
X135870714Y-83045295D02*
X135870714Y-83140533D01*
X135870714Y-83140533D02*
X135823095Y-83283390D01*
X135823095Y-83283390D02*
X135251667Y-83854819D01*
X135251667Y-83854819D02*
X135870714Y-83854819D01*
X176154819Y-93241904D02*
X176964342Y-93241904D01*
X176964342Y-93241904D02*
X177059580Y-93194285D01*
X177059580Y-93194285D02*
X177107200Y-93146666D01*
X177107200Y-93146666D02*
X177154819Y-93051428D01*
X177154819Y-93051428D02*
X177154819Y-92860952D01*
X177154819Y-92860952D02*
X177107200Y-92765714D01*
X177107200Y-92765714D02*
X177059580Y-92718095D01*
X177059580Y-92718095D02*
X176964342Y-92670476D01*
X176964342Y-92670476D02*
X176154819Y-92670476D01*
X176154819Y-91718095D02*
X176154819Y-92194285D01*
X176154819Y-92194285D02*
X176631009Y-92241904D01*
X176631009Y-92241904D02*
X176583390Y-92194285D01*
X176583390Y-92194285D02*
X176535771Y-92099047D01*
X176535771Y-92099047D02*
X176535771Y-91860952D01*
X176535771Y-91860952D02*
X176583390Y-91765714D01*
X176583390Y-91765714D02*
X176631009Y-91718095D01*
X176631009Y-91718095D02*
X176726247Y-91670476D01*
X176726247Y-91670476D02*
X176964342Y-91670476D01*
X176964342Y-91670476D02*
X177059580Y-91718095D01*
X177059580Y-91718095D02*
X177107200Y-91765714D01*
X177107200Y-91765714D02*
X177154819Y-91860952D01*
X177154819Y-91860952D02*
X177154819Y-92099047D01*
X177154819Y-92099047D02*
X177107200Y-92194285D01*
X177107200Y-92194285D02*
X177059580Y-92241904D01*
X184785238Y-92934819D02*
X184785238Y-91934819D01*
X185356666Y-92934819D02*
X184928095Y-92363390D01*
X185356666Y-91934819D02*
X184785238Y-92506247D01*
X186309047Y-92934819D02*
X185737619Y-92934819D01*
X186023333Y-92934819D02*
X186023333Y-91934819D01*
X186023333Y-91934819D02*
X185928095Y-92077676D01*
X185928095Y-92077676D02*
X185832857Y-92172914D01*
X185832857Y-92172914D02*
X185737619Y-92220533D01*
X187213809Y-91934819D02*
X186737619Y-91934819D01*
X186737619Y-91934819D02*
X186690000Y-92411009D01*
X186690000Y-92411009D02*
X186737619Y-92363390D01*
X186737619Y-92363390D02*
X186832857Y-92315771D01*
X186832857Y-92315771D02*
X187070952Y-92315771D01*
X187070952Y-92315771D02*
X187166190Y-92363390D01*
X187166190Y-92363390D02*
X187213809Y-92411009D01*
X187213809Y-92411009D02*
X187261428Y-92506247D01*
X187261428Y-92506247D02*
X187261428Y-92744342D01*
X187261428Y-92744342D02*
X187213809Y-92839580D01*
X187213809Y-92839580D02*
X187166190Y-92887200D01*
X187166190Y-92887200D02*
X187070952Y-92934819D01*
X187070952Y-92934819D02*
X186832857Y-92934819D01*
X186832857Y-92934819D02*
X186737619Y-92887200D01*
X186737619Y-92887200D02*
X186690000Y-92839580D01*
X188166190Y-91934819D02*
X187690000Y-91934819D01*
X187690000Y-91934819D02*
X187642381Y-92411009D01*
X187642381Y-92411009D02*
X187690000Y-92363390D01*
X187690000Y-92363390D02*
X187785238Y-92315771D01*
X187785238Y-92315771D02*
X188023333Y-92315771D01*
X188023333Y-92315771D02*
X188118571Y-92363390D01*
X188118571Y-92363390D02*
X188166190Y-92411009D01*
X188166190Y-92411009D02*
X188213809Y-92506247D01*
X188213809Y-92506247D02*
X188213809Y-92744342D01*
X188213809Y-92744342D02*
X188166190Y-92839580D01*
X188166190Y-92839580D02*
X188118571Y-92887200D01*
X188118571Y-92887200D02*
X188023333Y-92934819D01*
X188023333Y-92934819D02*
X187785238Y-92934819D01*
X187785238Y-92934819D02*
X187690000Y-92887200D01*
X187690000Y-92887200D02*
X187642381Y-92839580D01*
X188642381Y-92934819D02*
X188642381Y-91934819D01*
X189118571Y-92934819D02*
X189118571Y-91934819D01*
X189118571Y-91934819D02*
X189356666Y-91934819D01*
X189356666Y-91934819D02*
X189499523Y-91982438D01*
X189499523Y-91982438D02*
X189594761Y-92077676D01*
X189594761Y-92077676D02*
X189642380Y-92172914D01*
X189642380Y-92172914D02*
X189689999Y-92363390D01*
X189689999Y-92363390D02*
X189689999Y-92506247D01*
X189689999Y-92506247D02*
X189642380Y-92696723D01*
X189642380Y-92696723D02*
X189594761Y-92791961D01*
X189594761Y-92791961D02*
X189499523Y-92887200D01*
X189499523Y-92887200D02*
X189356666Y-92934819D01*
X189356666Y-92934819D02*
X189118571Y-92934819D01*
X190642380Y-92934819D02*
X190070952Y-92934819D01*
X190356666Y-92934819D02*
X190356666Y-91934819D01*
X190356666Y-91934819D02*
X190261428Y-92077676D01*
X190261428Y-92077676D02*
X190166190Y-92172914D01*
X190166190Y-92172914D02*
X190070952Y-92220533D01*
D14*
X107263880Y-112728095D02*
X106454357Y-112728095D01*
X106454357Y-112728095D02*
X106359119Y-112775714D01*
X106359119Y-112775714D02*
X106311500Y-112823333D01*
X106311500Y-112823333D02*
X106263880Y-112918571D01*
X106263880Y-112918571D02*
X106263880Y-113109047D01*
X106263880Y-113109047D02*
X106311500Y-113204285D01*
X106311500Y-113204285D02*
X106359119Y-113251904D01*
X106359119Y-113251904D02*
X106454357Y-113299523D01*
X106454357Y-113299523D02*
X107263880Y-113299523D01*
X106263880Y-114299523D02*
X106263880Y-113728095D01*
X106263880Y-114013809D02*
X107263880Y-114013809D01*
X107263880Y-114013809D02*
X107121023Y-113918571D01*
X107121023Y-113918571D02*
X107025785Y-113823333D01*
X107025785Y-113823333D02*
X106978166Y-113728095D01*
D10*
X97145180Y-109495237D02*
X98145180Y-109495237D01*
X97764228Y-109495237D02*
X97811847Y-109590475D01*
X97811847Y-109590475D02*
X97811847Y-109780951D01*
X97811847Y-109780951D02*
X97764228Y-109876189D01*
X97764228Y-109876189D02*
X97716609Y-109923808D01*
X97716609Y-109923808D02*
X97621371Y-109971427D01*
X97621371Y-109971427D02*
X97335657Y-109971427D01*
X97335657Y-109971427D02*
X97240419Y-109923808D01*
X97240419Y-109923808D02*
X97192800Y-109876189D01*
X97192800Y-109876189D02*
X97145180Y-109780951D01*
X97145180Y-109780951D02*
X97145180Y-109590475D01*
X97145180Y-109590475D02*
X97192800Y-109495237D01*
X97145180Y-110542856D02*
X97192800Y-110447618D01*
X97192800Y-110447618D02*
X97240419Y-110399999D01*
X97240419Y-110399999D02*
X97335657Y-110352380D01*
X97335657Y-110352380D02*
X97621371Y-110352380D01*
X97621371Y-110352380D02*
X97716609Y-110399999D01*
X97716609Y-110399999D02*
X97764228Y-110447618D01*
X97764228Y-110447618D02*
X97811847Y-110542856D01*
X97811847Y-110542856D02*
X97811847Y-110685713D01*
X97811847Y-110685713D02*
X97764228Y-110780951D01*
X97764228Y-110780951D02*
X97716609Y-110828570D01*
X97716609Y-110828570D02*
X97621371Y-110876189D01*
X97621371Y-110876189D02*
X97335657Y-110876189D01*
X97335657Y-110876189D02*
X97240419Y-110828570D01*
X97240419Y-110828570D02*
X97192800Y-110780951D01*
X97192800Y-110780951D02*
X97145180Y-110685713D01*
X97145180Y-110685713D02*
X97145180Y-110542856D01*
X97145180Y-111447618D02*
X97192800Y-111352380D01*
X97192800Y-111352380D02*
X97240419Y-111304761D01*
X97240419Y-111304761D02*
X97335657Y-111257142D01*
X97335657Y-111257142D02*
X97621371Y-111257142D01*
X97621371Y-111257142D02*
X97716609Y-111304761D01*
X97716609Y-111304761D02*
X97764228Y-111352380D01*
X97764228Y-111352380D02*
X97811847Y-111447618D01*
X97811847Y-111447618D02*
X97811847Y-111590475D01*
X97811847Y-111590475D02*
X97764228Y-111685713D01*
X97764228Y-111685713D02*
X97716609Y-111733332D01*
X97716609Y-111733332D02*
X97621371Y-111780951D01*
X97621371Y-111780951D02*
X97335657Y-111780951D01*
X97335657Y-111780951D02*
X97240419Y-111733332D01*
X97240419Y-111733332D02*
X97192800Y-111685713D01*
X97192800Y-111685713D02*
X97145180Y-111590475D01*
X97145180Y-111590475D02*
X97145180Y-111447618D01*
X97192800Y-112161904D02*
X97145180Y-112257142D01*
X97145180Y-112257142D02*
X97145180Y-112447618D01*
X97145180Y-112447618D02*
X97192800Y-112542856D01*
X97192800Y-112542856D02*
X97288038Y-112590475D01*
X97288038Y-112590475D02*
X97335657Y-112590475D01*
X97335657Y-112590475D02*
X97430895Y-112542856D01*
X97430895Y-112542856D02*
X97478514Y-112447618D01*
X97478514Y-112447618D02*
X97478514Y-112304761D01*
X97478514Y-112304761D02*
X97526133Y-112209523D01*
X97526133Y-112209523D02*
X97621371Y-112161904D01*
X97621371Y-112161904D02*
X97668990Y-112161904D01*
X97668990Y-112161904D02*
X97764228Y-112209523D01*
X97764228Y-112209523D02*
X97811847Y-112304761D01*
X97811847Y-112304761D02*
X97811847Y-112447618D01*
X97811847Y-112447618D02*
X97764228Y-112542856D01*
X97811847Y-112876190D02*
X97811847Y-113257142D01*
X98145180Y-113019047D02*
X97288038Y-113019047D01*
X97288038Y-113019047D02*
X97192800Y-113066666D01*
X97192800Y-113066666D02*
X97145180Y-113161904D01*
X97145180Y-113161904D02*
X97145180Y-113257142D01*
X97049942Y-113352381D02*
X97049942Y-114114285D01*
X97192800Y-114780952D02*
X97145180Y-114685714D01*
X97145180Y-114685714D02*
X97145180Y-114495238D01*
X97145180Y-114495238D02*
X97192800Y-114400000D01*
X97192800Y-114400000D02*
X97240419Y-114352381D01*
X97240419Y-114352381D02*
X97335657Y-114304762D01*
X97335657Y-114304762D02*
X97621371Y-114304762D01*
X97621371Y-114304762D02*
X97716609Y-114352381D01*
X97716609Y-114352381D02*
X97764228Y-114400000D01*
X97764228Y-114400000D02*
X97811847Y-114495238D01*
X97811847Y-114495238D02*
X97811847Y-114685714D01*
X97811847Y-114685714D02*
X97764228Y-114780952D01*
X97145180Y-115352381D02*
X97192800Y-115257143D01*
X97192800Y-115257143D02*
X97240419Y-115209524D01*
X97240419Y-115209524D02*
X97335657Y-115161905D01*
X97335657Y-115161905D02*
X97621371Y-115161905D01*
X97621371Y-115161905D02*
X97716609Y-115209524D01*
X97716609Y-115209524D02*
X97764228Y-115257143D01*
X97764228Y-115257143D02*
X97811847Y-115352381D01*
X97811847Y-115352381D02*
X97811847Y-115495238D01*
X97811847Y-115495238D02*
X97764228Y-115590476D01*
X97764228Y-115590476D02*
X97716609Y-115638095D01*
X97716609Y-115638095D02*
X97621371Y-115685714D01*
X97621371Y-115685714D02*
X97335657Y-115685714D01*
X97335657Y-115685714D02*
X97240419Y-115638095D01*
X97240419Y-115638095D02*
X97192800Y-115590476D01*
X97192800Y-115590476D02*
X97145180Y-115495238D01*
X97145180Y-115495238D02*
X97145180Y-115352381D01*
X97811847Y-116114286D02*
X97145180Y-116114286D01*
X97716609Y-116114286D02*
X97764228Y-116161905D01*
X97764228Y-116161905D02*
X97811847Y-116257143D01*
X97811847Y-116257143D02*
X97811847Y-116400000D01*
X97811847Y-116400000D02*
X97764228Y-116495238D01*
X97764228Y-116495238D02*
X97668990Y-116542857D01*
X97668990Y-116542857D02*
X97145180Y-116542857D01*
X97811847Y-116923810D02*
X97145180Y-117161905D01*
X97145180Y-117161905D02*
X97811847Y-117400000D01*
X227239160Y-111919104D02*
X227715350Y-111919104D01*
X227143922Y-112204819D02*
X227477255Y-111204819D01*
X227477255Y-111204819D02*
X227810588Y-112204819D01*
X228667731Y-112204819D02*
X228096303Y-112204819D01*
X228382017Y-112204819D02*
X228382017Y-111204819D01*
X228382017Y-111204819D02*
X228286779Y-111347676D01*
X228286779Y-111347676D02*
X228191541Y-111442914D01*
X228191541Y-111442914D02*
X228096303Y-111490533D01*
X98234819Y-93061904D02*
X99044342Y-93061904D01*
X99044342Y-93061904D02*
X99139580Y-93014285D01*
X99139580Y-93014285D02*
X99187200Y-92966666D01*
X99187200Y-92966666D02*
X99234819Y-92871428D01*
X99234819Y-92871428D02*
X99234819Y-92680952D01*
X99234819Y-92680952D02*
X99187200Y-92585714D01*
X99187200Y-92585714D02*
X99139580Y-92538095D01*
X99139580Y-92538095D02*
X99044342Y-92490476D01*
X99044342Y-92490476D02*
X98234819Y-92490476D01*
X98330057Y-92061904D02*
X98282438Y-92014285D01*
X98282438Y-92014285D02*
X98234819Y-91919047D01*
X98234819Y-91919047D02*
X98234819Y-91680952D01*
X98234819Y-91680952D02*
X98282438Y-91585714D01*
X98282438Y-91585714D02*
X98330057Y-91538095D01*
X98330057Y-91538095D02*
X98425295Y-91490476D01*
X98425295Y-91490476D02*
X98520533Y-91490476D01*
X98520533Y-91490476D02*
X98663390Y-91538095D01*
X98663390Y-91538095D02*
X99234819Y-92109523D01*
X99234819Y-92109523D02*
X99234819Y-91490476D01*
X106785238Y-92924819D02*
X106785238Y-91924819D01*
X107356666Y-92924819D02*
X106928095Y-92353390D01*
X107356666Y-91924819D02*
X106785238Y-92496247D01*
X108309047Y-92924819D02*
X107737619Y-92924819D01*
X108023333Y-92924819D02*
X108023333Y-91924819D01*
X108023333Y-91924819D02*
X107928095Y-92067676D01*
X107928095Y-92067676D02*
X107832857Y-92162914D01*
X107832857Y-92162914D02*
X107737619Y-92210533D01*
X109213809Y-91924819D02*
X108737619Y-91924819D01*
X108737619Y-91924819D02*
X108690000Y-92401009D01*
X108690000Y-92401009D02*
X108737619Y-92353390D01*
X108737619Y-92353390D02*
X108832857Y-92305771D01*
X108832857Y-92305771D02*
X109070952Y-92305771D01*
X109070952Y-92305771D02*
X109166190Y-92353390D01*
X109166190Y-92353390D02*
X109213809Y-92401009D01*
X109213809Y-92401009D02*
X109261428Y-92496247D01*
X109261428Y-92496247D02*
X109261428Y-92734342D01*
X109261428Y-92734342D02*
X109213809Y-92829580D01*
X109213809Y-92829580D02*
X109166190Y-92877200D01*
X109166190Y-92877200D02*
X109070952Y-92924819D01*
X109070952Y-92924819D02*
X108832857Y-92924819D01*
X108832857Y-92924819D02*
X108737619Y-92877200D01*
X108737619Y-92877200D02*
X108690000Y-92829580D01*
X110166190Y-91924819D02*
X109690000Y-91924819D01*
X109690000Y-91924819D02*
X109642381Y-92401009D01*
X109642381Y-92401009D02*
X109690000Y-92353390D01*
X109690000Y-92353390D02*
X109785238Y-92305771D01*
X109785238Y-92305771D02*
X110023333Y-92305771D01*
X110023333Y-92305771D02*
X110118571Y-92353390D01*
X110118571Y-92353390D02*
X110166190Y-92401009D01*
X110166190Y-92401009D02*
X110213809Y-92496247D01*
X110213809Y-92496247D02*
X110213809Y-92734342D01*
X110213809Y-92734342D02*
X110166190Y-92829580D01*
X110166190Y-92829580D02*
X110118571Y-92877200D01*
X110118571Y-92877200D02*
X110023333Y-92924819D01*
X110023333Y-92924819D02*
X109785238Y-92924819D01*
X109785238Y-92924819D02*
X109690000Y-92877200D01*
X109690000Y-92877200D02*
X109642381Y-92829580D01*
X110642381Y-92924819D02*
X110642381Y-91924819D01*
X111118571Y-92924819D02*
X111118571Y-91924819D01*
X111118571Y-91924819D02*
X111356666Y-91924819D01*
X111356666Y-91924819D02*
X111499523Y-91972438D01*
X111499523Y-91972438D02*
X111594761Y-92067676D01*
X111594761Y-92067676D02*
X111642380Y-92162914D01*
X111642380Y-92162914D02*
X111689999Y-92353390D01*
X111689999Y-92353390D02*
X111689999Y-92496247D01*
X111689999Y-92496247D02*
X111642380Y-92686723D01*
X111642380Y-92686723D02*
X111594761Y-92781961D01*
X111594761Y-92781961D02*
X111499523Y-92877200D01*
X111499523Y-92877200D02*
X111356666Y-92924819D01*
X111356666Y-92924819D02*
X111118571Y-92924819D01*
X112642380Y-92924819D02*
X112070952Y-92924819D01*
X112356666Y-92924819D02*
X112356666Y-91924819D01*
X112356666Y-91924819D02*
X112261428Y-92067676D01*
X112261428Y-92067676D02*
X112166190Y-92162914D01*
X112166190Y-92162914D02*
X112070952Y-92210533D01*
X202523333Y-52634819D02*
X202190000Y-52158628D01*
X201951905Y-52634819D02*
X201951905Y-51634819D01*
X201951905Y-51634819D02*
X202332857Y-51634819D01*
X202332857Y-51634819D02*
X202428095Y-51682438D01*
X202428095Y-51682438D02*
X202475714Y-51730057D01*
X202475714Y-51730057D02*
X202523333Y-51825295D01*
X202523333Y-51825295D02*
X202523333Y-51968152D01*
X202523333Y-51968152D02*
X202475714Y-52063390D01*
X202475714Y-52063390D02*
X202428095Y-52111009D01*
X202428095Y-52111009D02*
X202332857Y-52158628D01*
X202332857Y-52158628D02*
X201951905Y-52158628D01*
X203380476Y-51968152D02*
X203380476Y-52634819D01*
X203142381Y-51587200D02*
X202904286Y-52301485D01*
X202904286Y-52301485D02*
X203523333Y-52301485D01*
X111876905Y-83854819D02*
X111876905Y-82854819D01*
X111876905Y-82854819D02*
X112448333Y-83854819D01*
X112448333Y-83854819D02*
X112448333Y-82854819D01*
X112829286Y-82854819D02*
X113495952Y-83854819D01*
X113495952Y-82854819D02*
X112829286Y-83854819D01*
X114400714Y-83854819D02*
X113829286Y-83854819D01*
X114115000Y-83854819D02*
X114115000Y-82854819D01*
X114115000Y-82854819D02*
X114019762Y-82997676D01*
X114019762Y-82997676D02*
X113924524Y-83092914D01*
X113924524Y-83092914D02*
X113829286Y-83140533D01*
X213761905Y-83854819D02*
X213761905Y-82854819D01*
X213761905Y-82854819D02*
X214333333Y-83854819D01*
X214333333Y-83854819D02*
X214333333Y-82854819D01*
X214714286Y-82854819D02*
X215380952Y-83854819D01*
X215380952Y-82854819D02*
X214714286Y-83854819D01*
X216238095Y-82854819D02*
X215761905Y-82854819D01*
X215761905Y-82854819D02*
X215714286Y-83331009D01*
X215714286Y-83331009D02*
X215761905Y-83283390D01*
X215761905Y-83283390D02*
X215857143Y-83235771D01*
X215857143Y-83235771D02*
X216095238Y-83235771D01*
X216095238Y-83235771D02*
X216190476Y-83283390D01*
X216190476Y-83283390D02*
X216238095Y-83331009D01*
X216238095Y-83331009D02*
X216285714Y-83426247D01*
X216285714Y-83426247D02*
X216285714Y-83664342D01*
X216285714Y-83664342D02*
X216238095Y-83759580D01*
X216238095Y-83759580D02*
X216190476Y-83807200D01*
X216190476Y-83807200D02*
X216095238Y-83854819D01*
X216095238Y-83854819D02*
X215857143Y-83854819D01*
X215857143Y-83854819D02*
X215761905Y-83807200D01*
X215761905Y-83807200D02*
X215714286Y-83759580D01*
X235231905Y-83854819D02*
X235231905Y-82854819D01*
X235231905Y-82854819D02*
X235803333Y-83854819D01*
X235803333Y-83854819D02*
X235803333Y-82854819D01*
X236184286Y-82854819D02*
X236850952Y-83854819D01*
X236850952Y-82854819D02*
X236184286Y-83854819D01*
X237660476Y-82854819D02*
X237470000Y-82854819D01*
X237470000Y-82854819D02*
X237374762Y-82902438D01*
X237374762Y-82902438D02*
X237327143Y-82950057D01*
X237327143Y-82950057D02*
X237231905Y-83092914D01*
X237231905Y-83092914D02*
X237184286Y-83283390D01*
X237184286Y-83283390D02*
X237184286Y-83664342D01*
X237184286Y-83664342D02*
X237231905Y-83759580D01*
X237231905Y-83759580D02*
X237279524Y-83807200D01*
X237279524Y-83807200D02*
X237374762Y-83854819D01*
X237374762Y-83854819D02*
X237565238Y-83854819D01*
X237565238Y-83854819D02*
X237660476Y-83807200D01*
X237660476Y-83807200D02*
X237708095Y-83759580D01*
X237708095Y-83759580D02*
X237755714Y-83664342D01*
X237755714Y-83664342D02*
X237755714Y-83426247D01*
X237755714Y-83426247D02*
X237708095Y-83331009D01*
X237708095Y-83331009D02*
X237660476Y-83283390D01*
X237660476Y-83283390D02*
X237565238Y-83235771D01*
X237565238Y-83235771D02*
X237374762Y-83235771D01*
X237374762Y-83235771D02*
X237279524Y-83283390D01*
X237279524Y-83283390D02*
X237231905Y-83331009D01*
X237231905Y-83331009D02*
X237184286Y-83426247D01*
X184231905Y-83854819D02*
X184231905Y-82854819D01*
X184231905Y-82854819D02*
X184803333Y-83854819D01*
X184803333Y-83854819D02*
X184803333Y-82854819D01*
X185184286Y-82854819D02*
X185850952Y-83854819D01*
X185850952Y-82854819D02*
X185184286Y-83854819D01*
X186660476Y-83188152D02*
X186660476Y-83854819D01*
X186422381Y-82807200D02*
X186184286Y-83521485D01*
X186184286Y-83521485D02*
X186803333Y-83521485D01*
X336328333Y-46679819D02*
X335995000Y-46203628D01*
X335756905Y-46679819D02*
X335756905Y-45679819D01*
X335756905Y-45679819D02*
X336137857Y-45679819D01*
X336137857Y-45679819D02*
X336233095Y-45727438D01*
X336233095Y-45727438D02*
X336280714Y-45775057D01*
X336280714Y-45775057D02*
X336328333Y-45870295D01*
X336328333Y-45870295D02*
X336328333Y-46013152D01*
X336328333Y-46013152D02*
X336280714Y-46108390D01*
X336280714Y-46108390D02*
X336233095Y-46156009D01*
X336233095Y-46156009D02*
X336137857Y-46203628D01*
X336137857Y-46203628D02*
X335756905Y-46203628D01*
X337233095Y-45679819D02*
X336756905Y-45679819D01*
X336756905Y-45679819D02*
X336709286Y-46156009D01*
X336709286Y-46156009D02*
X336756905Y-46108390D01*
X336756905Y-46108390D02*
X336852143Y-46060771D01*
X336852143Y-46060771D02*
X337090238Y-46060771D01*
X337090238Y-46060771D02*
X337185476Y-46108390D01*
X337185476Y-46108390D02*
X337233095Y-46156009D01*
X337233095Y-46156009D02*
X337280714Y-46251247D01*
X337280714Y-46251247D02*
X337280714Y-46489342D01*
X337280714Y-46489342D02*
X337233095Y-46584580D01*
X337233095Y-46584580D02*
X337185476Y-46632200D01*
X337185476Y-46632200D02*
X337090238Y-46679819D01*
X337090238Y-46679819D02*
X336852143Y-46679819D01*
X336852143Y-46679819D02*
X336756905Y-46632200D01*
X336756905Y-46632200D02*
X336709286Y-46584580D01*
D15*
%TO.C,U6*%
X204950000Y-87220000D02*
X204950000Y-90726667D01*
X204950000Y-90726667D02*
X205310000Y-90726667D01*
X204950000Y-94233333D02*
X204950000Y-97739999D01*
X204950000Y-97739999D02*
X224930000Y-97740000D01*
X205310000Y-90726667D02*
X205310000Y-94233333D01*
X205310000Y-94233333D02*
X204950000Y-94233333D01*
X224930000Y-87220001D02*
X204950000Y-87220000D01*
X224930000Y-97740000D02*
X224930000Y-87220001D01*
D16*
%TO.C,G\u002A\u002A\u002A*%
G36*
X129391999Y-107232224D02*
G01*
X129484876Y-107233095D01*
X129556520Y-107235199D01*
X129612809Y-107239047D01*
X129659619Y-107245149D01*
X129702826Y-107254015D01*
X129748309Y-107266156D01*
X129783311Y-107276475D01*
X129860774Y-107300831D01*
X129937138Y-107326726D01*
X129999234Y-107349641D01*
X130014220Y-107355724D01*
X130082918Y-107391452D01*
X130163311Y-107443506D01*
X130245289Y-107504340D01*
X130318738Y-107566410D01*
X130373547Y-107622172D01*
X130377077Y-107626448D01*
X130410167Y-107666816D01*
X130436344Y-107697934D01*
X130443291Y-107705835D01*
X130485981Y-107760160D01*
X130534108Y-107833003D01*
X130581359Y-107913542D01*
X130621422Y-107990952D01*
X130647982Y-108054412D01*
X130649681Y-108059666D01*
X130672024Y-108153407D01*
X130690030Y-108273472D01*
X130703406Y-108413444D01*
X130711857Y-108566908D01*
X130715092Y-108727449D01*
X130712816Y-108888652D01*
X130704737Y-109044101D01*
X130698174Y-109120233D01*
X130670084Y-109347619D01*
X130631131Y-109567948D01*
X130579769Y-109786178D01*
X130514452Y-110007266D01*
X130433635Y-110236169D01*
X130335772Y-110477843D01*
X130219316Y-110737247D01*
X130145985Y-110890909D01*
X130064626Y-111058776D01*
X129996647Y-111200139D01*
X129940634Y-111317983D01*
X129895177Y-111415290D01*
X129858866Y-111495042D01*
X129840181Y-111537315D01*
X129825489Y-111577333D01*
X129812193Y-111628406D01*
X129799762Y-111694211D01*
X129787663Y-111778430D01*
X129775363Y-111884742D01*
X129762332Y-112016825D01*
X129748821Y-112169156D01*
X129729363Y-112365987D01*
X129705997Y-112549486D01*
X129679571Y-112714071D01*
X129650933Y-112854161D01*
X129635473Y-112915385D01*
X129616123Y-112985714D01*
X129595466Y-113060438D01*
X129588386Y-113085948D01*
X129550883Y-113203357D01*
X129499973Y-113337808D01*
X129439824Y-113480008D01*
X129374606Y-113620663D01*
X129308487Y-113750481D01*
X129245636Y-113860168D01*
X129230189Y-113884480D01*
X129210619Y-113918197D01*
X129193923Y-113950454D01*
X129159656Y-114012065D01*
X129112798Y-114085535D01*
X129062188Y-114157650D01*
X129017400Y-114214350D01*
X128984429Y-114252649D01*
X128959966Y-114281700D01*
X128954416Y-114288571D01*
X128835361Y-114437174D01*
X128726033Y-114563254D01*
X128620416Y-114673279D01*
X128512497Y-114773715D01*
X128465516Y-114814191D01*
X128409112Y-114862695D01*
X128344191Y-114919859D01*
X128294504Y-114964523D01*
X128241723Y-115010411D01*
X128190565Y-115051276D01*
X128152623Y-115077930D01*
X128116333Y-115101343D01*
X128094199Y-115118351D01*
X128092727Y-115119987D01*
X128073978Y-115134533D01*
X128032768Y-115161318D01*
X127975054Y-115196871D01*
X127906792Y-115237719D01*
X127833940Y-115280390D01*
X127762454Y-115321413D01*
X127698292Y-115357315D01*
X127647409Y-115384624D01*
X127615764Y-115399869D01*
X127609075Y-115401883D01*
X127590369Y-115408411D01*
X127550423Y-115425560D01*
X127497734Y-115449675D01*
X127495578Y-115450687D01*
X127259388Y-115548761D01*
X127005049Y-115629069D01*
X126730502Y-115691984D01*
X126433692Y-115737878D01*
X126112562Y-115767124D01*
X125765056Y-115780094D01*
X125672943Y-115780840D01*
X125521015Y-115781233D01*
X125194631Y-115945243D01*
X124938698Y-116071342D01*
X124705623Y-116180543D01*
X124490977Y-116274484D01*
X124290330Y-116354801D01*
X124099253Y-116423132D01*
X123913317Y-116481113D01*
X123728092Y-116530382D01*
X123539148Y-116572574D01*
X123449805Y-116590050D01*
X123339635Y-116606578D01*
X123210115Y-116619392D01*
X123070874Y-116628104D01*
X122931542Y-116632326D01*
X122801752Y-116631670D01*
X122691132Y-116625748D01*
X122656018Y-116622023D01*
X122476237Y-116593481D01*
X122318427Y-116554321D01*
X122173983Y-116500961D01*
X122034301Y-116429818D01*
X121890777Y-116337309D01*
X121785523Y-116259545D01*
X121677457Y-116171051D01*
X121589531Y-116085381D01*
X121517050Y-115995699D01*
X121455321Y-115895167D01*
X121399649Y-115776951D01*
X121345342Y-115634213D01*
X121334342Y-115602446D01*
X121274228Y-115426623D01*
X121267632Y-115082958D01*
X121265825Y-114934494D01*
X121266330Y-114888485D01*
X121722792Y-114888485D01*
X121724629Y-115104299D01*
X121748036Y-115302351D01*
X121792721Y-115480905D01*
X121858393Y-115638223D01*
X121944761Y-115772568D01*
X122028564Y-115862338D01*
X122167841Y-115967351D01*
X122330493Y-116053265D01*
X122511369Y-116117542D01*
X122583896Y-116135786D01*
X122658076Y-116146939D01*
X122757511Y-116154033D01*
X122874739Y-116157243D01*
X123002302Y-116156743D01*
X123132739Y-116152707D01*
X123258590Y-116145309D01*
X123372394Y-116134723D01*
X123466692Y-116121124D01*
X123499285Y-116114416D01*
X123800672Y-116032759D01*
X124111327Y-115925725D01*
X124432475Y-115792736D01*
X124765344Y-115633216D01*
X125111161Y-115446587D01*
X125388127Y-115281699D01*
X126304114Y-115281699D01*
X126312591Y-115294644D01*
X126350485Y-115297706D01*
X126415809Y-115291109D01*
X126506578Y-115275075D01*
X126620807Y-115249828D01*
X126649545Y-115242899D01*
X126884041Y-115178690D01*
X127105035Y-115103000D01*
X127321568Y-115012107D01*
X127542680Y-114902289D01*
X127727549Y-114799118D01*
X127772847Y-114770142D01*
X127835693Y-114726557D01*
X127907903Y-114674393D01*
X127981290Y-114619680D01*
X128047669Y-114568447D01*
X128098856Y-114526723D01*
X128107327Y-114519364D01*
X128351726Y-114281931D01*
X128569504Y-114025197D01*
X128761029Y-113748645D01*
X128926668Y-113451758D01*
X129031643Y-113221433D01*
X129076312Y-113106279D01*
X129122313Y-112974111D01*
X129166196Y-112835935D01*
X129204511Y-112702752D01*
X129233810Y-112585567D01*
X129240004Y-112556753D01*
X129253273Y-112492523D01*
X129265135Y-112435994D01*
X129272878Y-112400065D01*
X129282090Y-112358831D01*
X129243544Y-112400065D01*
X129209613Y-112439255D01*
X129170079Y-112488811D01*
X129156132Y-112507272D01*
X129126257Y-112547045D01*
X129104660Y-112574771D01*
X129098924Y-112581493D01*
X129084984Y-112597794D01*
X129056890Y-112632136D01*
X129024635Y-112672207D01*
X128784026Y-112963763D01*
X128540540Y-113239492D01*
X128480324Y-113304894D01*
X128398247Y-113391783D01*
X128301015Y-113492124D01*
X128192313Y-113602320D01*
X128075829Y-113718778D01*
X127955248Y-113837904D01*
X127834258Y-113956101D01*
X127716545Y-114069777D01*
X127605794Y-114175336D01*
X127505694Y-114269184D01*
X127419930Y-114347725D01*
X127352188Y-114407366D01*
X127334158Y-114422500D01*
X127253519Y-114489680D01*
X127183140Y-114550134D01*
X127107737Y-114617044D01*
X127087622Y-114635143D01*
X127025902Y-114688656D01*
X126953539Y-114748328D01*
X126888701Y-114799308D01*
X126837967Y-114838188D01*
X126797955Y-114869442D01*
X126775491Y-114887720D01*
X126773246Y-114889815D01*
X126750956Y-114909993D01*
X126710450Y-114943381D01*
X126659971Y-114983484D01*
X126607760Y-115023808D01*
X126562058Y-115057860D01*
X126542022Y-115072013D01*
X126488187Y-115111337D01*
X126431075Y-115157262D01*
X126377489Y-115203791D01*
X126334234Y-115244929D01*
X126308113Y-115274678D01*
X126304114Y-115281699D01*
X125388127Y-115281699D01*
X125471151Y-115232272D01*
X125742402Y-115058794D01*
X125827650Y-115001667D01*
X125924360Y-114935010D01*
X126027946Y-114862161D01*
X126133823Y-114786463D01*
X126237406Y-114711255D01*
X126334108Y-114639879D01*
X126419346Y-114575674D01*
X126488532Y-114521982D01*
X126537083Y-114482143D01*
X126550583Y-114470000D01*
X126590395Y-114433944D01*
X126625698Y-114403769D01*
X126658200Y-114376853D01*
X126706181Y-114336966D01*
X126759803Y-114292288D01*
X126764999Y-114287952D01*
X126818499Y-114243364D01*
X126867183Y-114202881D01*
X126901294Y-114174614D01*
X126903550Y-114172754D01*
X126941819Y-114140447D01*
X126970325Y-114115389D01*
X126994750Y-114093819D01*
X127036812Y-114057296D01*
X127089056Y-114012283D01*
X127112164Y-113992466D01*
X127166366Y-113945738D01*
X127213366Y-113904656D01*
X127245752Y-113875719D01*
X127253199Y-113868765D01*
X127272784Y-113850110D01*
X127312384Y-113812615D01*
X127368000Y-113760057D01*
X127435636Y-113696212D01*
X127511293Y-113624859D01*
X127533325Y-113604091D01*
X127627003Y-113515761D01*
X127700790Y-113445949D01*
X127758797Y-113390543D01*
X127805136Y-113345432D01*
X127843918Y-113306505D01*
X127879254Y-113269652D01*
X127915257Y-113230763D01*
X127956037Y-113185725D01*
X127993766Y-113143730D01*
X128048436Y-113082954D01*
X128099173Y-113026779D01*
X128139401Y-112982469D01*
X128158701Y-112961419D01*
X128187150Y-112929373D01*
X128229604Y-112879956D01*
X128279128Y-112821285D01*
X128307142Y-112787680D01*
X128360414Y-112723770D01*
X128413132Y-112661036D01*
X128457064Y-112609259D01*
X128472664Y-112591108D01*
X128514025Y-112541707D01*
X128563539Y-112480267D01*
X128604612Y-112427688D01*
X128654596Y-112362455D01*
X128711310Y-112288419D01*
X128756227Y-112229766D01*
X128807158Y-112161984D01*
X128862044Y-112087005D01*
X128903430Y-112028961D01*
X128938640Y-111979568D01*
X128966983Y-111941534D01*
X128982845Y-111922370D01*
X128983565Y-111921753D01*
X128996475Y-111905650D01*
X129023855Y-111867628D01*
X129061825Y-111813183D01*
X129106511Y-111747811D01*
X129111578Y-111740324D01*
X129247383Y-111530832D01*
X129382201Y-111306396D01*
X129513991Y-111071368D01*
X129640715Y-110830102D01*
X129760332Y-110586951D01*
X129870804Y-110346266D01*
X129970091Y-110112401D01*
X130056153Y-109889708D01*
X130126951Y-109682540D01*
X130180445Y-109495250D01*
X130197387Y-109422987D01*
X130212134Y-109334935D01*
X130223978Y-109224207D01*
X130232885Y-109096712D01*
X130238821Y-108958358D01*
X130241752Y-108815053D01*
X130241646Y-108672707D01*
X130238468Y-108537227D01*
X130232184Y-108414523D01*
X130222760Y-108310501D01*
X130210164Y-108231072D01*
X130204320Y-108207816D01*
X130178699Y-108147297D01*
X130135726Y-108073218D01*
X130081696Y-107995017D01*
X130022902Y-107922135D01*
X129991037Y-107887958D01*
X129909919Y-107826700D01*
X129801031Y-107776291D01*
X129668085Y-107737730D01*
X129514795Y-107712015D01*
X129344871Y-107700143D01*
X129289600Y-107699429D01*
X129065996Y-107705722D01*
X128846508Y-107725362D01*
X128623696Y-107759547D01*
X128390123Y-107809470D01*
X128138351Y-107876329D01*
X128076233Y-107894481D01*
X127971344Y-107927193D01*
X127859974Y-107964697D01*
X127746429Y-108005255D01*
X127635013Y-108047135D01*
X127530034Y-108088599D01*
X127435796Y-108127913D01*
X127356605Y-108163343D01*
X127296766Y-108193152D01*
X127260586Y-108215605D01*
X127251558Y-108226827D01*
X127265754Y-108240150D01*
X127303823Y-108262447D01*
X127358980Y-108290508D01*
X127424444Y-108321121D01*
X127493433Y-108351078D01*
X127559165Y-108377165D01*
X127598318Y-108390984D01*
X127665105Y-108410325D01*
X127726172Y-108420729D01*
X127789374Y-108421935D01*
X127862567Y-108413682D01*
X127953606Y-108395711D01*
X128034999Y-108376514D01*
X128170704Y-108344578D01*
X128283116Y-108321527D01*
X128380351Y-108306159D01*
X128470522Y-108297271D01*
X128561744Y-108293661D01*
X128595779Y-108293422D01*
X128703635Y-108299155D01*
X128820528Y-108314847D01*
X128933921Y-108338214D01*
X129031279Y-108366973D01*
X129058938Y-108377760D01*
X129125727Y-108414308D01*
X129202490Y-108468775D01*
X129279211Y-108532841D01*
X129345876Y-108598183D01*
X129390223Y-108653032D01*
X129436743Y-108727741D01*
X129470787Y-108796095D01*
X129494181Y-108865636D01*
X129508752Y-108943906D01*
X129516325Y-109038446D01*
X129518727Y-109156796D01*
X129518747Y-109183831D01*
X129516498Y-109321326D01*
X129509814Y-109433624D01*
X129498116Y-109528287D01*
X129488469Y-109579675D01*
X129429339Y-109824663D01*
X129355943Y-110069785D01*
X129266912Y-110318055D01*
X129160873Y-110572492D01*
X129036459Y-110836110D01*
X128892298Y-111111928D01*
X128727021Y-111402960D01*
X128539256Y-111712224D01*
X128469601Y-111822770D01*
X128428717Y-111886227D01*
X128393736Y-111938900D01*
X128368704Y-111974796D01*
X128358186Y-111987705D01*
X128344400Y-112003847D01*
X128316191Y-112041201D01*
X128277929Y-112093867D01*
X128242068Y-112144415D01*
X128189574Y-112217419D01*
X128134205Y-112291601D01*
X128084322Y-112355868D01*
X128061752Y-112383571D01*
X128021572Y-112431770D01*
X127988466Y-112471971D01*
X127969414Y-112495695D01*
X127969117Y-112496084D01*
X127944402Y-112526504D01*
X127927792Y-112545740D01*
X127900771Y-112577772D01*
X127867903Y-112618703D01*
X127864619Y-112622902D01*
X127804331Y-112695853D01*
X127724401Y-112786035D01*
X127629629Y-112888521D01*
X127524811Y-112998387D01*
X127414747Y-113110706D01*
X127304234Y-113220554D01*
X127198072Y-113323006D01*
X127101057Y-113413136D01*
X127053361Y-113455649D01*
X126997830Y-113504405D01*
X126949472Y-113547218D01*
X126915200Y-113577948D01*
X126904732Y-113587597D01*
X126872780Y-113616018D01*
X126821124Y-113659816D01*
X126755943Y-113713922D01*
X126683418Y-113773267D01*
X126609731Y-113832780D01*
X126541061Y-113887393D01*
X126502555Y-113917467D01*
X126445667Y-113961852D01*
X126395426Y-114001741D01*
X126360085Y-114030561D01*
X126352467Y-114037075D01*
X126286073Y-114091462D01*
X126195715Y-114159423D01*
X126085954Y-114237964D01*
X125961353Y-114324094D01*
X125826473Y-114414819D01*
X125685876Y-114507146D01*
X125544123Y-114598084D01*
X125405775Y-114684638D01*
X125275396Y-114763817D01*
X125157545Y-114832627D01*
X125056785Y-114888076D01*
X125049675Y-114891805D01*
X124990293Y-114923472D01*
X124942783Y-114950030D01*
X124914260Y-114967447D01*
X124909480Y-114971272D01*
X124891717Y-114982260D01*
X124849162Y-115004315D01*
X124787087Y-115034931D01*
X124710766Y-115071599D01*
X124625470Y-115111813D01*
X124536473Y-115153065D01*
X124449046Y-115192848D01*
X124368462Y-115228654D01*
X124365858Y-115229792D01*
X124131506Y-115323086D01*
X123905572Y-115395054D01*
X123690208Y-115445530D01*
X123487568Y-115474349D01*
X123299803Y-115481345D01*
X123129068Y-115466353D01*
X122977515Y-115429207D01*
X122847296Y-115369742D01*
X122814805Y-115348969D01*
X122717979Y-115270533D01*
X122630034Y-115176993D01*
X122559938Y-115078531D01*
X122534320Y-115030496D01*
X122483362Y-114905733D01*
X122449040Y-114782257D01*
X122430202Y-114652087D01*
X122425698Y-114507238D01*
X122427734Y-114467938D01*
X122897451Y-114467938D01*
X122904066Y-114611132D01*
X122925027Y-114727184D01*
X122962516Y-114819614D01*
X123018712Y-114891943D01*
X123095798Y-114947690D01*
X123195953Y-114990375D01*
X123227142Y-115000091D01*
X123283724Y-115010063D01*
X123359290Y-115014828D01*
X123442210Y-115014574D01*
X123520853Y-115009490D01*
X123583588Y-114999763D01*
X123603285Y-114994013D01*
X123641312Y-114979893D01*
X123589457Y-114914642D01*
X123557871Y-114877398D01*
X123509697Y-114823600D01*
X123451371Y-114760319D01*
X123389328Y-114694625D01*
X123386496Y-114691667D01*
X123285624Y-114585873D01*
X123204832Y-114499878D01*
X123140919Y-114430109D01*
X123090684Y-114372995D01*
X123050926Y-114324962D01*
X123018445Y-114282441D01*
X123012842Y-114274705D01*
X122979582Y-114232881D01*
X122951210Y-114204970D01*
X122937772Y-114197857D01*
X122921119Y-114209985D01*
X122909117Y-114247734D01*
X122901459Y-114313153D01*
X122897841Y-114408287D01*
X122897451Y-114467938D01*
X122427734Y-114467938D01*
X122434377Y-114339728D01*
X122434515Y-114338052D01*
X122443394Y-114248751D01*
X122455612Y-114163111D01*
X122472723Y-114073568D01*
X122496277Y-113972561D01*
X122527826Y-113852527D01*
X122552036Y-113765401D01*
X122560068Y-113734103D01*
X122563724Y-113705947D01*
X122561908Y-113674643D01*
X122553525Y-113633896D01*
X122537479Y-113577413D01*
X122512675Y-113498903D01*
X122497492Y-113452024D01*
X122467782Y-113359535D01*
X122439316Y-113269139D01*
X122414854Y-113189721D01*
X122397158Y-113130166D01*
X122393678Y-113117855D01*
X122378220Y-113064950D01*
X122367147Y-113039263D01*
X122356796Y-113036022D01*
X122343510Y-113050454D01*
X122342766Y-113051468D01*
X122322129Y-113085062D01*
X122290462Y-113143301D01*
X122250403Y-113220808D01*
X122204592Y-113312205D01*
X122155666Y-113412114D01*
X122106262Y-113515159D01*
X122059019Y-113615961D01*
X122016576Y-113709143D01*
X121986700Y-113777272D01*
X121932477Y-113907497D01*
X121889875Y-114019495D01*
X121855367Y-114124343D01*
X121825424Y-114233115D01*
X121796518Y-114356890D01*
X121784995Y-114410526D01*
X121742817Y-114656648D01*
X121722792Y-114888485D01*
X121266330Y-114888485D01*
X121267185Y-114810496D01*
X121272475Y-114702534D01*
X121282455Y-114602176D01*
X121297888Y-114500988D01*
X121319534Y-114390541D01*
X121337543Y-114308703D01*
X121375483Y-114155511D01*
X121421906Y-113990815D01*
X121473852Y-113823795D01*
X121528363Y-113663628D01*
X121582479Y-113519494D01*
X121623159Y-113422662D01*
X121660357Y-113341306D01*
X121702732Y-113251364D01*
X121747121Y-113159266D01*
X121790357Y-113071443D01*
X121829276Y-112994321D01*
X121860713Y-112934332D01*
X121881439Y-112898004D01*
X121903050Y-112863872D01*
X121938324Y-112807790D01*
X121983471Y-112735799D01*
X122034700Y-112653942D01*
X122074814Y-112589740D01*
X122229281Y-112342337D01*
X122240183Y-111962987D01*
X122243006Y-111891699D01*
X122734965Y-111891699D01*
X122737003Y-112031703D01*
X122750527Y-112297579D01*
X122777554Y-112540311D01*
X122820092Y-112767037D01*
X122880149Y-112984895D01*
X122959732Y-113201023D01*
X123060850Y-113422559D01*
X123185511Y-113656641D01*
X123202517Y-113686558D01*
X123279452Y-113816733D01*
X123349102Y-113924293D01*
X123416971Y-114017032D01*
X123488558Y-114102744D01*
X123523175Y-114140801D01*
X123575884Y-114197772D01*
X123625035Y-114251466D01*
X123662832Y-114293344D01*
X123673776Y-114305736D01*
X123731963Y-114368469D01*
X123802132Y-114437812D01*
X123879794Y-114509985D01*
X123960460Y-114581208D01*
X124039643Y-114647702D01*
X124112854Y-114705685D01*
X124175603Y-114751377D01*
X124223402Y-114781000D01*
X124249740Y-114790785D01*
X124266614Y-114783915D01*
X124307453Y-114764693D01*
X124366828Y-114735744D01*
X124439312Y-114699695D01*
X124471751Y-114683376D01*
X124549132Y-114643997D01*
X124616487Y-114609116D01*
X124668055Y-114581760D01*
X124698079Y-114564958D01*
X124702660Y-114561955D01*
X124722985Y-114549342D01*
X124766314Y-114524514D01*
X124826595Y-114490879D01*
X124897780Y-114451844D01*
X124909480Y-114445486D01*
X125033686Y-114374768D01*
X125176552Y-114287770D01*
X125331102Y-114188970D01*
X125490358Y-114082845D01*
X125647345Y-113973875D01*
X125676428Y-113953156D01*
X125746080Y-113902946D01*
X125822317Y-113847378D01*
X125900298Y-113790052D01*
X125975178Y-113734569D01*
X126042118Y-113684529D01*
X126096275Y-113643534D01*
X126132806Y-113615183D01*
X126146493Y-113603596D01*
X126164164Y-113589122D01*
X126198484Y-113564127D01*
X126212467Y-113554358D01*
X126252907Y-113525324D01*
X126282857Y-113501920D01*
X126287894Y-113497426D01*
X126310896Y-113477576D01*
X126348878Y-113446820D01*
X126369100Y-113430909D01*
X126422648Y-113388348D01*
X126480324Y-113341213D01*
X126532139Y-113297769D01*
X126568104Y-113266280D01*
X126568437Y-113265974D01*
X126620058Y-113218207D01*
X126684652Y-113158250D01*
X126756910Y-113091049D01*
X126831526Y-113021549D01*
X126903195Y-112954697D01*
X126966608Y-112895440D01*
X127016460Y-112848724D01*
X127047443Y-112819495D01*
X127047461Y-112819477D01*
X127136895Y-112730011D01*
X127240090Y-112619546D01*
X127351852Y-112494080D01*
X127466986Y-112359609D01*
X127580297Y-112222130D01*
X127686590Y-112087642D01*
X127725087Y-112037207D01*
X127766827Y-111982498D01*
X127801401Y-111938271D01*
X127823837Y-111910832D01*
X127829099Y-111905259D01*
X127842880Y-111888347D01*
X127871303Y-111849248D01*
X127910717Y-111793225D01*
X127957469Y-111725540D01*
X128007907Y-111651456D01*
X128058379Y-111576235D01*
X128078652Y-111545656D01*
X128112827Y-111494258D01*
X128141984Y-111451038D01*
X128158069Y-111427824D01*
X128179938Y-111395374D01*
X128214539Y-111341668D01*
X128257528Y-111273676D01*
X128304563Y-111198363D01*
X128351299Y-111122699D01*
X128393393Y-111053651D01*
X128426501Y-110998187D01*
X128434808Y-110983889D01*
X128473030Y-110915014D01*
X128517500Y-110831019D01*
X128565915Y-110736669D01*
X128615972Y-110636728D01*
X128665367Y-110535963D01*
X128711798Y-110439140D01*
X128752962Y-110351022D01*
X128786555Y-110276376D01*
X128810275Y-110219968D01*
X128821818Y-110186561D01*
X128822564Y-110181555D01*
X128813654Y-110143466D01*
X128791054Y-110094121D01*
X128776708Y-110070160D01*
X128745328Y-110024101D01*
X128703322Y-109964870D01*
X128655152Y-109898474D01*
X128605278Y-109830921D01*
X128558159Y-109768217D01*
X128518256Y-109716370D01*
X128490030Y-109681387D01*
X128479889Y-109670389D01*
X128460113Y-109650435D01*
X128425766Y-109613290D01*
X128383939Y-109566639D01*
X128379901Y-109562067D01*
X128318558Y-109497786D01*
X128239074Y-109422075D01*
X128150132Y-109342703D01*
X128060414Y-109267441D01*
X127985519Y-109209149D01*
X127942145Y-109176031D01*
X127907670Y-109147980D01*
X127897750Y-109139072D01*
X127873297Y-109120972D01*
X127863750Y-109117857D01*
X127843593Y-109107863D01*
X127819571Y-109088733D01*
X127766123Y-109047778D01*
X127687893Y-108998107D01*
X127590901Y-108942810D01*
X127481168Y-108884974D01*
X127364716Y-108827686D01*
X127334187Y-108813705D01*
X128323636Y-108813705D01*
X128335092Y-108835876D01*
X128365579Y-108872901D01*
X128409278Y-108917939D01*
X128425146Y-108932968D01*
X128531995Y-109033355D01*
X128619920Y-109119056D01*
X128695314Y-109196534D01*
X128764570Y-109272251D01*
X128794028Y-109305845D01*
X128845786Y-109365319D01*
X128896423Y-109423125D01*
X128937045Y-109469121D01*
X128945883Y-109479027D01*
X128977135Y-109516381D01*
X128996476Y-109544236D01*
X128999487Y-109551785D01*
X129010080Y-109558030D01*
X129015253Y-109555621D01*
X129026740Y-109535396D01*
X129040403Y-109493041D01*
X129049972Y-109452977D01*
X129057997Y-109392994D01*
X129062745Y-109312502D01*
X129063632Y-109223871D01*
X129062639Y-109185245D01*
X129052325Y-109062463D01*
X129031178Y-108967956D01*
X128998077Y-108898474D01*
X128951900Y-108850766D01*
X128945829Y-108846613D01*
X128889527Y-108820478D01*
X128809286Y-108797476D01*
X128714132Y-108779479D01*
X128613089Y-108768358D01*
X128556318Y-108765814D01*
X128453934Y-108766856D01*
X128382206Y-108774499D01*
X128339396Y-108789100D01*
X128323770Y-108811016D01*
X128323636Y-108813705D01*
X127334187Y-108813705D01*
X127247565Y-108774035D01*
X127135735Y-108727108D01*
X127055992Y-108697130D01*
X126763761Y-108608637D01*
X126474484Y-108550721D01*
X126181435Y-108522429D01*
X125877889Y-108522809D01*
X125838817Y-108524828D01*
X125524695Y-108557972D01*
X125216526Y-108621649D01*
X124911278Y-108716638D01*
X124615102Y-108839435D01*
X124554075Y-108867459D01*
X124505211Y-108889251D01*
X124475562Y-108901696D01*
X124470116Y-108903441D01*
X124452954Y-108911866D01*
X124421073Y-108932351D01*
X124418130Y-108934377D01*
X124384260Y-108957050D01*
X124331642Y-108991408D01*
X124269407Y-109031508D01*
X124241493Y-109049335D01*
X124161496Y-109100672D01*
X124102129Y-109140065D01*
X124055933Y-109172866D01*
X124015447Y-109204428D01*
X123973211Y-109240101D01*
X123962059Y-109249805D01*
X123909753Y-109295182D01*
X123855904Y-109341452D01*
X123837815Y-109356860D01*
X123654945Y-109528750D01*
X123479752Y-109725794D01*
X123318222Y-109940204D01*
X123176342Y-110164189D01*
X123085530Y-110335635D01*
X122972468Y-110589552D01*
X122883014Y-110837099D01*
X122815853Y-111084681D01*
X122769669Y-111338704D01*
X122743145Y-111605575D01*
X122734965Y-111891699D01*
X122243006Y-111891699D01*
X122250107Y-111712381D01*
X122265481Y-111488851D01*
X122287646Y-111286743D01*
X122317942Y-111100403D01*
X122357709Y-110924175D01*
X122408287Y-110752406D01*
X122471016Y-110579443D01*
X122547237Y-110399630D01*
X122638291Y-110207313D01*
X122672647Y-110138506D01*
X122722369Y-110043110D01*
X122777690Y-109942163D01*
X122835560Y-109840728D01*
X122892931Y-109743864D01*
X122946755Y-109656634D01*
X122993981Y-109584097D01*
X123031563Y-109531315D01*
X123053985Y-109505454D01*
X123073830Y-109483987D01*
X123105766Y-109446115D01*
X123131137Y-109414740D01*
X123206536Y-109326637D01*
X123300902Y-109226644D01*
X123406704Y-109121940D01*
X123516411Y-109019704D01*
X123622490Y-108927113D01*
X123717411Y-108851347D01*
X123738441Y-108835928D01*
X123780936Y-108804631D01*
X123811465Y-108780618D01*
X123820909Y-108771902D01*
X123837148Y-108759404D01*
X123874972Y-108733410D01*
X123928068Y-108698029D01*
X123990125Y-108657369D01*
X124054832Y-108615539D01*
X124115875Y-108576648D01*
X124166944Y-108544805D01*
X124200259Y-108524946D01*
X124274371Y-108485176D01*
X124369673Y-108437164D01*
X124476882Y-108385303D01*
X124586716Y-108333986D01*
X124689895Y-108287607D01*
X124777135Y-108250559D01*
X124795354Y-108243275D01*
X124854703Y-108219558D01*
X124909514Y-108197016D01*
X124934220Y-108186490D01*
X124983989Y-108169724D01*
X125058563Y-108150900D01*
X125149971Y-108131667D01*
X125250240Y-108113672D01*
X125351396Y-108098565D01*
X125372648Y-108095833D01*
X125422511Y-108091069D01*
X125499597Y-108085535D01*
X125598159Y-108079558D01*
X125712450Y-108073462D01*
X125836725Y-108067574D01*
X125965237Y-108062220D01*
X125966414Y-108062175D01*
X126093122Y-108056877D01*
X126214000Y-108051068D01*
X126323673Y-108045065D01*
X126416768Y-108039184D01*
X126487911Y-108033741D01*
X126531727Y-108029051D01*
X126533104Y-108028842D01*
X126580604Y-108017811D01*
X126641845Y-107996710D01*
X126720442Y-107964023D01*
X126820010Y-107918234D01*
X126944165Y-107857828D01*
X126961935Y-107849004D01*
X127114314Y-107774029D01*
X127245375Y-107711734D01*
X127362722Y-107658930D01*
X127473957Y-107612433D01*
X127586685Y-107569055D01*
X127708509Y-107525608D01*
X127837077Y-107482201D01*
X128075917Y-107406852D01*
X128293591Y-107346846D01*
X128497430Y-107300905D01*
X128694764Y-107267751D01*
X128892921Y-107246108D01*
X129099231Y-107234696D01*
X129272012Y-107232076D01*
X129391999Y-107232224D01*
G37*
D15*
%TO.C,U7*%
X230660000Y-87220000D02*
X230660000Y-90726667D01*
X230660000Y-90726667D02*
X231020000Y-90726667D01*
X230660000Y-94233333D02*
X230660000Y-97739999D01*
X230660000Y-97739999D02*
X250640000Y-97740000D01*
X231020000Y-90726667D02*
X231020000Y-94233333D01*
X231020000Y-94233333D02*
X230660000Y-94233333D01*
X250640000Y-87220001D02*
X230660000Y-87220000D01*
X250640000Y-97740000D02*
X250640000Y-87220001D01*
%TO.C,R6*%
X246712936Y-51315000D02*
X247167064Y-51315000D01*
X246712936Y-52785000D02*
X247167064Y-52785000D01*
%TO.C,R3*%
X173692936Y-51395000D02*
X174147064Y-51395000D01*
X173692936Y-52865000D02*
X174147064Y-52865000D01*
D10*
%TO.C,NX3*%
X153840000Y-56730000D02*
X153840000Y-77050000D01*
X174160000Y-56730000D02*
X174160000Y-77050000D01*
X153840000Y-56730000D02*
G75*
G02*
X174160000Y-56730000I10160000J-10159999D01*
G01*
X174160000Y-77050000D02*
G75*
G02*
X153840000Y-77050000I-10160000J10159999D01*
G01*
D15*
%TO.C,U3*%
X126160000Y-87210000D02*
X126160000Y-90716667D01*
X126160000Y-90716667D02*
X126520000Y-90716667D01*
X126160000Y-94223333D02*
X126160000Y-97729999D01*
X126160000Y-97729999D02*
X146140000Y-97730000D01*
X126520000Y-90716667D02*
X126520000Y-94223333D01*
X126520000Y-94223333D02*
X126160000Y-94223333D01*
X146140000Y-87210001D02*
X126160000Y-87210000D01*
X146140000Y-97730000D02*
X146140000Y-87210001D01*
%TO.C,U4*%
X151660000Y-87220000D02*
X151660000Y-90726667D01*
X151660000Y-90726667D02*
X152020000Y-90726667D01*
X151660000Y-94233333D02*
X151660000Y-97739999D01*
X151660000Y-97739999D02*
X171640000Y-97740000D01*
X152020000Y-90726667D02*
X152020000Y-94233333D01*
X152020000Y-94233333D02*
X151660000Y-94233333D01*
X171640000Y-87220001D02*
X151660000Y-87220000D01*
X171640000Y-97740000D02*
X171640000Y-87220001D01*
%TO.C,R1*%
X99322936Y-51505000D02*
X99777064Y-51505000D01*
X99322936Y-52975000D02*
X99777064Y-52975000D01*
%TO.C,R2*%
X148742936Y-51445000D02*
X149197064Y-51445000D01*
X148742936Y-52915000D02*
X149197064Y-52915000D01*
D10*
%TO.C,NX2*%
X124425000Y-56730000D02*
X124425000Y-77050000D01*
X144745000Y-56730000D02*
X144745000Y-77050000D01*
X124425000Y-56730000D02*
G75*
G02*
X144745000Y-56730000I10160000J-10159999D01*
G01*
X144745000Y-77050000D02*
G75*
G02*
X124425000Y-77050000I-10160000J10159999D01*
G01*
D15*
%TO.C,U5*%
X177700000Y-87220000D02*
X177700000Y-90726667D01*
X177700000Y-90726667D02*
X178060000Y-90726667D01*
X177700000Y-94233333D02*
X177700000Y-97739999D01*
X177700000Y-97739999D02*
X197680000Y-97740000D01*
X178060000Y-90726667D02*
X178060000Y-94233333D01*
X178060000Y-94233333D02*
X177700000Y-94233333D01*
X197680000Y-87220001D02*
X177700000Y-87220000D01*
X197680000Y-97740000D02*
X197680000Y-87220001D01*
%TO.C,U1*%
D17*
X98760000Y-123700000D02*
X114760000Y-123700000D01*
X114760000Y-104200000D01*
X98760000Y-104200000D01*
X98760000Y-123700000D01*
D15*
%TO.C,A1*%
X202320000Y-101760000D02*
X202320000Y-105597939D01*
X202320000Y-108160000D02*
X202320000Y-106522061D01*
X202320000Y-115360000D02*
X202320000Y-108160000D01*
X202320000Y-116997939D02*
X202320000Y-115360000D01*
X202320000Y-117922061D02*
X202320000Y-121760000D01*
X202383000Y-122030000D02*
X253477000Y-122030000D01*
X203233520Y-104250000D02*
X202320000Y-104250000D01*
X203233520Y-119270000D02*
X202320000Y-119270000D01*
X249020000Y-115660000D02*
X249020000Y-107860000D01*
X250233520Y-104250000D02*
X205626480Y-104250000D01*
X250233520Y-119270000D02*
X205626480Y-119270000D01*
X250236000Y-107860000D02*
X249020000Y-107860000D01*
X250236000Y-115660000D02*
X249020000Y-115660000D01*
X251260000Y-100830000D02*
X252860000Y-100830000D01*
X252930000Y-101150000D02*
X202930000Y-101150000D01*
X252930000Y-122370000D02*
X202930000Y-122370000D01*
X253477000Y-101490000D02*
X202383000Y-101490000D01*
X253540000Y-101760000D02*
X253540000Y-104250000D01*
X253540000Y-104250000D02*
X252626480Y-104250000D01*
X253540000Y-104250000D02*
X253540000Y-105597940D01*
X253540000Y-106522061D02*
X253540000Y-107525000D01*
X253540000Y-107525000D02*
X253540000Y-115995000D01*
X253540000Y-115995000D02*
X253540000Y-116997939D01*
X253540000Y-117922061D02*
X253540000Y-119270000D01*
X253540000Y-119270000D02*
X252626480Y-119270000D01*
X253540000Y-121760000D02*
X253540000Y-119270000D01*
X254020000Y-107650000D02*
X254020000Y-107860000D01*
X254020000Y-107860000D02*
X252624000Y-107860000D01*
X254020000Y-115660000D02*
X252624000Y-115660000D01*
X254020000Y-115870000D02*
X254020000Y-115660000D01*
X254840000Y-107650000D02*
X254020000Y-107650000D01*
X254840000Y-107650000D02*
X254840000Y-115870000D01*
X254840000Y-115870000D02*
X254020000Y-115870000D01*
X202320000Y-101760000D02*
G75*
G02*
X202930000Y-101150000I609901J99D01*
G01*
X202930000Y-122370000D02*
G75*
G02*
X202320000Y-121760000I0J610000D01*
G01*
X252930000Y-101150000D02*
G75*
G02*
X253540000Y-101760000I0J-610000D01*
G01*
X253540000Y-121760000D02*
G75*
G02*
X252930000Y-122370000I-610000J0D01*
G01*
%TO.C,U2*%
X99700000Y-87210000D02*
X99700000Y-90716667D01*
X99700000Y-90716667D02*
X100060000Y-90716667D01*
X99700000Y-94223333D02*
X99700000Y-97729999D01*
X99700000Y-97729999D02*
X119680000Y-97730000D01*
X100060000Y-90716667D02*
X100060000Y-94223333D01*
X100060000Y-94223333D02*
X99700000Y-94223333D01*
X119680000Y-87210001D02*
X99700000Y-87210000D01*
X119680000Y-97730000D02*
X119680000Y-87210001D01*
D16*
%TO.C,G\u002A\u002A\u002A*%
G36*
X142700854Y-117069897D02*
G01*
X142712992Y-117104475D01*
X142718090Y-117163578D01*
X142718090Y-117164044D01*
X142735444Y-117256501D01*
X142782442Y-117366534D01*
X142851487Y-117479821D01*
X142934982Y-117582038D01*
X142945447Y-117592715D01*
X143100229Y-117716258D01*
X143272911Y-117800526D01*
X143455868Y-117845184D01*
X143641473Y-117849898D01*
X143822100Y-117814331D01*
X143990122Y-117738148D01*
X144114216Y-117644135D01*
X144195479Y-117568224D01*
X144179824Y-117648448D01*
X144131577Y-117774672D01*
X144044275Y-117883445D01*
X143925562Y-117972276D01*
X143783079Y-118038672D01*
X143624470Y-118080139D01*
X143457378Y-118094186D01*
X143289445Y-118078320D01*
X143128314Y-118030048D01*
X143079407Y-118007334D01*
X142925827Y-117906889D01*
X142796440Y-117778522D01*
X142697429Y-117631277D01*
X142634974Y-117474196D01*
X142615117Y-117328189D01*
X142621116Y-117240673D01*
X142636713Y-117160765D01*
X142658306Y-117099312D01*
X142682294Y-117067163D01*
X142700854Y-117069897D01*
G37*
G36*
X138350435Y-116346530D02*
G01*
X138345327Y-116367957D01*
X138317723Y-116520951D01*
X138310889Y-116694793D01*
X138323578Y-116873013D01*
X138354538Y-117039140D01*
X138402521Y-117176704D01*
X138407459Y-117186778D01*
X138532480Y-117389163D01*
X138682439Y-117549628D01*
X138858079Y-117668591D01*
X139060142Y-117746470D01*
X139289368Y-117783684D01*
X139469392Y-117785633D01*
X139584922Y-117782465D01*
X139652405Y-117786572D01*
X139672552Y-117800029D01*
X139646075Y-117824910D01*
X139573685Y-117863290D01*
X139506709Y-117894479D01*
X139332467Y-117947726D01*
X139146163Y-117958563D01*
X138956107Y-117929185D01*
X138770607Y-117861785D01*
X138597975Y-117758557D01*
X138446518Y-117621695D01*
X138438219Y-117612386D01*
X138298791Y-117422835D01*
X138202847Y-117222873D01*
X138151331Y-117017320D01*
X138145191Y-116810994D01*
X138185373Y-116608716D01*
X138222268Y-116512515D01*
X138262082Y-116431981D01*
X138299644Y-116369432D01*
X138330117Y-116330550D01*
X138348660Y-116321022D01*
X138350435Y-116346530D01*
G37*
G36*
X144451449Y-118837335D02*
G01*
X144443385Y-118950072D01*
X144427031Y-119038855D01*
X144396536Y-119126042D01*
X144349502Y-119227030D01*
X144222599Y-119432249D01*
X144064819Y-119604006D01*
X143881872Y-119741481D01*
X143679472Y-119843854D01*
X143463331Y-119910304D01*
X143239162Y-119940011D01*
X143012677Y-119932156D01*
X142789589Y-119885917D01*
X142575611Y-119800475D01*
X142376455Y-119675010D01*
X142219815Y-119532792D01*
X142166654Y-119468010D01*
X142107635Y-119383920D01*
X142050027Y-119292566D01*
X142001098Y-119205996D01*
X141968117Y-119136254D01*
X141958051Y-119098989D01*
X141974174Y-119105763D01*
X142016405Y-119139268D01*
X142074509Y-119191247D01*
X142302712Y-119376626D01*
X142538247Y-119514549D01*
X142780031Y-119604692D01*
X143026985Y-119646730D01*
X143278027Y-119640338D01*
X143456581Y-119606626D01*
X143693913Y-119521321D01*
X143908098Y-119393213D01*
X144097958Y-119223340D01*
X144262313Y-119012738D01*
X144388218Y-118787620D01*
X144460396Y-118635814D01*
X144451449Y-118837335D01*
G37*
G36*
X146164494Y-111213562D02*
G01*
X146251838Y-111247342D01*
X146285368Y-111263130D01*
X146440503Y-111360197D01*
X146578516Y-111488890D01*
X146688922Y-111637450D01*
X146761237Y-111794113D01*
X146762626Y-111798550D01*
X146804744Y-111996270D01*
X146807611Y-112183137D01*
X146772295Y-112352862D01*
X146699863Y-112499158D01*
X146629614Y-112582374D01*
X146563986Y-112639633D01*
X146504313Y-112681806D01*
X146474035Y-112696203D01*
X146448193Y-112700113D01*
X146441993Y-112687838D01*
X146457170Y-112650894D01*
X146495462Y-112580798D01*
X146498894Y-112574712D01*
X146564760Y-112410067D01*
X146589007Y-112230977D01*
X146573471Y-112045711D01*
X146519991Y-111862540D01*
X146430401Y-111689734D01*
X146306540Y-111535564D01*
X146257943Y-111489736D01*
X146136957Y-111402678D01*
X146003473Y-111348115D01*
X145844055Y-111319579D01*
X145696951Y-111304551D01*
X145768004Y-111256731D01*
X145856080Y-111219969D01*
X145980163Y-111201034D01*
X145988661Y-111200516D01*
X146085119Y-111199716D01*
X146164494Y-111213562D01*
G37*
G36*
X140160787Y-113961581D02*
G01*
X140155790Y-113977513D01*
X140067212Y-114225579D01*
X140016206Y-114449315D01*
X140002641Y-114655739D01*
X140026384Y-114851870D01*
X140087304Y-115044729D01*
X140133849Y-115146487D01*
X140257401Y-115339545D01*
X140415866Y-115500461D01*
X140605285Y-115626982D01*
X140821698Y-115716855D01*
X141061147Y-115767828D01*
X141245822Y-115779178D01*
X141343994Y-115782304D01*
X141393781Y-115791572D01*
X141395202Y-115807546D01*
X141348275Y-115830789D01*
X141253022Y-115861864D01*
X141248727Y-115863125D01*
X141072960Y-115895586D01*
X140880352Y-115899642D01*
X140693537Y-115875711D01*
X140602693Y-115851185D01*
X140390746Y-115756771D01*
X140207599Y-115628081D01*
X140055512Y-115470807D01*
X139936744Y-115290644D01*
X139853558Y-115093285D01*
X139808213Y-114884422D01*
X139802970Y-114669748D01*
X139840090Y-114454958D01*
X139921832Y-114245744D01*
X139946889Y-114199525D01*
X139987514Y-114136143D01*
X140035072Y-114072768D01*
X140082871Y-114016511D01*
X140124219Y-113974486D01*
X140152421Y-113953805D01*
X140160787Y-113961581D01*
G37*
G36*
X141898161Y-111280626D02*
G01*
X142043862Y-111311613D01*
X142166449Y-111351468D01*
X141978924Y-111368056D01*
X141731609Y-111408016D01*
X141504676Y-111480701D01*
X141308510Y-111582739D01*
X141299223Y-111588866D01*
X141150054Y-111705422D01*
X141030359Y-111840097D01*
X140928998Y-112006204D01*
X140899373Y-112066549D01*
X140833064Y-112262292D01*
X140804825Y-112478223D01*
X140814273Y-112704104D01*
X140861025Y-112929699D01*
X140939401Y-113133927D01*
X140971323Y-113204259D01*
X140990368Y-113254517D01*
X140992896Y-113271401D01*
X140970622Y-113262464D01*
X140928031Y-113223523D01*
X140873567Y-113164291D01*
X140815670Y-113094480D01*
X140762783Y-113023802D01*
X140723347Y-112961970D01*
X140722319Y-112960095D01*
X140635365Y-112752116D01*
X140593059Y-112536796D01*
X140592941Y-112320200D01*
X140632549Y-112108388D01*
X140709421Y-111907423D01*
X140821096Y-111723367D01*
X140965112Y-111562283D01*
X141139008Y-111430233D01*
X141340323Y-111333279D01*
X141389565Y-111316791D01*
X141549358Y-111282899D01*
X141725625Y-111270791D01*
X141898161Y-111280626D01*
G37*
G36*
X144864275Y-109272419D02*
G01*
X144946014Y-109283945D01*
X145165954Y-109343845D01*
X145382104Y-109441191D01*
X145585318Y-109569382D01*
X145766447Y-109721817D01*
X145916346Y-109891893D01*
X146018671Y-110057998D01*
X146050238Y-110126305D01*
X146070641Y-110185868D01*
X146082227Y-110250634D01*
X146087345Y-110334552D01*
X146088342Y-110451568D01*
X146088286Y-110471529D01*
X146085832Y-110605424D01*
X146078520Y-110702424D01*
X146064789Y-110774555D01*
X146043077Y-110833844D01*
X146040522Y-110839289D01*
X145993701Y-110937359D01*
X145975623Y-110752109D01*
X145927570Y-110500173D01*
X145836635Y-110267278D01*
X145706460Y-110056971D01*
X145540686Y-109872798D01*
X145342953Y-109718306D01*
X145116902Y-109597041D01*
X144866175Y-109512548D01*
X144665028Y-109475555D01*
X144540937Y-109465034D01*
X144415278Y-109465271D01*
X144274864Y-109477104D01*
X144106511Y-109501369D01*
X144017511Y-109516676D01*
X143931700Y-109531977D01*
X144044660Y-109455615D01*
X144221839Y-109362240D01*
X144426345Y-109298899D01*
X144644912Y-109268116D01*
X144864275Y-109272419D01*
G37*
G36*
X146145741Y-113970876D02*
G01*
X146259679Y-113973230D01*
X146401063Y-113977435D01*
X146573148Y-113983529D01*
X146779188Y-113991549D01*
X147022438Y-114001531D01*
X147306151Y-114013513D01*
X147633583Y-114027530D01*
X147859933Y-114037258D01*
X148128738Y-114048992D01*
X148382823Y-114060433D01*
X148617990Y-114071369D01*
X148830038Y-114081586D01*
X149014769Y-114090874D01*
X149167981Y-114099020D01*
X149285475Y-114105813D01*
X149363053Y-114111040D01*
X149396513Y-114114490D01*
X149397494Y-114114865D01*
X149375643Y-114117796D01*
X149308621Y-114122449D01*
X149200255Y-114128641D01*
X149054371Y-114136191D01*
X148874796Y-114144916D01*
X148665357Y-114154635D01*
X148429881Y-114165165D01*
X148172195Y-114176326D01*
X147896125Y-114187933D01*
X147642216Y-114198326D01*
X145874908Y-114269756D01*
X145828835Y-114212859D01*
X145787907Y-114135832D01*
X145795458Y-114064340D01*
X145831797Y-114014289D01*
X145843318Y-114003155D01*
X145856251Y-113993578D01*
X145873850Y-113985595D01*
X145899370Y-113979242D01*
X145936065Y-113974557D01*
X145987189Y-113971577D01*
X146055996Y-113970337D01*
X146145741Y-113970876D01*
G37*
G36*
X146205389Y-116976282D02*
G01*
X146234175Y-117027677D01*
X146260613Y-117078491D01*
X146345929Y-117296395D01*
X146388245Y-117521503D01*
X146389902Y-117747908D01*
X146353240Y-117969704D01*
X146280600Y-118180981D01*
X146174324Y-118375833D01*
X146036752Y-118548354D01*
X145870225Y-118692634D01*
X145677084Y-118802768D01*
X145559875Y-118846797D01*
X145365466Y-118884507D01*
X145155932Y-118885554D01*
X144947018Y-118851374D01*
X144754467Y-118783402D01*
X144729353Y-118771087D01*
X144648744Y-118723881D01*
X144555275Y-118660075D01*
X144461168Y-118589093D01*
X144378644Y-118520360D01*
X144319922Y-118463299D01*
X144303885Y-118442986D01*
X144287590Y-118415722D01*
X144288793Y-118403955D01*
X144314535Y-118408808D01*
X144371859Y-118431402D01*
X144454245Y-118466951D01*
X144720092Y-118563766D01*
X144968258Y-118614853D01*
X145198737Y-118620214D01*
X145411523Y-118579848D01*
X145606610Y-118493757D01*
X145783992Y-118361941D01*
X145840639Y-118306319D01*
X145987360Y-118119944D01*
X146094687Y-117908851D01*
X146163295Y-117670971D01*
X146193857Y-117404232D01*
X146193859Y-117219936D01*
X146190361Y-117112948D01*
X146188791Y-117026841D01*
X146189249Y-116971612D01*
X146191182Y-116956374D01*
X146205389Y-116976282D01*
G37*
G36*
X146387235Y-115522677D02*
G01*
X146453575Y-115555202D01*
X146487444Y-115575704D01*
X146575824Y-115652834D01*
X146651780Y-115755084D01*
X146657844Y-115765713D01*
X146690000Y-115828198D01*
X146710267Y-115884608D01*
X146721337Y-115949386D01*
X146725903Y-116036979D01*
X146726681Y-116135042D01*
X146725477Y-116251379D01*
X146720004Y-116333298D01*
X146707469Y-116395395D01*
X146685081Y-116452264D01*
X146655040Y-116509522D01*
X146553813Y-116657658D01*
X146432963Y-116777893D01*
X146300023Y-116865364D01*
X146162530Y-116915208D01*
X146028017Y-116922562D01*
X146017277Y-116921120D01*
X145933858Y-116903779D01*
X145899058Y-116884291D01*
X145913006Y-116863008D01*
X145975833Y-116840284D01*
X145986572Y-116837500D01*
X146127768Y-116778368D01*
X146259938Y-116678482D01*
X146374825Y-116546119D01*
X146464174Y-116389553D01*
X146485328Y-116337580D01*
X146505372Y-116258286D01*
X146520011Y-116152955D01*
X146525970Y-116049231D01*
X146523809Y-115940377D01*
X146511682Y-115859597D01*
X146485421Y-115786275D01*
X146464022Y-115742764D01*
X146418029Y-115662729D01*
X146370786Y-115592886D01*
X146347881Y-115565013D01*
X146314556Y-115526870D01*
X146314818Y-115512138D01*
X146340799Y-115509849D01*
X146387235Y-115522677D01*
G37*
G36*
X140174626Y-110351793D02*
G01*
X140303129Y-110371425D01*
X140396256Y-110395463D01*
X140481152Y-110421306D01*
X140523785Y-110437002D01*
X140553659Y-110451367D01*
X140559514Y-110461644D01*
X140535363Y-110469574D01*
X140475222Y-110476900D01*
X140373106Y-110485364D01*
X140352163Y-110486963D01*
X140040553Y-110528184D01*
X139762712Y-110602728D01*
X139515123Y-110712072D01*
X139294267Y-110857696D01*
X139138943Y-110996763D01*
X138958124Y-111212493D01*
X138821668Y-111447326D01*
X138729890Y-111698816D01*
X138683106Y-111964519D01*
X138681633Y-112241990D01*
X138725786Y-112528784D01*
X138815880Y-112822455D01*
X138882649Y-112980667D01*
X138920538Y-113065888D01*
X138947314Y-113132401D01*
X138958661Y-113169231D01*
X138958301Y-113172985D01*
X138938814Y-113160426D01*
X138894268Y-113119202D01*
X138832630Y-113056889D01*
X138800318Y-113022786D01*
X138664459Y-112850665D01*
X138547160Y-112649918D01*
X138457846Y-112438586D01*
X138415275Y-112285814D01*
X138381288Y-112009786D01*
X138393699Y-111739672D01*
X138449894Y-111479976D01*
X138547256Y-111235205D01*
X138683169Y-111009862D01*
X138855018Y-110808453D01*
X139060186Y-110635483D01*
X139296059Y-110495457D01*
X139504159Y-110410498D01*
X139649182Y-110375097D01*
X139821908Y-110352894D01*
X140003377Y-110344817D01*
X140174626Y-110351793D01*
G37*
G36*
X146706983Y-112923503D02*
G01*
X146825850Y-112940871D01*
X146980957Y-112968743D01*
X147177835Y-113007593D01*
X147192511Y-113010570D01*
X147327997Y-113037854D01*
X147506364Y-113073387D01*
X147722342Y-113116138D01*
X147970664Y-113165072D01*
X148246062Y-113219157D01*
X148543268Y-113277360D01*
X148857013Y-113338649D01*
X149182029Y-113401990D01*
X149513049Y-113466351D01*
X149844804Y-113530698D01*
X149896161Y-113540645D01*
X149987163Y-113559200D01*
X150055228Y-113574872D01*
X150089748Y-113585142D01*
X150091852Y-113587117D01*
X150066928Y-113585673D01*
X149997112Y-113579219D01*
X149886244Y-113568161D01*
X149738166Y-113552905D01*
X149556720Y-113533856D01*
X149345747Y-113511422D01*
X149109088Y-113486006D01*
X148850586Y-113458016D01*
X148574082Y-113427858D01*
X148308341Y-113398682D01*
X147956285Y-113359725D01*
X147650151Y-113325418D01*
X147387082Y-113295391D01*
X147164224Y-113269277D01*
X146978720Y-113246705D01*
X146827715Y-113227307D01*
X146708353Y-113210714D01*
X146617778Y-113196558D01*
X146553135Y-113184469D01*
X146511568Y-113174078D01*
X146490221Y-113165016D01*
X146488375Y-113163561D01*
X146452750Y-113102187D01*
X146448123Y-113026045D01*
X146475063Y-112958813D01*
X146483258Y-112949535D01*
X146512492Y-112929653D01*
X146555835Y-112918370D01*
X146618822Y-112916161D01*
X146706983Y-112923503D01*
G37*
G36*
X142546898Y-108868455D02*
G01*
X142805588Y-108916956D01*
X143047205Y-109006544D01*
X143267654Y-109132858D01*
X143462843Y-109291542D01*
X143628677Y-109478234D01*
X143761063Y-109688578D01*
X143855908Y-109918212D01*
X143909118Y-110162779D01*
X143919441Y-110330023D01*
X143916238Y-110435000D01*
X143907723Y-110502556D01*
X143895537Y-110530016D01*
X143881319Y-110514705D01*
X143866710Y-110453948D01*
X143862092Y-110423537D01*
X143803760Y-110173701D01*
X143701510Y-109939849D01*
X143559017Y-109726164D01*
X143379957Y-109536827D01*
X143168003Y-109376018D01*
X142926832Y-109247920D01*
X142779383Y-109191699D01*
X142679551Y-109161304D01*
X142590148Y-109141910D01*
X142494197Y-109131192D01*
X142374718Y-109126830D01*
X142301295Y-109126306D01*
X142111927Y-109131883D01*
X141953003Y-109152076D01*
X141807040Y-109191126D01*
X141656559Y-109253271D01*
X141544903Y-109309728D01*
X141322018Y-109444344D01*
X141130235Y-109597229D01*
X140958259Y-109778719D01*
X140799684Y-109991878D01*
X140748573Y-110061078D01*
X140718268Y-110087321D01*
X140709047Y-110072183D01*
X140721192Y-110017241D01*
X140754982Y-109924069D01*
X140777834Y-109868893D01*
X140907968Y-109624128D01*
X141074692Y-109408695D01*
X141273537Y-109225123D01*
X141500034Y-109075939D01*
X141749712Y-108963671D01*
X142018104Y-108890845D01*
X142300739Y-108859990D01*
X142546898Y-108868455D01*
G37*
G36*
X150113107Y-114636908D02*
G01*
X150110078Y-114638848D01*
X150081490Y-114645890D01*
X150009875Y-114661208D01*
X149900352Y-114683769D01*
X149758037Y-114712542D01*
X149588049Y-114746497D01*
X149395504Y-114784603D01*
X149185522Y-114825829D01*
X149068090Y-114848751D01*
X148813086Y-114898442D01*
X148540518Y-114951581D01*
X148261480Y-115006005D01*
X147987064Y-115059549D01*
X147728363Y-115110048D01*
X147496469Y-115155339D01*
X147315938Y-115190624D01*
X147099098Y-115232712D01*
X146925094Y-115265375D01*
X146788720Y-115289006D01*
X146684771Y-115303997D01*
X146608040Y-115310741D01*
X146553322Y-115309629D01*
X146515410Y-115301055D01*
X146489099Y-115285411D01*
X146469183Y-115263089D01*
X146463494Y-115254876D01*
X146443860Y-115188255D01*
X146456282Y-115115573D01*
X146496335Y-115060738D01*
X146499895Y-115058292D01*
X146531432Y-115048318D01*
X146601209Y-115035019D01*
X146710551Y-115018227D01*
X146860785Y-114997775D01*
X147053240Y-114973494D01*
X147289242Y-114945218D01*
X147570118Y-114912779D01*
X147897195Y-114876009D01*
X148259017Y-114836139D01*
X148545120Y-114804836D01*
X148818581Y-114774863D01*
X149075233Y-114746679D01*
X149310905Y-114720745D01*
X149521430Y-114697521D01*
X149702638Y-114677468D01*
X149850360Y-114661045D01*
X149960428Y-114648713D01*
X150028672Y-114640932D01*
X150048785Y-114638513D01*
X150098136Y-114633964D01*
X150113107Y-114636908D01*
G37*
G36*
X140505399Y-116821515D02*
G01*
X140478833Y-116865696D01*
X140427367Y-116942441D01*
X140404695Y-116975756D01*
X140284409Y-117178477D01*
X140204762Y-117378338D01*
X140160582Y-117589959D01*
X140150874Y-117693248D01*
X140158579Y-117928957D01*
X140210885Y-118148114D01*
X140305157Y-118347324D01*
X140438758Y-118523195D01*
X140609054Y-118672330D01*
X140813408Y-118791337D01*
X141049186Y-118876820D01*
X141075120Y-118883577D01*
X141243790Y-118910207D01*
X141438929Y-118915411D01*
X141643367Y-118900125D01*
X141839934Y-118865288D01*
X141944741Y-118836112D01*
X142034790Y-118808148D01*
X142105192Y-118788792D01*
X142144551Y-118781082D01*
X142148885Y-118781700D01*
X142136729Y-118800442D01*
X142093191Y-118837977D01*
X142028406Y-118887008D01*
X141952511Y-118940236D01*
X141875639Y-118990365D01*
X141807928Y-119030098D01*
X141793331Y-119037695D01*
X141635767Y-119098591D01*
X141449743Y-119141006D01*
X141253595Y-119161106D01*
X141198013Y-119162213D01*
X140943642Y-119140545D01*
X140708296Y-119078301D01*
X140495109Y-118979623D01*
X140307218Y-118848653D01*
X140147759Y-118689532D01*
X140019868Y-118506401D01*
X139926682Y-118303402D01*
X139871337Y-118084677D01*
X139856968Y-117854366D01*
X139886712Y-117616613D01*
X139924319Y-117480214D01*
X139993964Y-117321458D01*
X140093297Y-117163592D01*
X140212434Y-117018811D01*
X140341489Y-116899304D01*
X140456028Y-116824413D01*
X140491963Y-116806869D01*
X140509097Y-116803905D01*
X140505399Y-116821515D01*
G37*
G36*
X138452644Y-112767005D02*
G01*
X138408195Y-112796032D01*
X138353997Y-112827114D01*
X138093428Y-112996982D01*
X137874243Y-113192024D01*
X137694370Y-113414706D01*
X137551736Y-113667490D01*
X137466863Y-113881560D01*
X137444418Y-113954227D01*
X137428739Y-114023228D01*
X137418676Y-114099784D01*
X137413078Y-114195119D01*
X137410797Y-114320453D01*
X137410556Y-114431085D01*
X137411257Y-114578487D01*
X137413935Y-114688543D01*
X137420089Y-114772938D01*
X137431220Y-114843358D01*
X137448827Y-114911489D01*
X137474411Y-114989017D01*
X137486607Y-115023573D01*
X137607179Y-115291222D01*
X137770462Y-115541546D01*
X137971341Y-115768045D01*
X138204701Y-115964217D01*
X138253598Y-115998412D01*
X138400225Y-116091928D01*
X138540445Y-116167084D01*
X138688890Y-116230291D01*
X138860192Y-116287958D01*
X139015966Y-116332373D01*
X139224364Y-116388653D01*
X138976983Y-116390564D01*
X138710197Y-116375087D01*
X138463953Y-116321980D01*
X138223602Y-116227759D01*
X138161255Y-116196612D01*
X137905511Y-116038106D01*
X137680696Y-115847361D01*
X137488705Y-115629223D01*
X137331434Y-115388542D01*
X137210777Y-115130166D01*
X137128632Y-114858942D01*
X137086893Y-114579720D01*
X137087456Y-114297348D01*
X137132217Y-114016674D01*
X137212092Y-113768949D01*
X137326607Y-113540632D01*
X137474537Y-113330241D01*
X137649094Y-113144196D01*
X137843492Y-112988917D01*
X138050942Y-112870825D01*
X138231410Y-112804766D01*
X138351281Y-112773103D01*
X138426541Y-112755969D01*
X138459544Y-112753793D01*
X138452644Y-112767005D01*
G37*
G36*
X145138534Y-111599836D02*
G01*
X145199772Y-111638935D01*
X145238260Y-111666706D01*
X145337073Y-111758797D01*
X145432986Y-111881471D01*
X145513505Y-112017223D01*
X145552824Y-112107346D01*
X145573093Y-112183919D01*
X145591153Y-112288346D01*
X145603427Y-112399469D01*
X145604298Y-112411614D01*
X145597452Y-112640147D01*
X145545871Y-112849447D01*
X145450821Y-113037253D01*
X145313573Y-113201302D01*
X145135394Y-113339331D01*
X145059499Y-113383273D01*
X144985745Y-113420555D01*
X144923823Y-113443781D01*
X144857702Y-113456266D01*
X144771353Y-113461325D01*
X144677541Y-113462252D01*
X144442688Y-113462648D01*
X144518178Y-113622011D01*
X144549871Y-113691677D01*
X144571185Y-113750502D01*
X144584170Y-113811138D01*
X144590876Y-113886234D01*
X144593353Y-113988442D01*
X144593669Y-114087841D01*
X144592553Y-114222918D01*
X144588187Y-114320823D01*
X144579047Y-114393390D01*
X144563608Y-114452453D01*
X144540346Y-114509844D01*
X144538889Y-114513014D01*
X144484110Y-114631719D01*
X144604069Y-114615220D01*
X144771067Y-114615488D01*
X144945532Y-114657008D01*
X145119006Y-114734657D01*
X145283027Y-114843312D01*
X145429136Y-114977850D01*
X145548872Y-115133148D01*
X145595521Y-115215607D01*
X145673595Y-115412022D01*
X145714338Y-115608944D01*
X145718550Y-115799604D01*
X145687031Y-115977234D01*
X145620582Y-116135064D01*
X145520003Y-116266328D01*
X145465684Y-116313510D01*
X145399006Y-116359228D01*
X145356151Y-116378771D01*
X145342157Y-116371709D01*
X145362062Y-116337614D01*
X145376216Y-116321143D01*
X145412979Y-116260926D01*
X145450053Y-116168540D01*
X145482428Y-116060559D01*
X145505093Y-115953560D01*
X145513071Y-115868318D01*
X145492128Y-115684862D01*
X145433281Y-115493079D01*
X145342499Y-115306538D01*
X145225753Y-115138805D01*
X145160635Y-115067351D01*
X144989337Y-114925784D01*
X144806938Y-114831599D01*
X144612006Y-114784104D01*
X144563749Y-114779613D01*
X144470353Y-114774770D01*
X144409793Y-114777983D01*
X144366047Y-114793150D01*
X144323090Y-114824169D01*
X144300533Y-114843650D01*
X144223742Y-114896346D01*
X144128800Y-114942451D01*
X144086959Y-114957156D01*
X143994045Y-114979623D01*
X143908630Y-114991575D01*
X143837431Y-114993962D01*
X143787163Y-114987733D01*
X143764544Y-114973835D01*
X143776290Y-114953219D01*
X143829118Y-114926834D01*
X143841065Y-114922414D01*
X144011836Y-114836677D01*
X144155530Y-114715540D01*
X144269380Y-114566187D01*
X144350619Y-114395805D01*
X144396478Y-114211577D01*
X144404191Y-114020690D01*
X144370989Y-113830327D01*
X144316092Y-113689215D01*
X144193193Y-113492588D01*
X144036320Y-113327029D01*
X143884108Y-113217687D01*
X143738446Y-113131664D01*
X143840939Y-113131664D01*
X143977221Y-113151065D01*
X144123256Y-113204716D01*
X144262021Y-113285786D01*
X144302825Y-113316989D01*
X144368528Y-113368056D01*
X144418469Y-113393360D01*
X144473870Y-113399336D01*
X144552767Y-113392766D01*
X144756631Y-113355076D01*
X144926938Y-113287781D01*
X145072220Y-113186427D01*
X145190565Y-113059970D01*
X145299736Y-112884911D01*
X145372179Y-112688478D01*
X145408022Y-112479594D01*
X145407397Y-112267181D01*
X145370431Y-112060161D01*
X145297255Y-111867457D01*
X145187997Y-111697992D01*
X145170513Y-111677406D01*
X145123512Y-111619133D01*
X145112983Y-111593256D01*
X145138534Y-111599836D01*
G37*
D15*
%TO.C,R4*%
X199272936Y-51475000D02*
X199727064Y-51475000D01*
X199272936Y-52945000D02*
X199727064Y-52945000D01*
D10*
%TO.C,NX1*%
X102955000Y-56730000D02*
X102955000Y-77050000D01*
X123275000Y-56730000D02*
X123275000Y-77050000D01*
X102955000Y-56730000D02*
G75*
G02*
X123275000Y-56730000I10160000J-10159999D01*
G01*
X123275000Y-77050000D02*
G75*
G02*
X102955000Y-77050000I-10160000J10159999D01*
G01*
%TO.C,NX5*%
X204840000Y-56730000D02*
X204840000Y-77050000D01*
X225160000Y-56730000D02*
X225160000Y-77050000D01*
X204840000Y-56730000D02*
G75*
G02*
X225160000Y-56730000I10160000J-10159999D01*
G01*
X225160000Y-77050000D02*
G75*
G02*
X204840000Y-77050000I-10160000J10159999D01*
G01*
%TO.C,NX6*%
X226310000Y-56730000D02*
X226310000Y-77050000D01*
X246630000Y-56730000D02*
X246630000Y-77050000D01*
X226310000Y-56730000D02*
G75*
G02*
X246630000Y-56730000I10160000J-10159999D01*
G01*
X246630000Y-77050000D02*
G75*
G02*
X226310000Y-77050000I-10160000J10159999D01*
G01*
%TO.C,NX4*%
X175310000Y-56730000D02*
X175310000Y-77050000D01*
X195630000Y-56730000D02*
X195630000Y-77050000D01*
X175310000Y-56730000D02*
G75*
G02*
X195630000Y-56730000I10160000J-10159999D01*
G01*
X195630000Y-77050000D02*
G75*
G02*
X175310000Y-77050000I-10160000J10159999D01*
G01*
D15*
%TO.C,R5*%
X224382936Y-51365000D02*
X224837064Y-51365000D01*
X224382936Y-52835000D02*
X224837064Y-52835000D01*
%TD*%
D18*
%TO.C,NX3*%
X164000000Y-67000000D03*
D19*
X168000000Y-59000000D03*
X169525000Y-62500000D03*
X169525000Y-67000000D03*
X169525000Y-71500000D03*
X168000000Y-75000000D03*
X164000000Y-76000000D03*
X160000000Y-75000000D03*
X158475000Y-71500000D03*
X158475000Y-67000000D03*
X158475000Y-62500000D03*
X160000000Y-59000000D03*
X164000000Y-58000000D03*
%TD*%
D18*
%TO.C,NX2*%
X134585000Y-67000000D03*
D19*
X138585000Y-59000000D03*
X140110000Y-62500000D03*
X140110000Y-67000000D03*
X140110000Y-71500000D03*
X138585000Y-75000000D03*
X134585000Y-76000000D03*
X130585000Y-75000000D03*
X129060000Y-71500000D03*
X129060000Y-67000000D03*
X129060000Y-62500000D03*
X130585000Y-59000000D03*
X134585000Y-58000000D03*
%TD*%
D18*
%TO.C,NX1*%
X113115000Y-67000000D03*
D19*
X117115000Y-59000000D03*
X118640000Y-62500000D03*
X118640000Y-67000000D03*
X118640000Y-71500000D03*
X117115000Y-75000000D03*
X113115000Y-76000000D03*
X109115000Y-75000000D03*
X107590000Y-71500000D03*
X107590000Y-67000000D03*
X107590000Y-62500000D03*
X109115000Y-59000000D03*
X113115000Y-58000000D03*
%TD*%
D18*
%TO.C,NX5*%
X215000000Y-67000000D03*
D19*
X219000000Y-59000000D03*
X220525000Y-62500000D03*
X220525000Y-67000000D03*
X220525000Y-71500000D03*
X219000000Y-75000000D03*
X215000000Y-76000000D03*
X211000000Y-75000000D03*
X209475000Y-71500000D03*
X209475000Y-67000000D03*
X209475000Y-62500000D03*
X211000000Y-59000000D03*
X215000000Y-58000000D03*
%TD*%
D18*
%TO.C,NX6*%
X236470000Y-67000000D03*
D19*
X240470000Y-59000000D03*
X241995000Y-62500000D03*
X241995000Y-67000000D03*
X241995000Y-71500000D03*
X240470000Y-75000000D03*
X236470000Y-76000000D03*
X232470000Y-75000000D03*
X230945000Y-71500000D03*
X230945000Y-67000000D03*
X230945000Y-62500000D03*
X232470000Y-59000000D03*
X236470000Y-58000000D03*
%TD*%
D18*
%TO.C,NX4*%
X185470000Y-67000000D03*
D19*
X189470000Y-59000000D03*
X190995000Y-62500000D03*
X190995000Y-67000000D03*
X190995000Y-71500000D03*
X189470000Y-75000000D03*
X185470000Y-76000000D03*
X181470000Y-75000000D03*
X179945000Y-71500000D03*
X179945000Y-67000000D03*
X179945000Y-62500000D03*
X181470000Y-59000000D03*
X185470000Y-58000000D03*
%TD*%
M02*
