ISO-10303-21;
HEADER;
/* Generated by software containing ST-Developer
 * from STEP Tools, Inc. (www.steptools.com) 
 */

FILE_DESCRIPTION(
/* description */ (''),
/* implementation_level */ '2;1');

FILE_NAME(
/* name */ 'deloreanCase.stp',
/* time_stamp */ '2025-06-29T12:27:39-04:00',
/* author */ ('megha'),
/* organization */ (''),
/* preprocessor_version */ 'ST-DEVELOPER v20',
/* originating_system */ 'Autodesk Inventor 2024',
/* authorisation */ '');

FILE_SCHEMA (('AUTOMOTIVE_DESIGN { 1 0 10303 214 3 1 1 }'));
ENDSEC;

DATA;
#10=MECHANICAL_DESIGN_GEOMETRIC_PRESENTATION_REPRESENTATION('',(#13),#1447);
#11=SHAPE_REPRESENTATION_RELATIONSHIP('SRR','None',#1458,#12);
#12=ADVANCED_BREP_SHAPE_REPRESENTATION('',(#14),#1446);
#13=STYLED_ITEM('',(#1467),#14);
#14=MANIFOLD_SOLID_BREP('Solid2',#895);
#15=CYLINDRICAL_SURFACE('',#920,0.078740157480315);
#16=CYLINDRICAL_SURFACE('',#924,0.078740157480315);
#17=CYLINDRICAL_SURFACE('',#928,0.078740157480315);
#18=CYLINDRICAL_SURFACE('',#932,0.078740157480315);
#19=CYLINDRICAL_SURFACE('',#936,0.1875);
#20=CYLINDRICAL_SURFACE('',#941,0.1875);
#21=FACE_BOUND('',#70,.T.);
#22=FACE_BOUND('',#81,.T.);
#23=FACE_BOUND('',#82,.T.);
#24=FACE_BOUND('',#83,.T.);
#25=FACE_BOUND('',#84,.T.);
#26=FACE_BOUND('',#94,.T.);
#27=FACE_BOUND('',#115,.T.);
#28=FACE_OUTER_BOUND('',#69,.T.);
#29=FACE_OUTER_BOUND('',#71,.T.);
#30=FACE_OUTER_BOUND('',#72,.T.);
#31=FACE_OUTER_BOUND('',#73,.T.);
#32=FACE_OUTER_BOUND('',#74,.T.);
#33=FACE_OUTER_BOUND('',#75,.T.);
#34=FACE_OUTER_BOUND('',#76,.T.);
#35=FACE_OUTER_BOUND('',#77,.T.);
#36=FACE_OUTER_BOUND('',#78,.T.);
#37=FACE_OUTER_BOUND('',#79,.T.);
#38=FACE_OUTER_BOUND('',#80,.T.);
#39=FACE_OUTER_BOUND('',#85,.T.);
#40=FACE_OUTER_BOUND('',#86,.T.);
#41=FACE_OUTER_BOUND('',#87,.T.);
#42=FACE_OUTER_BOUND('',#88,.T.);
#43=FACE_OUTER_BOUND('',#89,.T.);
#44=FACE_OUTER_BOUND('',#90,.T.);
#45=FACE_OUTER_BOUND('',#91,.T.);
#46=FACE_OUTER_BOUND('',#92,.T.);
#47=FACE_OUTER_BOUND('',#93,.T.);
#48=FACE_OUTER_BOUND('',#95,.T.);
#49=FACE_OUTER_BOUND('',#96,.T.);
#50=FACE_OUTER_BOUND('',#97,.T.);
#51=FACE_OUTER_BOUND('',#98,.T.);
#52=FACE_OUTER_BOUND('',#99,.T.);
#53=FACE_OUTER_BOUND('',#100,.T.);
#54=FACE_OUTER_BOUND('',#101,.T.);
#55=FACE_OUTER_BOUND('',#102,.T.);
#56=FACE_OUTER_BOUND('',#103,.T.);
#57=FACE_OUTER_BOUND('',#104,.T.);
#58=FACE_OUTER_BOUND('',#105,.T.);
#59=FACE_OUTER_BOUND('',#106,.T.);
#60=FACE_OUTER_BOUND('',#107,.T.);
#61=FACE_OUTER_BOUND('',#108,.T.);
#62=FACE_OUTER_BOUND('',#109,.T.);
#63=FACE_OUTER_BOUND('',#110,.T.);
#64=FACE_OUTER_BOUND('',#111,.T.);
#65=FACE_OUTER_BOUND('',#112,.T.);
#66=FACE_OUTER_BOUND('',#113,.T.);
#67=FACE_OUTER_BOUND('',#114,.T.);
#68=FACE_OUTER_BOUND('',#116,.T.);
#69=EDGE_LOOP('',(#567,#568,#569,#570,#571,#572,#573,#574,#575,#576));
#70=EDGE_LOOP('',(#577,#578,#579,#580));
#71=EDGE_LOOP('',(#581,#582,#583,#584));
#72=EDGE_LOOP('',(#585,#586,#587,#588));
#73=EDGE_LOOP('',(#589,#590,#591,#592));
#74=EDGE_LOOP('',(#593,#594,#595,#596));
#75=EDGE_LOOP('',(#597,#598,#599,#600));
#76=EDGE_LOOP('',(#601,#602,#603,#604));
#77=EDGE_LOOP('',(#605,#606,#607,#608));
#78=EDGE_LOOP('',(#609,#610,#611,#612));
#79=EDGE_LOOP('',(#613,#614,#615,#616));
#80=EDGE_LOOP('',(#617,#618,#619,#620,#621,#622,#623,#624,#625,#626));
#81=EDGE_LOOP('',(#627,#628,#629,#630));
#82=EDGE_LOOP('',(#631,#632,#633,#634,#635,#636,#637,#638,#639,#640,#641,
#642));
#83=EDGE_LOOP('',(#643,#644,#645,#646));
#84=EDGE_LOOP('',(#647,#648,#649,#650));
#85=EDGE_LOOP('',(#651,#652,#653,#654));
#86=EDGE_LOOP('',(#655,#656,#657,#658));
#87=EDGE_LOOP('',(#659,#660,#661,#662));
#88=EDGE_LOOP('',(#663,#664,#665,#666));
#89=EDGE_LOOP('',(#667,#668,#669,#670));
#90=EDGE_LOOP('',(#671,#672,#673,#674));
#91=EDGE_LOOP('',(#675,#676,#677,#678));
#92=EDGE_LOOP('',(#679,#680,#681,#682));
#93=EDGE_LOOP('',(#683,#684,#685,#686,#687,#688,#689,#690));
#94=EDGE_LOOP('',(#691,#692,#693,#694,#695,#696,#697,#698));
#95=EDGE_LOOP('',(#699,#700,#701,#702));
#96=EDGE_LOOP('',(#703,#704,#705,#706));
#97=EDGE_LOOP('',(#707,#708,#709,#710));
#98=EDGE_LOOP('',(#711,#712,#713,#714));
#99=EDGE_LOOP('',(#715,#716,#717,#718));
#100=EDGE_LOOP('',(#719,#720,#721,#722));
#101=EDGE_LOOP('',(#723,#724,#725,#726,#727,#728,#729,#730,#731,#732,#733,
#734,#735,#736,#737,#738,#739,#740,#741,#742));
#102=EDGE_LOOP('',(#743,#744,#745,#746));
#103=EDGE_LOOP('',(#747,#748,#749,#750));
#104=EDGE_LOOP('',(#751,#752,#753,#754));
#105=EDGE_LOOP('',(#755,#756,#757,#758));
#106=EDGE_LOOP('',(#759,#760,#761,#762,#763,#764,#765,#766,#767,#768,#769,
#770));
#107=EDGE_LOOP('',(#771,#772,#773,#774));
#108=EDGE_LOOP('',(#775,#776,#777,#778));
#109=EDGE_LOOP('',(#779,#780,#781,#782,#783,#784,#785,#786));
#110=EDGE_LOOP('',(#787,#788,#789,#790));
#111=EDGE_LOOP('',(#791,#792,#793,#794));
#112=EDGE_LOOP('',(#795,#796,#797,#798));
#113=EDGE_LOOP('',(#799,#800,#801,#802));
#114=EDGE_LOOP('',(#803,#804,#805,#806));
#115=EDGE_LOOP('',(#807,#808,#809,#810,#811,#812,#813,#814));
#116=EDGE_LOOP('',(#815,#816,#817,#818));
#117=CIRCLE('',#918,0.1875);
#118=CIRCLE('',#919,0.1875);
#119=CIRCLE('',#921,0.078740157480315);
#120=CIRCLE('',#922,0.078740157480315);
#121=CIRCLE('',#925,0.078740157480315);
#122=CIRCLE('',#926,0.078740157480315);
#123=CIRCLE('',#929,0.078740157480315);
#124=CIRCLE('',#930,0.078740157480315);
#125=CIRCLE('',#933,0.078740157480315);
#126=CIRCLE('',#934,0.078740157480315);
#127=CIRCLE('',#937,0.1875);
#128=CIRCLE('',#939,0.1875);
#129=LINE('',#1196,#243);
#130=LINE('',#1200,#244);
#131=LINE('',#1202,#245);
#132=LINE('',#1204,#246);
#133=LINE('',#1206,#247);
#134=LINE('',#1208,#248);
#135=LINE('',#1210,#249);
#136=LINE('',#1212,#250);
#137=LINE('',#1216,#251);
#138=LINE('',#1218,#252);
#139=LINE('',#1220,#253);
#140=LINE('',#1221,#254);
#141=LINE('',#1227,#255);
#142=LINE('',#1230,#256);
#143=LINE('',#1233,#257);
#144=LINE('',#1235,#258);
#145=LINE('',#1236,#259);
#146=LINE('',#1241,#260);
#147=LINE('',#1245,#261);
#148=LINE('',#1247,#262);
#149=LINE('',#1248,#263);
#150=LINE('',#1253,#264);
#151=LINE('',#1257,#265);
#152=LINE('',#1259,#266);
#153=LINE('',#1260,#267);
#154=LINE('',#1265,#268);
#155=LINE('',#1268,#269);
#156=LINE('',#1269,#270);
#157=LINE('',#1272,#271);
#158=LINE('',#1275,#272);
#159=LINE('',#1278,#273);
#160=LINE('',#1282,#274);
#161=LINE('',#1284,#275);
#162=LINE('',#1286,#276);
#163=LINE('',#1288,#277);
#164=LINE('',#1290,#278);
#165=LINE('',#1292,#279);
#166=LINE('',#1293,#280);
#167=LINE('',#1296,#281);
#168=LINE('',#1298,#282);
#169=LINE('',#1300,#283);
#170=LINE('',#1301,#284);
#171=LINE('',#1304,#285);
#172=LINE('',#1306,#286);
#173=LINE('',#1308,#287);
#174=LINE('',#1310,#288);
#175=LINE('',#1312,#289);
#176=LINE('',#1314,#290);
#177=LINE('',#1316,#291);
#178=LINE('',#1318,#292);
#179=LINE('',#1320,#293);
#180=LINE('',#1322,#294);
#181=LINE('',#1324,#295);
#182=LINE('',#1325,#296);
#183=LINE('',#1328,#297);
#184=LINE('',#1330,#298);
#185=LINE('',#1332,#299);
#186=LINE('',#1333,#300);
#187=LINE('',#1336,#301);
#188=LINE('',#1338,#302);
#189=LINE('',#1340,#303);
#190=LINE('',#1341,#304);
#191=LINE('',#1343,#305);
#192=LINE('',#1345,#306);
#193=LINE('',#1348,#307);
#194=LINE('',#1350,#308);
#195=LINE('',#1351,#309);
#196=LINE('',#1354,#310);
#197=LINE('',#1356,#311);
#198=LINE('',#1357,#312);
#199=LINE('',#1360,#313);
#200=LINE('',#1362,#314);
#201=LINE('',#1363,#315);
#202=LINE('',#1366,#316);
#203=LINE('',#1368,#317);
#204=LINE('',#1369,#318);
#205=LINE('',#1372,#319);
#206=LINE('',#1374,#320);
#207=LINE('',#1375,#321);
#208=LINE('',#1378,#322);
#209=LINE('',#1380,#323);
#210=LINE('',#1381,#324);
#211=LINE('',#1383,#325);
#212=LINE('',#1384,#326);
#213=LINE('',#1385,#327);
#214=LINE('',#1388,#328);
#215=LINE('',#1389,#329);
#216=LINE('',#1392,#330);
#217=LINE('',#1393,#331);
#218=LINE('',#1396,#332);
#219=LINE('',#1397,#333);
#220=LINE('',#1400,#334);
#221=LINE('',#1401,#335);
#222=LINE('',#1404,#336);
#223=LINE('',#1405,#337);
#224=LINE('',#1408,#338);
#225=LINE('',#1409,#339);
#226=LINE('',#1412,#340);
#227=LINE('',#1413,#341);
#228=LINE('',#1415,#342);
#229=LINE('',#1416,#343);
#230=LINE('',#1417,#344);
#231=LINE('',#1418,#345);
#232=LINE('',#1419,#346);
#233=LINE('',#1421,#347);
#234=LINE('',#1424,#348);
#235=LINE('',#1427,#349);
#236=LINE('',#1429,#350);
#237=LINE('',#1430,#351);
#238=LINE('',#1432,#352);
#239=LINE('',#1435,#353);
#240=LINE('',#1437,#354);
#241=LINE('',#1439,#355);
#242=LINE('',#1441,#356);
#243=VECTOR('',#974,0.393700787401575);
#244=VECTOR('',#977,0.393700787401575);
#245=VECTOR('',#978,0.393700787401575);
#246=VECTOR('',#979,0.393700787401575);
#247=VECTOR('',#980,0.393700787401575);
#248=VECTOR('',#981,0.393700787401575);
#249=VECTOR('',#982,0.393700787401575);
#250=VECTOR('',#983,0.393700787401575);
#251=VECTOR('',#986,0.393700787401575);
#252=VECTOR('',#987,0.393700787401575);
#253=VECTOR('',#988,0.393700787401575);
#254=VECTOR('',#989,0.393700787401575);
#255=VECTOR('',#994,0.393700787401575);
#256=VECTOR('',#997,0.393700787401575);
#257=VECTOR('',#1000,0.393700787401575);
#258=VECTOR('',#1001,0.393700787401575);
#259=VECTOR('',#1002,0.393700787401575);
#260=VECTOR('',#1007,0.393700787401575);
#261=VECTOR('',#1012,0.393700787401575);
#262=VECTOR('',#1013,0.393700787401575);
#263=VECTOR('',#1014,0.393700787401575);
#264=VECTOR('',#1019,0.393700787401575);
#265=VECTOR('',#1024,0.393700787401575);
#266=VECTOR('',#1025,0.393700787401575);
#267=VECTOR('',#1026,0.393700787401575);
#268=VECTOR('',#1031,0.393700787401575);
#269=VECTOR('',#1036,0.393700787401575);
#270=VECTOR('',#1037,0.393700787401575);
#271=VECTOR('',#1040,0.393700787401575);
#272=VECTOR('',#1043,0.393700787401575);
#273=VECTOR('',#1046,0.393700787401575);
#274=VECTOR('',#1049,0.393700787401575);
#275=VECTOR('',#1050,0.393700787401575);
#276=VECTOR('',#1051,0.393700787401575);
#277=VECTOR('',#1052,0.393700787401575);
#278=VECTOR('',#1053,0.393700787401575);
#279=VECTOR('',#1054,0.393700787401575);
#280=VECTOR('',#1055,0.393700787401575);
#281=VECTOR('',#1056,0.393700787401575);
#282=VECTOR('',#1057,0.393700787401575);
#283=VECTOR('',#1058,0.393700787401575);
#284=VECTOR('',#1059,0.393700787401575);
#285=VECTOR('',#1060,0.393700787401575);
#286=VECTOR('',#1061,0.393700787401575);
#287=VECTOR('',#1062,0.393700787401575);
#288=VECTOR('',#1063,0.393700787401575);
#289=VECTOR('',#1064,0.393700787401575);
#290=VECTOR('',#1065,0.393700787401575);
#291=VECTOR('',#1066,0.393700787401575);
#292=VECTOR('',#1067,0.393700787401575);
#293=VECTOR('',#1068,0.393700787401575);
#294=VECTOR('',#1069,0.393700787401575);
#295=VECTOR('',#1070,0.393700787401575);
#296=VECTOR('',#1071,0.393700787401575);
#297=VECTOR('',#1072,0.393700787401575);
#298=VECTOR('',#1073,0.393700787401575);
#299=VECTOR('',#1074,0.393700787401575);
#300=VECTOR('',#1075,0.393700787401575);
#301=VECTOR('',#1076,0.393700787401575);
#302=VECTOR('',#1077,0.393700787401575);
#303=VECTOR('',#1078,0.393700787401575);
#304=VECTOR('',#1079,0.393700787401575);
#305=VECTOR('',#1082,0.393700787401575);
#306=VECTOR('',#1085,0.393700787401575);
#307=VECTOR('',#1088,0.393700787401575);
#308=VECTOR('',#1089,0.393700787401575);
#309=VECTOR('',#1090,0.393700787401575);
#310=VECTOR('',#1093,0.393700787401575);
#311=VECTOR('',#1094,0.393700787401575);
#312=VECTOR('',#1095,0.393700787401575);
#313=VECTOR('',#1098,0.393700787401575);
#314=VECTOR('',#1099,0.393700787401575);
#315=VECTOR('',#1100,0.393700787401575);
#316=VECTOR('',#1103,0.393700787401575);
#317=VECTOR('',#1104,0.393700787401575);
#318=VECTOR('',#1105,0.393700787401575);
#319=VECTOR('',#1108,0.393700787401575);
#320=VECTOR('',#1109,0.393700787401575);
#321=VECTOR('',#1110,0.393700787401575);
#322=VECTOR('',#1113,0.393700787401575);
#323=VECTOR('',#1114,0.393700787401575);
#324=VECTOR('',#1115,0.393700787401575);
#325=VECTOR('',#1118,0.393700787401575);
#326=VECTOR('',#1119,0.393700787401575);
#327=VECTOR('',#1120,0.393700787401575);
#328=VECTOR('',#1123,0.393700787401575);
#329=VECTOR('',#1124,0.393700787401575);
#330=VECTOR('',#1127,0.393700787401575);
#331=VECTOR('',#1128,0.393700787401575);
#332=VECTOR('',#1131,0.393700787401575);
#333=VECTOR('',#1132,0.393700787401575);
#334=VECTOR('',#1135,0.393700787401575);
#335=VECTOR('',#1136,0.393700787401575);
#336=VECTOR('',#1139,0.393700787401575);
#337=VECTOR('',#1140,0.393700787401575);
#338=VECTOR('',#1143,0.393700787401575);
#339=VECTOR('',#1144,0.393700787401575);
#340=VECTOR('',#1147,0.393700787401575);
#341=VECTOR('',#1148,0.393700787401575);
#342=VECTOR('',#1149,0.393700787401575);
#343=VECTOR('',#1150,0.393700787401575);
#344=VECTOR('',#1151,0.393700787401575);
#345=VECTOR('',#1152,0.393700787401575);
#346=VECTOR('',#1153,0.393700787401575);
#347=VECTOR('',#1156,0.393700787401575);
#348=VECTOR('',#1161,0.393700787401575);
#349=VECTOR('',#1166,0.393700787401575);
#350=VECTOR('',#1169,0.393700787401575);
#351=VECTOR('',#1170,0.393700787401575);
#352=VECTOR('',#1173,0.393700787401575);
#353=VECTOR('',#1178,0.393700787401575);
#354=VECTOR('',#1181,0.393700787401575);
#355=VECTOR('',#1184,0.393700787401575);
#356=VECTOR('',#1187,0.393700787401575);
#357=VERTEX_POINT('',#1194);
#358=VERTEX_POINT('',#1195);
#359=VERTEX_POINT('',#1197);
#360=VERTEX_POINT('',#1199);
#361=VERTEX_POINT('',#1201);
#362=VERTEX_POINT('',#1203);
#363=VERTEX_POINT('',#1205);
#364=VERTEX_POINT('',#1207);
#365=VERTEX_POINT('',#1209);
#366=VERTEX_POINT('',#1211);
#367=VERTEX_POINT('',#1214);
#368=VERTEX_POINT('',#1215);
#369=VERTEX_POINT('',#1217);
#370=VERTEX_POINT('',#1219);
#371=VERTEX_POINT('',#1223);
#372=VERTEX_POINT('',#1224);
#373=VERTEX_POINT('',#1226);
#374=VERTEX_POINT('',#1228);
#375=VERTEX_POINT('',#1232);
#376=VERTEX_POINT('',#1234);
#377=VERTEX_POINT('',#1238);
#378=VERTEX_POINT('',#1240);
#379=VERTEX_POINT('',#1244);
#380=VERTEX_POINT('',#1246);
#381=VERTEX_POINT('',#1250);
#382=VERTEX_POINT('',#1252);
#383=VERTEX_POINT('',#1256);
#384=VERTEX_POINT('',#1258);
#385=VERTEX_POINT('',#1262);
#386=VERTEX_POINT('',#1264);
#387=VERTEX_POINT('',#1271);
#388=VERTEX_POINT('',#1273);
#389=VERTEX_POINT('',#1277);
#390=VERTEX_POINT('',#1279);
#391=VERTEX_POINT('',#1281);
#392=VERTEX_POINT('',#1283);
#393=VERTEX_POINT('',#1285);
#394=VERTEX_POINT('',#1287);
#395=VERTEX_POINT('',#1289);
#396=VERTEX_POINT('',#1291);
#397=VERTEX_POINT('',#1294);
#398=VERTEX_POINT('',#1295);
#399=VERTEX_POINT('',#1297);
#400=VERTEX_POINT('',#1299);
#401=VERTEX_POINT('',#1302);
#402=VERTEX_POINT('',#1303);
#403=VERTEX_POINT('',#1305);
#404=VERTEX_POINT('',#1307);
#405=VERTEX_POINT('',#1309);
#406=VERTEX_POINT('',#1311);
#407=VERTEX_POINT('',#1313);
#408=VERTEX_POINT('',#1315);
#409=VERTEX_POINT('',#1317);
#410=VERTEX_POINT('',#1319);
#411=VERTEX_POINT('',#1321);
#412=VERTEX_POINT('',#1323);
#413=VERTEX_POINT('',#1326);
#414=VERTEX_POINT('',#1327);
#415=VERTEX_POINT('',#1329);
#416=VERTEX_POINT('',#1331);
#417=VERTEX_POINT('',#1334);
#418=VERTEX_POINT('',#1335);
#419=VERTEX_POINT('',#1337);
#420=VERTEX_POINT('',#1339);
#421=VERTEX_POINT('',#1347);
#422=VERTEX_POINT('',#1349);
#423=VERTEX_POINT('',#1353);
#424=VERTEX_POINT('',#1355);
#425=VERTEX_POINT('',#1359);
#426=VERTEX_POINT('',#1361);
#427=VERTEX_POINT('',#1365);
#428=VERTEX_POINT('',#1367);
#429=VERTEX_POINT('',#1371);
#430=VERTEX_POINT('',#1373);
#431=VERTEX_POINT('',#1377);
#432=VERTEX_POINT('',#1379);
#433=VERTEX_POINT('',#1387);
#434=VERTEX_POINT('',#1391);
#435=VERTEX_POINT('',#1395);
#436=VERTEX_POINT('',#1399);
#437=VERTEX_POINT('',#1403);
#438=VERTEX_POINT('',#1407);
#439=VERTEX_POINT('',#1411);
#440=VERTEX_POINT('',#1414);
#441=EDGE_CURVE('',#357,#358,#129,.T.);
#442=EDGE_CURVE('',#358,#359,#117,.T.);
#443=EDGE_CURVE('',#359,#360,#130,.T.);
#444=EDGE_CURVE('',#360,#361,#131,.T.);
#445=EDGE_CURVE('',#361,#362,#132,.T.);
#446=EDGE_CURVE('',#362,#363,#133,.T.);
#447=EDGE_CURVE('',#363,#364,#134,.T.);
#448=EDGE_CURVE('',#364,#365,#135,.T.);
#449=EDGE_CURVE('',#365,#366,#136,.T.);
#450=EDGE_CURVE('',#366,#357,#118,.T.);
#451=EDGE_CURVE('',#367,#368,#137,.T.);
#452=EDGE_CURVE('',#368,#369,#138,.T.);
#453=EDGE_CURVE('',#369,#370,#139,.T.);
#454=EDGE_CURVE('',#370,#367,#140,.T.);
#455=EDGE_CURVE('',#371,#372,#119,.T.);
#456=EDGE_CURVE('',#371,#373,#141,.T.);
#457=EDGE_CURVE('',#374,#373,#120,.T.);
#458=EDGE_CURVE('',#372,#374,#142,.T.);
#459=EDGE_CURVE('',#375,#371,#143,.T.);
#460=EDGE_CURVE('',#375,#376,#144,.T.);
#461=EDGE_CURVE('',#373,#376,#145,.T.);
#462=EDGE_CURVE('',#377,#375,#121,.T.);
#463=EDGE_CURVE('',#377,#378,#146,.T.);
#464=EDGE_CURVE('',#376,#378,#122,.T.);
#465=EDGE_CURVE('',#379,#377,#147,.T.);
#466=EDGE_CURVE('',#379,#380,#148,.T.);
#467=EDGE_CURVE('',#378,#380,#149,.T.);
#468=EDGE_CURVE('',#381,#379,#123,.T.);
#469=EDGE_CURVE('',#381,#382,#150,.T.);
#470=EDGE_CURVE('',#380,#382,#124,.T.);
#471=EDGE_CURVE('',#383,#381,#151,.T.);
#472=EDGE_CURVE('',#383,#384,#152,.T.);
#473=EDGE_CURVE('',#382,#384,#153,.T.);
#474=EDGE_CURVE('',#385,#383,#125,.T.);
#475=EDGE_CURVE('',#385,#386,#154,.T.);
#476=EDGE_CURVE('',#384,#386,#126,.T.);
#477=EDGE_CURVE('',#372,#385,#155,.T.);
#478=EDGE_CURVE('',#386,#374,#156,.T.);
#479=EDGE_CURVE('',#387,#358,#157,.T.);
#480=EDGE_CURVE('',#387,#388,#127,.T.);
#481=EDGE_CURVE('',#388,#359,#158,.T.);
#482=EDGE_CURVE('',#389,#387,#159,.T.);
#483=EDGE_CURVE('',#390,#389,#128,.T.);
#484=EDGE_CURVE('',#391,#390,#160,.T.);
#485=EDGE_CURVE('',#392,#391,#161,.T.);
#486=EDGE_CURVE('',#393,#392,#162,.T.);
#487=EDGE_CURVE('',#394,#393,#163,.T.);
#488=EDGE_CURVE('',#394,#395,#164,.T.);
#489=EDGE_CURVE('',#396,#395,#165,.T.);
#490=EDGE_CURVE('',#388,#396,#166,.T.);
#491=EDGE_CURVE('',#397,#398,#167,.T.);
#492=EDGE_CURVE('',#399,#397,#168,.T.);
#493=EDGE_CURVE('',#399,#400,#169,.T.);
#494=EDGE_CURVE('',#400,#398,#170,.T.);
#495=EDGE_CURVE('',#401,#402,#171,.T.);
#496=EDGE_CURVE('',#401,#403,#172,.T.);
#497=EDGE_CURVE('',#404,#403,#173,.T.);
#498=EDGE_CURVE('',#405,#404,#174,.T.);
#499=EDGE_CURVE('',#406,#405,#175,.T.);
#500=EDGE_CURVE('',#406,#407,#176,.T.);
#501=EDGE_CURVE('',#408,#407,#177,.T.);
#502=EDGE_CURVE('',#409,#408,#178,.T.);
#503=EDGE_CURVE('',#410,#409,#179,.T.);
#504=EDGE_CURVE('',#410,#411,#180,.T.);
#505=EDGE_CURVE('',#411,#412,#181,.T.);
#506=EDGE_CURVE('',#402,#412,#182,.T.);
#507=EDGE_CURVE('',#413,#414,#183,.T.);
#508=EDGE_CURVE('',#415,#413,#184,.T.);
#509=EDGE_CURVE('',#415,#416,#185,.T.);
#510=EDGE_CURVE('',#416,#414,#186,.T.);
#511=EDGE_CURVE('',#417,#418,#187,.T.);
#512=EDGE_CURVE('',#419,#418,#188,.T.);
#513=EDGE_CURVE('',#420,#419,#189,.T.);
#514=EDGE_CURVE('',#420,#417,#190,.T.);
#515=EDGE_CURVE('',#389,#357,#191,.T.);
#516=EDGE_CURVE('',#390,#366,#192,.T.);
#517=EDGE_CURVE('',#418,#421,#193,.T.);
#518=EDGE_CURVE('',#422,#417,#194,.T.);
#519=EDGE_CURVE('',#422,#421,#195,.T.);
#520=EDGE_CURVE('',#423,#400,#196,.T.);
#521=EDGE_CURVE('',#423,#424,#197,.T.);
#522=EDGE_CURVE('',#398,#424,#198,.T.);
#523=EDGE_CURVE('',#425,#409,#199,.T.);
#524=EDGE_CURVE('',#426,#425,#200,.T.);
#525=EDGE_CURVE('',#410,#426,#201,.T.);
#526=EDGE_CURVE('',#401,#427,#202,.T.);
#527=EDGE_CURVE('',#428,#402,#203,.T.);
#528=EDGE_CURVE('',#427,#428,#204,.T.);
#529=EDGE_CURVE('',#429,#405,#205,.T.);
#530=EDGE_CURVE('',#430,#429,#206,.T.);
#531=EDGE_CURVE('',#406,#430,#207,.T.);
#532=EDGE_CURVE('',#414,#431,#208,.T.);
#533=EDGE_CURVE('',#432,#416,#209,.T.);
#534=EDGE_CURVE('',#432,#431,#210,.T.);
#535=EDGE_CURVE('',#426,#422,#211,.T.);
#536=EDGE_CURVE('',#370,#420,#212,.T.);
#537=EDGE_CURVE('',#369,#411,#213,.T.);
#538=EDGE_CURVE('',#433,#404,#214,.T.);
#539=EDGE_CURVE('',#433,#429,#215,.T.);
#540=EDGE_CURVE('',#431,#434,#216,.T.);
#541=EDGE_CURVE('',#413,#434,#217,.T.);
#542=EDGE_CURVE('',#427,#435,#218,.T.);
#543=EDGE_CURVE('',#403,#435,#219,.T.);
#544=EDGE_CURVE('',#436,#408,#220,.T.);
#545=EDGE_CURVE('',#436,#425,#221,.T.);
#546=EDGE_CURVE('',#421,#437,#222,.T.);
#547=EDGE_CURVE('',#419,#437,#223,.T.);
#548=EDGE_CURVE('',#430,#438,#224,.T.);
#549=EDGE_CURVE('',#407,#438,#225,.T.);
#550=EDGE_CURVE('',#439,#423,#226,.T.);
#551=EDGE_CURVE('',#434,#439,#227,.T.);
#552=EDGE_CURVE('',#440,#432,#228,.T.);
#553=EDGE_CURVE('',#437,#440,#229,.T.);
#554=EDGE_CURVE('',#438,#436,#230,.T.);
#555=EDGE_CURVE('',#435,#433,#231,.T.);
#556=EDGE_CURVE('',#424,#428,#232,.T.);
#557=EDGE_CURVE('',#439,#399,#233,.T.);
#558=EDGE_CURVE('',#440,#415,#234,.T.);
#559=EDGE_CURVE('',#397,#367,#235,.T.);
#560=EDGE_CURVE('',#363,#393,#236,.T.);
#561=EDGE_CURVE('',#394,#362,#237,.T.);
#562=EDGE_CURVE('',#412,#368,#238,.T.);
#563=EDGE_CURVE('',#392,#364,#239,.T.);
#564=EDGE_CURVE('',#391,#365,#240,.T.);
#565=EDGE_CURVE('',#395,#361,#241,.T.);
#566=EDGE_CURVE('',#396,#360,#242,.T.);
#567=ORIENTED_EDGE('',*,*,#441,.T.);
#568=ORIENTED_EDGE('',*,*,#442,.T.);
#569=ORIENTED_EDGE('',*,*,#443,.T.);
#570=ORIENTED_EDGE('',*,*,#444,.T.);
#571=ORIENTED_EDGE('',*,*,#445,.T.);
#572=ORIENTED_EDGE('',*,*,#446,.T.);
#573=ORIENTED_EDGE('',*,*,#447,.T.);
#574=ORIENTED_EDGE('',*,*,#448,.T.);
#575=ORIENTED_EDGE('',*,*,#449,.T.);
#576=ORIENTED_EDGE('',*,*,#450,.T.);
#577=ORIENTED_EDGE('',*,*,#451,.T.);
#578=ORIENTED_EDGE('',*,*,#452,.T.);
#579=ORIENTED_EDGE('',*,*,#453,.T.);
#580=ORIENTED_EDGE('',*,*,#454,.T.);
#581=ORIENTED_EDGE('',*,*,#455,.F.);
#582=ORIENTED_EDGE('',*,*,#456,.T.);
#583=ORIENTED_EDGE('',*,*,#457,.F.);
#584=ORIENTED_EDGE('',*,*,#458,.F.);
#585=ORIENTED_EDGE('',*,*,#459,.F.);
#586=ORIENTED_EDGE('',*,*,#460,.T.);
#587=ORIENTED_EDGE('',*,*,#461,.F.);
#588=ORIENTED_EDGE('',*,*,#456,.F.);
#589=ORIENTED_EDGE('',*,*,#462,.F.);
#590=ORIENTED_EDGE('',*,*,#463,.T.);
#591=ORIENTED_EDGE('',*,*,#464,.F.);
#592=ORIENTED_EDGE('',*,*,#460,.F.);
#593=ORIENTED_EDGE('',*,*,#465,.F.);
#594=ORIENTED_EDGE('',*,*,#466,.T.);
#595=ORIENTED_EDGE('',*,*,#467,.F.);
#596=ORIENTED_EDGE('',*,*,#463,.F.);
#597=ORIENTED_EDGE('',*,*,#468,.F.);
#598=ORIENTED_EDGE('',*,*,#469,.T.);
#599=ORIENTED_EDGE('',*,*,#470,.F.);
#600=ORIENTED_EDGE('',*,*,#466,.F.);
#601=ORIENTED_EDGE('',*,*,#471,.F.);
#602=ORIENTED_EDGE('',*,*,#472,.T.);
#603=ORIENTED_EDGE('',*,*,#473,.F.);
#604=ORIENTED_EDGE('',*,*,#469,.F.);
#605=ORIENTED_EDGE('',*,*,#474,.F.);
#606=ORIENTED_EDGE('',*,*,#475,.T.);
#607=ORIENTED_EDGE('',*,*,#476,.F.);
#608=ORIENTED_EDGE('',*,*,#472,.F.);
#609=ORIENTED_EDGE('',*,*,#477,.F.);
#610=ORIENTED_EDGE('',*,*,#458,.T.);
#611=ORIENTED_EDGE('',*,*,#478,.F.);
#612=ORIENTED_EDGE('',*,*,#475,.F.);
#613=ORIENTED_EDGE('',*,*,#479,.F.);
#614=ORIENTED_EDGE('',*,*,#480,.T.);
#615=ORIENTED_EDGE('',*,*,#481,.T.);
#616=ORIENTED_EDGE('',*,*,#442,.F.);
#617=ORIENTED_EDGE('',*,*,#480,.F.);
#618=ORIENTED_EDGE('',*,*,#482,.F.);
#619=ORIENTED_EDGE('',*,*,#483,.F.);
#620=ORIENTED_EDGE('',*,*,#484,.F.);
#621=ORIENTED_EDGE('',*,*,#485,.F.);
#622=ORIENTED_EDGE('',*,*,#486,.F.);
#623=ORIENTED_EDGE('',*,*,#487,.F.);
#624=ORIENTED_EDGE('',*,*,#488,.T.);
#625=ORIENTED_EDGE('',*,*,#489,.F.);
#626=ORIENTED_EDGE('',*,*,#490,.F.);
#627=ORIENTED_EDGE('',*,*,#491,.F.);
#628=ORIENTED_EDGE('',*,*,#492,.F.);
#629=ORIENTED_EDGE('',*,*,#493,.T.);
#630=ORIENTED_EDGE('',*,*,#494,.T.);
#631=ORIENTED_EDGE('',*,*,#495,.F.);
#632=ORIENTED_EDGE('',*,*,#496,.T.);
#633=ORIENTED_EDGE('',*,*,#497,.F.);
#634=ORIENTED_EDGE('',*,*,#498,.F.);
#635=ORIENTED_EDGE('',*,*,#499,.F.);
#636=ORIENTED_EDGE('',*,*,#500,.T.);
#637=ORIENTED_EDGE('',*,*,#501,.F.);
#638=ORIENTED_EDGE('',*,*,#502,.F.);
#639=ORIENTED_EDGE('',*,*,#503,.F.);
#640=ORIENTED_EDGE('',*,*,#504,.T.);
#641=ORIENTED_EDGE('',*,*,#505,.T.);
#642=ORIENTED_EDGE('',*,*,#506,.F.);
#643=ORIENTED_EDGE('',*,*,#507,.F.);
#644=ORIENTED_EDGE('',*,*,#508,.F.);
#645=ORIENTED_EDGE('',*,*,#509,.T.);
#646=ORIENTED_EDGE('',*,*,#510,.T.);
#647=ORIENTED_EDGE('',*,*,#511,.T.);
#648=ORIENTED_EDGE('',*,*,#512,.F.);
#649=ORIENTED_EDGE('',*,*,#513,.F.);
#650=ORIENTED_EDGE('',*,*,#514,.T.);
#651=ORIENTED_EDGE('',*,*,#479,.T.);
#652=ORIENTED_EDGE('',*,*,#441,.F.);
#653=ORIENTED_EDGE('',*,*,#515,.F.);
#654=ORIENTED_EDGE('',*,*,#482,.T.);
#655=ORIENTED_EDGE('',*,*,#483,.T.);
#656=ORIENTED_EDGE('',*,*,#515,.T.);
#657=ORIENTED_EDGE('',*,*,#450,.F.);
#658=ORIENTED_EDGE('',*,*,#516,.F.);
#659=ORIENTED_EDGE('',*,*,#517,.F.);
#660=ORIENTED_EDGE('',*,*,#511,.F.);
#661=ORIENTED_EDGE('',*,*,#518,.F.);
#662=ORIENTED_EDGE('',*,*,#519,.T.);
#663=ORIENTED_EDGE('',*,*,#520,.F.);
#664=ORIENTED_EDGE('',*,*,#521,.T.);
#665=ORIENTED_EDGE('',*,*,#522,.F.);
#666=ORIENTED_EDGE('',*,*,#494,.F.);
#667=ORIENTED_EDGE('',*,*,#523,.F.);
#668=ORIENTED_EDGE('',*,*,#524,.F.);
#669=ORIENTED_EDGE('',*,*,#525,.F.);
#670=ORIENTED_EDGE('',*,*,#503,.T.);
#671=ORIENTED_EDGE('',*,*,#526,.F.);
#672=ORIENTED_EDGE('',*,*,#495,.T.);
#673=ORIENTED_EDGE('',*,*,#527,.F.);
#674=ORIENTED_EDGE('',*,*,#528,.F.);
#675=ORIENTED_EDGE('',*,*,#529,.F.);
#676=ORIENTED_EDGE('',*,*,#530,.F.);
#677=ORIENTED_EDGE('',*,*,#531,.F.);
#678=ORIENTED_EDGE('',*,*,#499,.T.);
#679=ORIENTED_EDGE('',*,*,#532,.F.);
#680=ORIENTED_EDGE('',*,*,#510,.F.);
#681=ORIENTED_EDGE('',*,*,#533,.F.);
#682=ORIENTED_EDGE('',*,*,#534,.T.);
#683=ORIENTED_EDGE('',*,*,#525,.T.);
#684=ORIENTED_EDGE('',*,*,#535,.T.);
#685=ORIENTED_EDGE('',*,*,#518,.T.);
#686=ORIENTED_EDGE('',*,*,#514,.F.);
#687=ORIENTED_EDGE('',*,*,#536,.F.);
#688=ORIENTED_EDGE('',*,*,#453,.F.);
#689=ORIENTED_EDGE('',*,*,#537,.T.);
#690=ORIENTED_EDGE('',*,*,#504,.F.);
#691=ORIENTED_EDGE('',*,*,#457,.T.);
#692=ORIENTED_EDGE('',*,*,#461,.T.);
#693=ORIENTED_EDGE('',*,*,#464,.T.);
#694=ORIENTED_EDGE('',*,*,#467,.T.);
#695=ORIENTED_EDGE('',*,*,#470,.T.);
#696=ORIENTED_EDGE('',*,*,#473,.T.);
#697=ORIENTED_EDGE('',*,*,#476,.T.);
#698=ORIENTED_EDGE('',*,*,#478,.T.);
#699=ORIENTED_EDGE('',*,*,#529,.T.);
#700=ORIENTED_EDGE('',*,*,#498,.T.);
#701=ORIENTED_EDGE('',*,*,#538,.F.);
#702=ORIENTED_EDGE('',*,*,#539,.T.);
#703=ORIENTED_EDGE('',*,*,#532,.T.);
#704=ORIENTED_EDGE('',*,*,#540,.T.);
#705=ORIENTED_EDGE('',*,*,#541,.F.);
#706=ORIENTED_EDGE('',*,*,#507,.T.);
#707=ORIENTED_EDGE('',*,*,#526,.T.);
#708=ORIENTED_EDGE('',*,*,#542,.T.);
#709=ORIENTED_EDGE('',*,*,#543,.F.);
#710=ORIENTED_EDGE('',*,*,#496,.F.);
#711=ORIENTED_EDGE('',*,*,#523,.T.);
#712=ORIENTED_EDGE('',*,*,#502,.T.);
#713=ORIENTED_EDGE('',*,*,#544,.F.);
#714=ORIENTED_EDGE('',*,*,#545,.T.);
#715=ORIENTED_EDGE('',*,*,#517,.T.);
#716=ORIENTED_EDGE('',*,*,#546,.T.);
#717=ORIENTED_EDGE('',*,*,#547,.F.);
#718=ORIENTED_EDGE('',*,*,#512,.T.);
#719=ORIENTED_EDGE('',*,*,#531,.T.);
#720=ORIENTED_EDGE('',*,*,#548,.T.);
#721=ORIENTED_EDGE('',*,*,#549,.F.);
#722=ORIENTED_EDGE('',*,*,#500,.F.);
#723=ORIENTED_EDGE('',*,*,#550,.F.);
#724=ORIENTED_EDGE('',*,*,#551,.F.);
#725=ORIENTED_EDGE('',*,*,#540,.F.);
#726=ORIENTED_EDGE('',*,*,#534,.F.);
#727=ORIENTED_EDGE('',*,*,#552,.F.);
#728=ORIENTED_EDGE('',*,*,#553,.F.);
#729=ORIENTED_EDGE('',*,*,#546,.F.);
#730=ORIENTED_EDGE('',*,*,#519,.F.);
#731=ORIENTED_EDGE('',*,*,#535,.F.);
#732=ORIENTED_EDGE('',*,*,#524,.T.);
#733=ORIENTED_EDGE('',*,*,#545,.F.);
#734=ORIENTED_EDGE('',*,*,#554,.F.);
#735=ORIENTED_EDGE('',*,*,#548,.F.);
#736=ORIENTED_EDGE('',*,*,#530,.T.);
#737=ORIENTED_EDGE('',*,*,#539,.F.);
#738=ORIENTED_EDGE('',*,*,#555,.F.);
#739=ORIENTED_EDGE('',*,*,#542,.F.);
#740=ORIENTED_EDGE('',*,*,#528,.T.);
#741=ORIENTED_EDGE('',*,*,#556,.F.);
#742=ORIENTED_EDGE('',*,*,#521,.F.);
#743=ORIENTED_EDGE('',*,*,#520,.T.);
#744=ORIENTED_EDGE('',*,*,#493,.F.);
#745=ORIENTED_EDGE('',*,*,#557,.F.);
#746=ORIENTED_EDGE('',*,*,#550,.T.);
#747=ORIENTED_EDGE('',*,*,#555,.T.);
#748=ORIENTED_EDGE('',*,*,#538,.T.);
#749=ORIENTED_EDGE('',*,*,#497,.T.);
#750=ORIENTED_EDGE('',*,*,#543,.T.);
#751=ORIENTED_EDGE('',*,*,#533,.T.);
#752=ORIENTED_EDGE('',*,*,#509,.F.);
#753=ORIENTED_EDGE('',*,*,#558,.F.);
#754=ORIENTED_EDGE('',*,*,#552,.T.);
#755=ORIENTED_EDGE('',*,*,#554,.T.);
#756=ORIENTED_EDGE('',*,*,#544,.T.);
#757=ORIENTED_EDGE('',*,*,#501,.T.);
#758=ORIENTED_EDGE('',*,*,#549,.T.);
#759=ORIENTED_EDGE('',*,*,#547,.T.);
#760=ORIENTED_EDGE('',*,*,#553,.T.);
#761=ORIENTED_EDGE('',*,*,#558,.T.);
#762=ORIENTED_EDGE('',*,*,#508,.T.);
#763=ORIENTED_EDGE('',*,*,#541,.T.);
#764=ORIENTED_EDGE('',*,*,#551,.T.);
#765=ORIENTED_EDGE('',*,*,#557,.T.);
#766=ORIENTED_EDGE('',*,*,#492,.T.);
#767=ORIENTED_EDGE('',*,*,#559,.T.);
#768=ORIENTED_EDGE('',*,*,#454,.F.);
#769=ORIENTED_EDGE('',*,*,#536,.T.);
#770=ORIENTED_EDGE('',*,*,#513,.T.);
#771=ORIENTED_EDGE('',*,*,#560,.F.);
#772=ORIENTED_EDGE('',*,*,#446,.F.);
#773=ORIENTED_EDGE('',*,*,#561,.F.);
#774=ORIENTED_EDGE('',*,*,#487,.T.);
#775=ORIENTED_EDGE('',*,*,#562,.F.);
#776=ORIENTED_EDGE('',*,*,#505,.F.);
#777=ORIENTED_EDGE('',*,*,#537,.F.);
#778=ORIENTED_EDGE('',*,*,#452,.F.);
#779=ORIENTED_EDGE('',*,*,#527,.T.);
#780=ORIENTED_EDGE('',*,*,#506,.T.);
#781=ORIENTED_EDGE('',*,*,#562,.T.);
#782=ORIENTED_EDGE('',*,*,#451,.F.);
#783=ORIENTED_EDGE('',*,*,#559,.F.);
#784=ORIENTED_EDGE('',*,*,#491,.T.);
#785=ORIENTED_EDGE('',*,*,#522,.T.);
#786=ORIENTED_EDGE('',*,*,#556,.T.);
#787=ORIENTED_EDGE('',*,*,#560,.T.);
#788=ORIENTED_EDGE('',*,*,#486,.T.);
#789=ORIENTED_EDGE('',*,*,#563,.T.);
#790=ORIENTED_EDGE('',*,*,#447,.F.);
#791=ORIENTED_EDGE('',*,*,#563,.F.);
#792=ORIENTED_EDGE('',*,*,#485,.T.);
#793=ORIENTED_EDGE('',*,*,#564,.T.);
#794=ORIENTED_EDGE('',*,*,#448,.F.);
#795=ORIENTED_EDGE('',*,*,#561,.T.);
#796=ORIENTED_EDGE('',*,*,#445,.F.);
#797=ORIENTED_EDGE('',*,*,#565,.F.);
#798=ORIENTED_EDGE('',*,*,#488,.F.);
#799=ORIENTED_EDGE('',*,*,#489,.T.);
#800=ORIENTED_EDGE('',*,*,#565,.T.);
#801=ORIENTED_EDGE('',*,*,#444,.F.);
#802=ORIENTED_EDGE('',*,*,#566,.F.);
#803=ORIENTED_EDGE('',*,*,#481,.F.);
#804=ORIENTED_EDGE('',*,*,#490,.T.);
#805=ORIENTED_EDGE('',*,*,#566,.T.);
#806=ORIENTED_EDGE('',*,*,#443,.F.);
#807=ORIENTED_EDGE('',*,*,#455,.T.);
#808=ORIENTED_EDGE('',*,*,#477,.T.);
#809=ORIENTED_EDGE('',*,*,#474,.T.);
#810=ORIENTED_EDGE('',*,*,#471,.T.);
#811=ORIENTED_EDGE('',*,*,#468,.T.);
#812=ORIENTED_EDGE('',*,*,#465,.T.);
#813=ORIENTED_EDGE('',*,*,#462,.T.);
#814=ORIENTED_EDGE('',*,*,#459,.T.);
#815=ORIENTED_EDGE('',*,*,#516,.T.);
#816=ORIENTED_EDGE('',*,*,#449,.F.);
#817=ORIENTED_EDGE('',*,*,#564,.F.);
#818=ORIENTED_EDGE('',*,*,#484,.T.);
#819=PLANE('',#917);
#820=PLANE('',#923);
#821=PLANE('',#927);
#822=PLANE('',#931);
#823=PLANE('',#935);
#824=PLANE('',#938);
#825=PLANE('',#940);
#826=PLANE('',#942);
#827=PLANE('',#943);
#828=PLANE('',#944);
#829=PLANE('',#945);
#830=PLANE('',#946);
#831=PLANE('',#947);
#832=PLANE('',#948);
#833=PLANE('',#949);
#834=PLANE('',#950);
#835=PLANE('',#951);
#836=PLANE('',#952);
#837=PLANE('',#953);
#838=PLANE('',#954);
#839=PLANE('',#955);
#840=PLANE('',#956);
#841=PLANE('',#957);
#842=PLANE('',#958);
#843=PLANE('',#959);
#844=PLANE('',#960);
#845=PLANE('',#961);
#846=PLANE('',#962);
#847=PLANE('',#963);
#848=PLANE('',#964);
#849=PLANE('',#965);
#850=PLANE('',#966);
#851=PLANE('',#967);
#852=PLANE('',#968);
#853=PLANE('',#969);
#854=ADVANCED_FACE('',(#28,#21),#819,.T.);
#855=ADVANCED_FACE('',(#29),#15,.F.);
#856=ADVANCED_FACE('',(#30),#820,.F.);
#857=ADVANCED_FACE('',(#31),#16,.F.);
#858=ADVANCED_FACE('',(#32),#821,.F.);
#859=ADVANCED_FACE('',(#33),#17,.F.);
#860=ADVANCED_FACE('',(#34),#822,.F.);
#861=ADVANCED_FACE('',(#35),#18,.F.);
#862=ADVANCED_FACE('',(#36),#823,.F.);
#863=ADVANCED_FACE('',(#37),#19,.T.);
#864=ADVANCED_FACE('',(#38,#22,#23,#24,#25),#824,.T.);
#865=ADVANCED_FACE('',(#39),#825,.T.);
#866=ADVANCED_FACE('',(#40),#20,.T.);
#867=ADVANCED_FACE('',(#41),#826,.T.);
#868=ADVANCED_FACE('',(#42),#827,.T.);
#869=ADVANCED_FACE('',(#43),#828,.T.);
#870=ADVANCED_FACE('',(#44),#829,.T.);
#871=ADVANCED_FACE('',(#45),#830,.T.);
#872=ADVANCED_FACE('',(#46),#831,.T.);
#873=ADVANCED_FACE('',(#47,#26),#832,.T.);
#874=ADVANCED_FACE('',(#48),#833,.T.);
#875=ADVANCED_FACE('',(#49),#834,.T.);
#876=ADVANCED_FACE('',(#50),#835,.T.);
#877=ADVANCED_FACE('',(#51),#836,.T.);
#878=ADVANCED_FACE('',(#52),#837,.T.);
#879=ADVANCED_FACE('',(#53),#838,.T.);
#880=ADVANCED_FACE('',(#54),#839,.F.);
#881=ADVANCED_FACE('',(#55),#840,.T.);
#882=ADVANCED_FACE('',(#56),#841,.T.);
#883=ADVANCED_FACE('',(#57),#842,.T.);
#884=ADVANCED_FACE('',(#58),#843,.T.);
#885=ADVANCED_FACE('',(#59),#844,.T.);
#886=ADVANCED_FACE('',(#60),#845,.T.);
#887=ADVANCED_FACE('',(#61),#846,.T.);
#888=ADVANCED_FACE('',(#62),#847,.T.);
#889=ADVANCED_FACE('',(#63),#848,.T.);
#890=ADVANCED_FACE('',(#64),#849,.T.);
#891=ADVANCED_FACE('',(#65),#850,.T.);
#892=ADVANCED_FACE('',(#66),#851,.T.);
#893=ADVANCED_FACE('',(#67,#27),#852,.T.);
#894=ADVANCED_FACE('',(#68),#853,.T.);
#895=CLOSED_SHELL('',(#854,#855,#856,#857,#858,#859,#860,#861,#862,#863,
#864,#865,#866,#867,#868,#869,#870,#871,#872,#873,#874,#875,#876,#877,#878,
#879,#880,#881,#882,#883,#884,#885,#886,#887,#888,#889,#890,#891,#892,#893,
#894));
#896=DERIVED_UNIT_ELEMENT(#898,1.);
#897=DERIVED_UNIT_ELEMENT(#1452,-3.);
#898=(
CONVERSION_BASED_UNIT('gram',#900)
MASS_UNIT()
NAMED_UNIT(#1449)
);
#899=(
MASS_UNIT()
NAMED_UNIT(*)
SI_UNIT(.KILO.,.GRAM.)
);
#900=MASS_MEASURE_WITH_UNIT(MASS_MEASURE(0.001),#899);
#901=DERIVED_UNIT((#896,#897));
#902=MEASURE_REPRESENTATION_ITEM('density measure',
POSITIVE_RATIO_MEASURE(1.),#901);
#903=PROPERTY_DEFINITION_REPRESENTATION(#908,#905);
#904=PROPERTY_DEFINITION_REPRESENTATION(#909,#906);
#905=REPRESENTATION('material name',(#907),#1446);
#906=REPRESENTATION('density',(#902),#1446);
#907=DESCRIPTIVE_REPRESENTATION_ITEM('Generic','Generic');
#908=PROPERTY_DEFINITION('material property','material name',#1460);
#909=PROPERTY_DEFINITION('material property','density of part',#1460);
#910=DATE_TIME_ROLE('creation_date');
#911=APPLIED_DATE_AND_TIME_ASSIGNMENT(#912,#910,(#1460));
#912=DATE_AND_TIME(#913,#914);
#913=CALENDAR_DATE(2025,10,6);
#914=LOCAL_TIME(0,0,0.,#915);
#915=COORDINATED_UNIVERSAL_TIME_OFFSET(0,0,.BEHIND.);
#916=AXIS2_PLACEMENT_3D('',#1192,#970,#971);
#917=AXIS2_PLACEMENT_3D('',#1193,#972,#973);
#918=AXIS2_PLACEMENT_3D('',#1198,#975,#976);
#919=AXIS2_PLACEMENT_3D('',#1213,#984,#985);
#920=AXIS2_PLACEMENT_3D('',#1222,#990,#991);
#921=AXIS2_PLACEMENT_3D('',#1225,#992,#993);
#922=AXIS2_PLACEMENT_3D('',#1229,#995,#996);
#923=AXIS2_PLACEMENT_3D('',#1231,#998,#999);
#924=AXIS2_PLACEMENT_3D('',#1237,#1003,#1004);
#925=AXIS2_PLACEMENT_3D('',#1239,#1005,#1006);
#926=AXIS2_PLACEMENT_3D('',#1242,#1008,#1009);
#927=AXIS2_PLACEMENT_3D('',#1243,#1010,#1011);
#928=AXIS2_PLACEMENT_3D('',#1249,#1015,#1016);
#929=AXIS2_PLACEMENT_3D('',#1251,#1017,#1018);
#930=AXIS2_PLACEMENT_3D('',#1254,#1020,#1021);
#931=AXIS2_PLACEMENT_3D('',#1255,#1022,#1023);
#932=AXIS2_PLACEMENT_3D('',#1261,#1027,#1028);
#933=AXIS2_PLACEMENT_3D('',#1263,#1029,#1030);
#934=AXIS2_PLACEMENT_3D('',#1266,#1032,#1033);
#935=AXIS2_PLACEMENT_3D('',#1267,#1034,#1035);
#936=AXIS2_PLACEMENT_3D('',#1270,#1038,#1039);
#937=AXIS2_PLACEMENT_3D('',#1274,#1041,#1042);
#938=AXIS2_PLACEMENT_3D('',#1276,#1044,#1045);
#939=AXIS2_PLACEMENT_3D('',#1280,#1047,#1048);
#940=AXIS2_PLACEMENT_3D('',#1342,#1080,#1081);
#941=AXIS2_PLACEMENT_3D('',#1344,#1083,#1084);
#942=AXIS2_PLACEMENT_3D('',#1346,#1086,#1087);
#943=AXIS2_PLACEMENT_3D('',#1352,#1091,#1092);
#944=AXIS2_PLACEMENT_3D('',#1358,#1096,#1097);
#945=AXIS2_PLACEMENT_3D('',#1364,#1101,#1102);
#946=AXIS2_PLACEMENT_3D('',#1370,#1106,#1107);
#947=AXIS2_PLACEMENT_3D('',#1376,#1111,#1112);
#948=AXIS2_PLACEMENT_3D('',#1382,#1116,#1117);
#949=AXIS2_PLACEMENT_3D('',#1386,#1121,#1122);
#950=AXIS2_PLACEMENT_3D('',#1390,#1125,#1126);
#951=AXIS2_PLACEMENT_3D('',#1394,#1129,#1130);
#952=AXIS2_PLACEMENT_3D('',#1398,#1133,#1134);
#953=AXIS2_PLACEMENT_3D('',#1402,#1137,#1138);
#954=AXIS2_PLACEMENT_3D('',#1406,#1141,#1142);
#955=AXIS2_PLACEMENT_3D('',#1410,#1145,#1146);
#956=AXIS2_PLACEMENT_3D('',#1420,#1154,#1155);
#957=AXIS2_PLACEMENT_3D('',#1422,#1157,#1158);
#958=AXIS2_PLACEMENT_3D('',#1423,#1159,#1160);
#959=AXIS2_PLACEMENT_3D('',#1425,#1162,#1163);
#960=AXIS2_PLACEMENT_3D('',#1426,#1164,#1165);
#961=AXIS2_PLACEMENT_3D('',#1428,#1167,#1168);
#962=AXIS2_PLACEMENT_3D('',#1431,#1171,#1172);
#963=AXIS2_PLACEMENT_3D('',#1433,#1174,#1175);
#964=AXIS2_PLACEMENT_3D('',#1434,#1176,#1177);
#965=AXIS2_PLACEMENT_3D('',#1436,#1179,#1180);
#966=AXIS2_PLACEMENT_3D('',#1438,#1182,#1183);
#967=AXIS2_PLACEMENT_3D('',#1440,#1185,#1186);
#968=AXIS2_PLACEMENT_3D('',#1442,#1188,#1189);
#969=AXIS2_PLACEMENT_3D('',#1443,#1190,#1191);
#970=DIRECTION('axis',(0.,0.,1.));
#971=DIRECTION('refdir',(1.,0.,0.));
#972=DIRECTION('center_axis',(2.45886231974733E-16,0.,-1.));
#973=DIRECTION('ref_axis',(-1.,0.,-2.45886231974733E-16));
#974=DIRECTION('',(1.,0.,2.45886231974733E-16));
#975=DIRECTION('center_axis',(2.45886231974733E-16,0.,-1.));
#976=DIRECTION('ref_axis',(0.,1.,0.));
#977=DIRECTION('',(0.,-1.,0.));
#978=DIRECTION('',(-1.,0.,-2.45886231974733E-16));
#979=DIRECTION('',(0.,1.,0.));
#980=DIRECTION('',(-1.,0.,-2.45886231974733E-16));
#981=DIRECTION('',(2.73340335667172E-15,-1.,6.72106251839098E-31));
#982=DIRECTION('',(-1.,0.,-2.45886231974733E-16));
#983=DIRECTION('',(0.,1.,0.));
#984=DIRECTION('center_axis',(2.45886231974733E-16,0.,-1.));
#985=DIRECTION('ref_axis',(-1.,0.,-2.45886231974733E-16));
#986=DIRECTION('',(-4.52402098408315E-16,-1.,-1.11239447315083E-31));
#987=DIRECTION('',(1.,0.,2.45886231974733E-16));
#988=DIRECTION('',(0.,1.,0.));
#989=DIRECTION('',(-1.,0.,-2.45886231974733E-16));
#990=DIRECTION('center_axis',(-1.,0.,0.));
#991=DIRECTION('ref_axis',(0.,-1.,3.77475828372553E-14));
#992=DIRECTION('center_axis',(-1.,0.,0.));
#993=DIRECTION('ref_axis',(0.,-1.,3.77475828372553E-14));
#994=DIRECTION('',(-1.,0.,0.));
#995=DIRECTION('center_axis',(1.,0.,0.));
#996=DIRECTION('ref_axis',(0.,-1.,3.77475828372553E-14));
#997=DIRECTION('',(-1.,0.,0.));
#998=DIRECTION('center_axis',(0.,-1.,4.08357894115E-14));
#999=DIRECTION('ref_axis',(0.,4.08357894115E-14,1.));
#1000=DIRECTION('',(0.,4.08357894115E-14,1.));
#1001=DIRECTION('',(-1.,0.,0.));
#1002=DIRECTION('',(0.,-4.08357894115E-14,-1.));
#1003=DIRECTION('center_axis',(-1.,0.,0.));
#1004=DIRECTION('ref_axis',(0.,-3.99680288865056E-14,-1.));
#1005=DIRECTION('center_axis',(-1.,0.,0.));
#1006=DIRECTION('ref_axis',(0.,-3.99680288865056E-14,-1.));
#1007=DIRECTION('',(-1.,0.,0.));
#1008=DIRECTION('center_axis',(1.,0.,0.));
#1009=DIRECTION('ref_axis',(0.,-3.99680288865056E-14,-1.));
#1010=DIRECTION('center_axis',(0.,-3.78720938306712E-14,-1.));
#1011=DIRECTION('ref_axis',(0.,-1.,3.78720938306712E-14));
#1012=DIRECTION('',(0.,-1.,3.78720938306712E-14));
#1013=DIRECTION('',(-1.,0.,0.));
#1014=DIRECTION('',(0.,1.,-3.78720938306712E-14));
#1015=DIRECTION('center_axis',(-1.,0.,0.));
#1016=DIRECTION('ref_axis',(0.,1.,-3.83026943495677E-14));
#1017=DIRECTION('center_axis',(-1.,0.,0.));
#1018=DIRECTION('ref_axis',(0.,1.,-3.83026943495677E-14));
#1019=DIRECTION('',(-1.,0.,0.));
#1020=DIRECTION('center_axis',(1.,0.,0.));
#1021=DIRECTION('ref_axis',(0.,1.,-3.83026943495677E-14));
#1022=DIRECTION('center_axis',(0.,1.,-3.4710420999775E-14));
#1023=DIRECTION('ref_axis',(0.,-3.4710420999775E-14,-1.));
#1024=DIRECTION('',(0.,-3.4710420999775E-14,-1.));
#1025=DIRECTION('',(-1.,0.,0.));
#1026=DIRECTION('',(0.,3.4710420999775E-14,1.));
#1027=DIRECTION('center_axis',(-1.,0.,0.));
#1028=DIRECTION('ref_axis',(0.,3.99680288865057E-14,1.));
#1029=DIRECTION('center_axis',(-1.,0.,0.));
#1030=DIRECTION('ref_axis',(0.,3.99680288865057E-14,1.));
#1031=DIRECTION('',(-1.,0.,0.));
#1032=DIRECTION('center_axis',(1.,0.,0.));
#1033=DIRECTION('ref_axis',(0.,3.99680288865057E-14,1.));
#1034=DIRECTION('center_axis',(0.,3.79758529918512E-14,1.));
#1035=DIRECTION('ref_axis',(0.,1.,-3.79758529918512E-14));
#1036=DIRECTION('',(0.,1.,-3.79758529918512E-14));
#1037=DIRECTION('',(0.,-1.,3.79758529918512E-14));
#1038=DIRECTION('center_axis',(0.,0.,-1.));
#1039=DIRECTION('ref_axis',(0.707106781186547,0.707106781186547,0.));
#1040=DIRECTION('',(0.,0.,-1.));
#1041=DIRECTION('center_axis',(1.2449935796189E-16,0.,-1.));
#1042=DIRECTION('ref_axis',(0.707106781186547,0.707106781186547,0.));
#1043=DIRECTION('',(0.,0.,-1.));
#1044=DIRECTION('center_axis',(-1.2449935796189E-16,0.,1.));
#1045=DIRECTION('ref_axis',(1.,0.,1.2449935796189E-16));
#1046=DIRECTION('',(1.,0.,1.2449935796189E-16));
#1047=DIRECTION('center_axis',(1.2449935796189E-16,0.,-1.));
#1048=DIRECTION('ref_axis',(-0.707106781186547,0.707106781186547,0.));
#1049=DIRECTION('',(0.,1.,0.));
#1050=DIRECTION('',(-1.,0.,-9.95994863695122E-17));
#1051=DIRECTION('',(0.,-1.,0.));
#1052=DIRECTION('',(-1.,0.,0.));
#1053=DIRECTION('',(0.,-1.,0.));
#1054=DIRECTION('',(-1.,0.,-9.95994863695122E-17));
#1055=DIRECTION('',(0.,-1.,0.));
#1056=DIRECTION('',(0.,-1.,0.));
#1057=DIRECTION('',(-1.,0.,-1.2449935796189E-16));
#1058=DIRECTION('',(0.,-1.,0.));
#1059=DIRECTION('',(-1.,0.,0.));
#1060=DIRECTION('',(-1.,0.,0.));
#1061=DIRECTION('',(0.,-1.,0.));
#1062=DIRECTION('',(-1.,0.,-1.09415265746859E-16));
#1063=DIRECTION('',(0.,-1.,0.));
#1064=DIRECTION('',(-1.,0.,0.));
#1065=DIRECTION('',(0.,-1.,0.));
#1066=DIRECTION('',(-1.,0.,-1.09415265746859E-16));
#1067=DIRECTION('',(0.,-1.,0.));
#1068=DIRECTION('',(-1.,0.,0.));
#1069=DIRECTION('',(0.,-1.,0.));
#1070=DIRECTION('',(-1.,0.,0.));
#1071=DIRECTION('',(0.,-1.,0.));
#1072=DIRECTION('',(0.,-1.,0.));
#1073=DIRECTION('',(-1.,0.,-1.2449935796189E-16));
#1074=DIRECTION('',(0.,-1.,0.));
#1075=DIRECTION('',(-1.,0.,0.));
#1076=DIRECTION('',(-1.,0.,0.));
#1077=DIRECTION('',(0.,-1.,0.));
#1078=DIRECTION('',(-1.,0.,-1.2449935796189E-16));
#1079=DIRECTION('',(0.,-1.,0.));
#1080=DIRECTION('center_axis',(0.,1.,0.));
#1081=DIRECTION('ref_axis',(0.,0.,1.));
#1082=DIRECTION('',(0.,0.,-1.));
#1083=DIRECTION('center_axis',(0.,0.,1.));
#1084=DIRECTION('ref_axis',(-0.707106781186547,0.707106781186547,0.));
#1085=DIRECTION('',(0.,0.,-1.));
#1086=DIRECTION('center_axis',(0.,1.,0.));
#1087=DIRECTION('ref_axis',(0.,0.,-1.));
#1088=DIRECTION('',(0.,0.,-1.));
#1089=DIRECTION('',(0.,0.,1.));
#1090=DIRECTION('',(-1.,0.,0.));
#1091=DIRECTION('center_axis',(0.,1.,0.));
#1092=DIRECTION('ref_axis',(0.,0.,-1.));
#1093=DIRECTION('',(0.,0.,1.));
#1094=DIRECTION('',(-1.,0.,0.));
#1095=DIRECTION('',(2.89401006646649E-16,0.,-1.));
#1096=DIRECTION('center_axis',(0.,-1.,0.));
#1097=DIRECTION('ref_axis',(0.,0.,1.));
#1098=DIRECTION('',(0.,0.,1.));
#1099=DIRECTION('',(-1.,0.,0.));
#1100=DIRECTION('',(0.,0.,-1.));
#1101=DIRECTION('center_axis',(0.,-1.,0.));
#1102=DIRECTION('ref_axis',(0.,0.,1.));
#1103=DIRECTION('',(0.,0.,-1.));
#1104=DIRECTION('',(-2.89401006646649E-16,0.,1.));
#1105=DIRECTION('',(-1.,0.,0.));
#1106=DIRECTION('center_axis',(0.,-1.,0.));
#1107=DIRECTION('ref_axis',(0.,0.,1.));
#1108=DIRECTION('',(0.,0.,1.));
#1109=DIRECTION('',(-1.,0.,0.));
#1110=DIRECTION('',(0.,0.,-1.));
#1111=DIRECTION('center_axis',(0.,1.,0.));
#1112=DIRECTION('ref_axis',(0.,0.,-1.));
#1113=DIRECTION('',(0.,0.,-1.));
#1114=DIRECTION('',(0.,0.,1.));
#1115=DIRECTION('',(-1.,0.,0.));
#1116=DIRECTION('center_axis',(-1.,0.,0.));
#1117=DIRECTION('ref_axis',(0.,0.,-1.));
#1118=DIRECTION('',(0.,1.,0.));
#1119=DIRECTION('',(0.,0.,1.));
#1120=DIRECTION('',(0.,0.,1.));
#1121=DIRECTION('center_axis',(1.,0.,0.));
#1122=DIRECTION('ref_axis',(0.,0.,1.));
#1123=DIRECTION('',(0.,0.,1.));
#1124=DIRECTION('',(0.,1.,0.));
#1125=DIRECTION('center_axis',(1.,0.,0.));
#1126=DIRECTION('ref_axis',(0.,0.,1.));
#1127=DIRECTION('',(0.,1.,0.));
#1128=DIRECTION('',(0.,0.,-1.));
#1129=DIRECTION('center_axis',(-1.,0.,0.));
#1130=DIRECTION('ref_axis',(0.,0.,-1.));
#1131=DIRECTION('',(0.,-1.,0.));
#1132=DIRECTION('',(0.,0.,-1.));
#1133=DIRECTION('center_axis',(1.,0.,0.));
#1134=DIRECTION('ref_axis',(0.,0.,1.));
#1135=DIRECTION('',(0.,0.,1.));
#1136=DIRECTION('',(0.,1.,0.));
#1137=DIRECTION('center_axis',(1.,0.,0.));
#1138=DIRECTION('ref_axis',(0.,0.,1.));
#1139=DIRECTION('',(0.,1.,0.));
#1140=DIRECTION('',(0.,0.,-1.));
#1141=DIRECTION('center_axis',(-1.,0.,0.));
#1142=DIRECTION('ref_axis',(0.,0.,-1.));
#1143=DIRECTION('',(0.,-1.,0.));
#1144=DIRECTION('',(0.,0.,-1.));
#1145=DIRECTION('center_axis',(0.,0.,1.));
#1146=DIRECTION('ref_axis',(1.,0.,0.));
#1147=DIRECTION('',(0.,-1.,0.));
#1148=DIRECTION('',(-1.,0.,0.));
#1149=DIRECTION('',(0.,-1.,0.));
#1150=DIRECTION('',(-1.,0.,0.));
#1151=DIRECTION('',(1.,0.,0.));
#1152=DIRECTION('',(1.,0.,0.));
#1153=DIRECTION('',(0.,-1.,0.));
#1154=DIRECTION('center_axis',(-1.,0.,0.));
#1155=DIRECTION('ref_axis',(0.,0.,-1.));
#1156=DIRECTION('',(0.,0.,1.));
#1157=DIRECTION('center_axis',(0.,-1.,0.));
#1158=DIRECTION('ref_axis',(0.,0.,-1.));
#1159=DIRECTION('center_axis',(-1.,0.,0.));
#1160=DIRECTION('ref_axis',(0.,0.,-1.));
#1161=DIRECTION('',(0.,0.,1.));
#1162=DIRECTION('center_axis',(0.,-1.,0.));
#1163=DIRECTION('ref_axis',(0.,0.,-1.));
#1164=DIRECTION('center_axis',(0.,-1.,0.));
#1165=DIRECTION('ref_axis',(0.,0.,-1.));
#1166=DIRECTION('',(0.,0.,-1.));
#1167=DIRECTION('center_axis',(0.,-1.,9.64670022155496E-17));
#1168=DIRECTION('ref_axis',(0.,9.64670022155496E-17,1.));
#1169=DIRECTION('',(-2.89401006646649E-16,9.64670022155496E-17,1.));
#1170=DIRECTION('',(0.,0.,-1.));
#1171=DIRECTION('center_axis',(0.,1.,0.));
#1172=DIRECTION('ref_axis',(0.,0.,-1.));
#1173=DIRECTION('',(2.89401006646649E-16,0.,-1.));
#1174=DIRECTION('center_axis',(1.,0.,2.89401006646649E-16));
#1175=DIRECTION('ref_axis',(-2.89401006646649E-16,0.,1.));
#1176=DIRECTION('center_axis',(1.,0.,2.89401006646649E-16));
#1177=DIRECTION('ref_axis',(-2.89401006646649E-16,0.,1.));
#1178=DIRECTION('',(0.,0.,-1.));
#1179=DIRECTION('center_axis',(0.,-1.,0.));
#1180=DIRECTION('ref_axis',(0.,0.,-1.));
#1181=DIRECTION('',(0.,0.,-1.));
#1182=DIRECTION('center_axis',(-1.,0.,0.));
#1183=DIRECTION('ref_axis',(0.,0.,-1.));
#1184=DIRECTION('',(0.,0.,-1.));
#1185=DIRECTION('center_axis',(0.,-1.,0.));
#1186=DIRECTION('ref_axis',(0.,0.,-1.));
#1187=DIRECTION('',(0.,0.,-1.));
#1188=DIRECTION('center_axis',(1.,0.,0.));
#1189=DIRECTION('ref_axis',(0.,0.,-1.));
#1190=DIRECTION('center_axis',(-1.,0.,0.));
#1191=DIRECTION('ref_axis',(0.,0.,1.));
#1192=CARTESIAN_POINT('',(0.,0.,0.));
#1193=CARTESIAN_POINT('Origin',(4.2244359183491,-0.98705962320091,1.20973206173845));
#1194=CARTESIAN_POINT('',(0.90110914669556,0.972141164200665,1.20973206173845));
#1195=CARTESIAN_POINT('',(7.54776269000265,0.972141164200665,1.20973206173845));
#1196=CARTESIAN_POINT('',(0.90110914669556,0.972141164200665,1.20973206173845));
#1197=CARTESIAN_POINT('',(7.73526269000265,0.784641164200665,1.20973206173845));
#1198=CARTESIAN_POINT('Origin',(7.54776269000265,0.784641164200665,1.20973206173845));
#1199=CARTESIAN_POINT('',(7.73526269000265,-2.94626041060248,1.20973206173845));
#1200=CARTESIAN_POINT('',(7.73526269000265,0.784641164200665,1.20973206173845));
#1201=CARTESIAN_POINT('',(7.42030206008139,-2.94626041060248,1.20973206173845));
#1202=CARTESIAN_POINT('',(7.73526269000265,-2.94626041060248,1.20973206173845));
#1203=CARTESIAN_POINT('',(7.42030206008139,-2.43455174918516,1.20973206173845));
#1204=CARTESIAN_POINT('',(7.42030206008139,-2.94626041060248,1.20973206173845));
#1205=CARTESIAN_POINT('',(1.02856977661682,-2.43455174918516,1.20973206173845));
#1206=CARTESIAN_POINT('',(7.42030206008139,-2.43455174918516,1.20973206173845));
#1207=CARTESIAN_POINT('',(1.02856977661682,-2.94626041060248,1.20973206173845));
#1208=CARTESIAN_POINT('',(1.02856977661682,-2.43455174918516,1.20973206173845));
#1209=CARTESIAN_POINT('',(0.713609146695559,-2.94626041060248,1.20973206173845));
#1210=CARTESIAN_POINT('',(1.02856977661682,-2.94626041060248,1.20973206173845));
#1211=CARTESIAN_POINT('',(0.713609146695559,0.784641164200665,1.20973206173845));
#1212=CARTESIAN_POINT('',(0.713609146695559,-2.94626041060248,1.20973206173845));
#1213=CARTESIAN_POINT('Origin',(0.90110914669556,0.784641164200665,1.20973206173845));
#1214=CARTESIAN_POINT('',(1.02856977661682,0.775290770499877,1.20973206173845));
#1215=CARTESIAN_POINT('',(1.02856977661682,-2.31644151296469,1.20973206173845));
#1216=CARTESIAN_POINT('',(1.02856977661682,0.775290770499877,1.20973206173845));
#1217=CARTESIAN_POINT('',(7.42030206008139,-2.31644151296469,1.20973206173845));
#1218=CARTESIAN_POINT('',(1.02856977661682,-2.31644151296469,1.20973206173845));
#1219=CARTESIAN_POINT('',(7.42030206008139,0.775290770499877,1.20973206173845));
#1220=CARTESIAN_POINT('',(7.42030206008139,-2.31644151296469,1.20973206173845));
#1221=CARTESIAN_POINT('',(7.42030206008139,0.775290770499877,1.20973206173845));
#1222=CARTESIAN_POINT('Origin',(7.73526269000265,-1.96802025696689,1.8486042247769));
#1223=CARTESIAN_POINT('',(7.73526269000265,-2.04676041444721,1.8486042247769));
#1224=CARTESIAN_POINT('',(7.73526269000265,-1.96802025696689,1.92734438225722));
#1225=CARTESIAN_POINT('Origin',(7.73526269000265,-1.96802025696689,1.8486042247769));
#1226=CARTESIAN_POINT('',(7.42030206008139,-2.04676041444721,1.8486042247769));
#1227=CARTESIAN_POINT('',(7.73526269000265,-2.04676041444721,1.8486042247769));
#1228=CARTESIAN_POINT('',(7.42030206008139,-1.96802025696689,1.92734438225722));
#1229=CARTESIAN_POINT('Origin',(7.42030206008139,-1.96802025696689,1.8486042247769));
#1230=CARTESIAN_POINT('',(7.73526269000265,-1.96802025696689,1.92734438225722));
#1231=CARTESIAN_POINT('Origin',(7.73526269000265,-2.04676041444721,1.67734438225722));
#1232=CARTESIAN_POINT('',(7.73526269000265,-2.04676041444721,1.67734438225722));
#1233=CARTESIAN_POINT('',(7.73526269000265,-2.0467604144472,1.99506724600943));
#1234=CARTESIAN_POINT('',(7.42030206008139,-2.04676041444721,1.67734438225722));
#1235=CARTESIAN_POINT('',(7.73526269000265,-2.04676041444721,1.67734438225722));
#1236=CARTESIAN_POINT('',(7.42030206008139,-2.0467604144472,1.99506724600943));
#1237=CARTESIAN_POINT('Origin',(7.73526269000265,-1.9680202569669,1.67734438225722));
#1238=CARTESIAN_POINT('',(7.73526269000265,-1.9680202569669,1.5986042247769));
#1239=CARTESIAN_POINT('Origin',(7.73526269000265,-1.9680202569669,1.67734438225722));
#1240=CARTESIAN_POINT('',(7.42030206008139,-1.9680202569669,1.5986042247769));
#1241=CARTESIAN_POINT('',(7.73526269000265,-1.9680202569669,1.5986042247769));
#1242=CARTESIAN_POINT('Origin',(7.42030206008139,-1.9680202569669,1.67734438225722));
#1243=CARTESIAN_POINT('Origin',(7.73526269000265,-1.54676041444722,1.59860422477688));
#1244=CARTESIAN_POINT('',(7.73526269000265,-1.54676041444722,1.59860422477688));
#1245=CARTESIAN_POINT('',(7.73526269000265,-0.385734821973683,1.59860422477684));
#1246=CARTESIAN_POINT('',(7.42030206008139,-1.54676041444722,1.59860422477688));
#1247=CARTESIAN_POINT('',(7.73526269000265,-1.54676041444722,1.59860422477688));
#1248=CARTESIAN_POINT('',(7.42030206008139,-0.385734821973683,1.59860422477684));
#1249=CARTESIAN_POINT('Origin',(7.73526269000265,-1.54676041444721,1.6773443822572));
#1250=CARTESIAN_POINT('',(7.73526269000265,-1.4680202569669,1.6773443822572));
#1251=CARTESIAN_POINT('Origin',(7.73526269000265,-1.54676041444721,1.6773443822572));
#1252=CARTESIAN_POINT('',(7.42030206008139,-1.4680202569669,1.6773443822572));
#1253=CARTESIAN_POINT('',(7.73526269000265,-1.4680202569669,1.6773443822572));
#1254=CARTESIAN_POINT('Origin',(7.42030206008139,-1.54676041444721,1.6773443822572));
#1255=CARTESIAN_POINT('Origin',(7.73526269000265,-1.46802025696689,1.84860422477688));
#1256=CARTESIAN_POINT('',(7.73526269000265,-1.46802025696689,1.84860422477688));
#1257=CARTESIAN_POINT('',(7.73526269000265,-1.46802025696688,2.08069716726925));
#1258=CARTESIAN_POINT('',(7.42030206008139,-1.46802025696689,1.84860422477688));
#1259=CARTESIAN_POINT('',(7.73526269000265,-1.46802025696689,1.84860422477688));
#1260=CARTESIAN_POINT('',(7.42030206008139,-1.46802025696688,2.08069716726925));
#1261=CARTESIAN_POINT('Origin',(7.73526269000265,-1.54676041444721,1.84860422477688));
#1262=CARTESIAN_POINT('',(7.73526269000265,-1.5467604144472,1.9273443822572));
#1263=CARTESIAN_POINT('Origin',(7.73526269000265,-1.54676041444721,1.84860422477688));
#1264=CARTESIAN_POINT('',(7.42030206008139,-1.5467604144472,1.9273443822572));
#1265=CARTESIAN_POINT('',(7.73526269000265,-1.5467604144472,1.9273443822572));
#1266=CARTESIAN_POINT('Origin',(7.42030206008139,-1.54676041444721,1.84860422477688));
#1267=CARTESIAN_POINT('Origin',(7.73526269000265,-1.96802025696689,1.92734438225722));
#1268=CARTESIAN_POINT('',(7.73526269000265,-0.596364743233513,1.92734438225716));
#1269=CARTESIAN_POINT('',(7.42030206008139,-0.596364743233513,1.92734438225716));
#1270=CARTESIAN_POINT('Origin',(7.54776269000265,0.784641164200665,2.08623819618096));
#1271=CARTESIAN_POINT('',(7.54776269000265,0.972141164200665,2.31279010976153));
#1272=CARTESIAN_POINT('',(7.54776269000265,0.972141164200665,1.40658245543924));
#1273=CARTESIAN_POINT('',(7.73526269000265,0.784641164200665,2.31279010976153));
#1274=CARTESIAN_POINT('Origin',(7.54776269000265,0.784641164200665,2.31279010976153));
#1275=CARTESIAN_POINT('',(7.73526269000265,0.784641164200665,2.08623819618096));
#1276=CARTESIAN_POINT('Origin',(0.713609146695559,0.775290770499877,2.31279010976153));
#1277=CARTESIAN_POINT('',(0.90110914669556,0.972141164200665,2.31279010976153));
#1278=CARTESIAN_POINT('',(7.73526269000265,0.972141164200665,2.31279010976153));
#1279=CARTESIAN_POINT('',(0.713609146695559,0.784641164200665,2.31279010976153));
#1280=CARTESIAN_POINT('Origin',(0.901109146695559,0.784641164200665,2.31279010976153));
#1281=CARTESIAN_POINT('',(0.713609146695559,-2.94626041060248,2.31279010976153));
#1282=CARTESIAN_POINT('',(0.713609146695559,0.775290770499877,2.31279010976153));
#1283=CARTESIAN_POINT('',(1.02856977661682,-2.94626041060248,2.31279010976153));
#1284=CARTESIAN_POINT('',(7.73526269000265,-2.94626041060248,2.31279010976153));
#1285=CARTESIAN_POINT('',(1.02856977661682,-2.43455174918516,2.31279010976153));
#1286=CARTESIAN_POINT('',(1.02856977661682,0.775290770499877,2.31279010976153));
#1287=CARTESIAN_POINT('',(7.42030206008139,-2.43455174918516,2.31279010976153));
#1288=CARTESIAN_POINT('',(7.42030206008139,-2.43455174918516,2.31279010976153));
#1289=CARTESIAN_POINT('',(7.42030206008139,-2.94626041060248,2.31279010976153));
#1290=CARTESIAN_POINT('',(7.42030206008139,0.775290770499877,2.31279010976153));
#1291=CARTESIAN_POINT('',(7.73526269000265,-2.94626041060248,2.31279010976153));
#1292=CARTESIAN_POINT('',(7.73526269000265,-2.94626041060248,2.31279010976153));
#1293=CARTESIAN_POINT('',(7.73526269000265,0.775290770499877,2.31279010976153));
#1294=CARTESIAN_POINT('',(1.02856977661682,0.775290770499877,2.31279010976153));
#1295=CARTESIAN_POINT('',(1.02856977661682,-0.652858835799335,2.31279010976153));
#1296=CARTESIAN_POINT('',(1.02856977661682,0.775290770499877,2.31279010976153));
#1297=CARTESIAN_POINT('',(3.12738867425461,0.775290770499877,2.31279010976153));
#1298=CARTESIAN_POINT('',(7.73526269000265,0.775290770499877,2.31279010976153));
#1299=CARTESIAN_POINT('',(3.12738867425461,-0.652858835799335,2.31279010976153));
#1300=CARTESIAN_POINT('',(3.12738867425461,0.775290770499877,2.31279010976153));
#1301=CARTESIAN_POINT('',(7.42030206008139,-0.652858835799335,2.31279010976153));
#1302=CARTESIAN_POINT('',(3.12738867425461,-0.73159899327965,2.31279010976153));
#1303=CARTESIAN_POINT('',(1.02856977661682,-0.73159899327965,2.31279010976153));
#1304=CARTESIAN_POINT('',(7.42030206008139,-0.73159899327965,2.31279010976153));
#1305=CARTESIAN_POINT('',(3.12738867425461,-0.974709229500123,2.31279010976153));
#1306=CARTESIAN_POINT('',(3.12738867425461,0.775290770499877,2.31279010976153));
#1307=CARTESIAN_POINT('',(3.20612883173493,-0.974709229500123,2.31279010976153));
#1308=CARTESIAN_POINT('',(7.42030206008139,-0.974709229500123,2.31279010976153));
#1309=CARTESIAN_POINT('',(3.20612883173493,-0.73159899327965,2.31279010976153));
#1310=CARTESIAN_POINT('',(3.20612883173493,0.775290770499877,2.31279010976153));
#1311=CARTESIAN_POINT('',(5.19097135141997,-0.73159899327965,2.31279010976153));
#1312=CARTESIAN_POINT('',(7.42030206008139,-0.73159899327965,2.31279010976153));
#1313=CARTESIAN_POINT('',(5.19097135141997,-0.974709229500123,2.31279010976153));
#1314=CARTESIAN_POINT('',(5.19097135141997,0.775290770499877,2.31279010976153));
#1315=CARTESIAN_POINT('',(5.26971150890028,-0.974709229500123,2.31279010976153));
#1316=CARTESIAN_POINT('',(7.42030206008139,-0.974709229500123,2.31279010976153));
#1317=CARTESIAN_POINT('',(5.26971150890028,-0.73159899327965,2.31279010976153));
#1318=CARTESIAN_POINT('',(5.26971150890028,0.775290770499877,2.31279010976153));
#1319=CARTESIAN_POINT('',(7.42030206008139,-0.73159899327965,2.31279010976153));
#1320=CARTESIAN_POINT('',(7.42030206008139,-0.73159899327965,2.31279010976153));
#1321=CARTESIAN_POINT('',(7.42030206008139,-2.31644151296469,2.31279010976153));
#1322=CARTESIAN_POINT('',(7.42030206008139,0.775290770499877,2.31279010976153));
#1323=CARTESIAN_POINT('',(1.02856977661682,-2.31644151296469,2.31279010976153));
#1324=CARTESIAN_POINT('',(7.42030206008139,-2.31644151296469,2.31279010976153));
#1325=CARTESIAN_POINT('',(1.02856977661682,0.775290770499877,2.31279010976153));
#1326=CARTESIAN_POINT('',(3.20612883173493,0.775290770499877,2.31279010976153));
#1327=CARTESIAN_POINT('',(3.20612883173493,-0.652858835799335,2.31279010976153));
#1328=CARTESIAN_POINT('',(3.20612883173493,0.775290770499877,2.31279010976153));
#1329=CARTESIAN_POINT('',(5.19097135141997,0.775290770499877,2.31279010976153));
#1330=CARTESIAN_POINT('',(7.73526269000265,0.775290770499877,2.31279010976153));
#1331=CARTESIAN_POINT('',(5.19097135141997,-0.652858835799335,2.31279010976153));
#1332=CARTESIAN_POINT('',(5.19097135141997,0.775290770499877,2.31279010976153));
#1333=CARTESIAN_POINT('',(7.42030206008139,-0.652858835799335,2.31279010976153));
#1334=CARTESIAN_POINT('',(7.42030206008139,-0.652858835799335,2.31279010976153));
#1335=CARTESIAN_POINT('',(5.26971150890028,-0.652858835799335,2.31279010976153));
#1336=CARTESIAN_POINT('',(7.42030206008139,-0.652858835799335,2.31279010976153));
#1337=CARTESIAN_POINT('',(5.26971150890028,0.775290770499877,2.31279010976153));
#1338=CARTESIAN_POINT('',(5.26971150890028,0.775290770499877,2.31279010976153));
#1339=CARTESIAN_POINT('',(7.42030206008139,0.775290770499877,2.31279010976153));
#1340=CARTESIAN_POINT('',(7.73526269000265,0.775290770499877,2.31279010976153));
#1341=CARTESIAN_POINT('',(7.42030206008139,0.775290770499877,2.31279010976153));
#1342=CARTESIAN_POINT('Origin',(4.2244359183491,0.972141164200665,1.85968628260039));
#1343=CARTESIAN_POINT('',(0.901109146695559,0.972141164200665,1.63313436901981));
#1344=CARTESIAN_POINT('Origin',(0.901109146695559,0.784641164200665,1.63313436901981));
#1345=CARTESIAN_POINT('',(0.713609146695559,0.784641164200665,1.40658245543924));
#1346=CARTESIAN_POINT('Origin',(7.42030206008139,-0.652858835799335,2.31279010976153));
#1347=CARTESIAN_POINT('',(5.26971150890028,-0.652858835799335,1.78099190425814));
#1348=CARTESIAN_POINT('',(5.26971150890028,-0.652858835799335,1.9878358888996));
#1349=CARTESIAN_POINT('',(7.42030206008139,-0.652858835799335,1.78099190425814));
#1350=CARTESIAN_POINT('',(7.42030206008139,-0.652858835799335,2.31279010976153));
#1351=CARTESIAN_POINT('',(7.42030206008139,-0.652858835799335,1.78099190425814));
#1352=CARTESIAN_POINT('Origin',(7.42030206008139,-0.652858835799335,2.31279010976153));
#1353=CARTESIAN_POINT('',(3.12738867425461,-0.652858835799335,1.78099190425814));
#1354=CARTESIAN_POINT('',(3.12738867425461,-0.652858835799335,2.31279010976153));
#1355=CARTESIAN_POINT('',(1.02856977661682,-0.652858835799335,1.78099190425814));
#1356=CARTESIAN_POINT('',(7.42030206008139,-0.652858835799335,1.78099190425814));
#1357=CARTESIAN_POINT('',(1.02856977661682,-0.652858835799335,1.85968628260038));
#1358=CARTESIAN_POINT('Origin',(7.42030206008139,-0.73159899327965,1.78099190425814));
#1359=CARTESIAN_POINT('',(5.26971150890028,-0.73159899327965,1.78099190425814));
#1360=CARTESIAN_POINT('',(5.26971150890028,-0.73159899327965,1.7219367861479));
#1361=CARTESIAN_POINT('',(7.42030206008139,-0.73159899327965,1.78099190425814));
#1362=CARTESIAN_POINT('',(7.42030206008139,-0.73159899327965,1.78099190425814));
#1363=CARTESIAN_POINT('',(7.42030206008139,-0.73159899327965,2.04689100700983));
#1364=CARTESIAN_POINT('Origin',(7.42030206008139,-0.73159899327965,1.78099190425814));
#1365=CARTESIAN_POINT('',(3.12738867425461,-0.73159899327965,1.78099190425814));
#1366=CARTESIAN_POINT('',(3.12738867425461,-0.73159899327965,2.04689100700983));
#1367=CARTESIAN_POINT('',(1.02856977661682,-0.73159899327965,1.78099190425814));
#1368=CARTESIAN_POINT('',(1.02856977661682,-0.73159899327965,1.59378717984869));
#1369=CARTESIAN_POINT('',(7.42030206008139,-0.73159899327965,1.78099190425814));
#1370=CARTESIAN_POINT('Origin',(7.42030206008139,-0.73159899327965,1.78099190425814));
#1371=CARTESIAN_POINT('',(3.20612883173493,-0.73159899327965,1.78099190425814));
#1372=CARTESIAN_POINT('',(3.20612883173493,-0.73159899327965,1.7219367861479));
#1373=CARTESIAN_POINT('',(5.19097135141997,-0.73159899327965,1.78099190425814));
#1374=CARTESIAN_POINT('',(7.42030206008139,-0.73159899327965,1.78099190425814));
#1375=CARTESIAN_POINT('',(5.19097135141997,-0.73159899327965,2.04689100700983));
#1376=CARTESIAN_POINT('Origin',(7.42030206008139,-0.652858835799335,2.31279010976153));
#1377=CARTESIAN_POINT('',(3.20612883173493,-0.652858835799335,1.78099190425814));
#1378=CARTESIAN_POINT('',(3.20612883173493,-0.652858835799335,1.9878358888996));
#1379=CARTESIAN_POINT('',(5.19097135141997,-0.652858835799335,1.78099190425814));
#1380=CARTESIAN_POINT('',(5.19097135141997,-0.652858835799335,2.31279010976153));
#1381=CARTESIAN_POINT('',(7.42030206008139,-0.652858835799335,1.78099190425814));
#1382=CARTESIAN_POINT('Origin',(7.42030206008139,0.775290770499877,2.31279010976153));
#1383=CARTESIAN_POINT('',(7.42030206008139,0.0612159673502709,1.78099190425814));
#1384=CARTESIAN_POINT('',(7.42030206008139,0.775290770499877,2.08623819618096));
#1385=CARTESIAN_POINT('',(7.42030206008139,-2.31644151296469,2.31279010976153));
#1386=CARTESIAN_POINT('Origin',(3.20612883173493,0.775290770499877,1.66288166803766));
#1387=CARTESIAN_POINT('',(3.20612883173493,-0.974709229500123,1.78099190425814));
#1388=CARTESIAN_POINT('',(3.20612883173493,-0.974709229500123,1.66288166803766));
#1389=CARTESIAN_POINT('',(3.20612883173493,0.337790770499877,1.78099190425814));
#1390=CARTESIAN_POINT('Origin',(3.20612883173493,0.775290770499877,1.66288166803766));
#1391=CARTESIAN_POINT('',(3.20612883173493,0.775290770499877,1.78099190425814));
#1392=CARTESIAN_POINT('',(3.20612883173493,0.337790770499877,1.78099190425814));
#1393=CARTESIAN_POINT('',(3.20612883173493,0.775290770499877,1.76128397531902));
#1394=CARTESIAN_POINT('Origin',(3.12738867425461,0.775290770499877,2.31279010976153));
#1395=CARTESIAN_POINT('',(3.12738867425461,-0.974709229500123,1.78099190425814));
#1396=CARTESIAN_POINT('',(3.12738867425461,0.337790770499877,1.78099190425814));
#1397=CARTESIAN_POINT('',(3.12738867425461,-0.974709229500123,2.31279010976153));
#1398=CARTESIAN_POINT('Origin',(5.26971150890028,0.775290770499877,1.66288166803766));
#1399=CARTESIAN_POINT('',(5.26971150890028,-0.974709229500123,1.78099190425814));
#1400=CARTESIAN_POINT('',(5.26971150890028,-0.974709229500123,1.66288166803766));
#1401=CARTESIAN_POINT('',(5.26971150890028,0.337790770499877,1.78099190425814));
#1402=CARTESIAN_POINT('Origin',(5.26971150890028,0.775290770499877,1.66288166803766));
#1403=CARTESIAN_POINT('',(5.26971150890028,0.775290770499877,1.78099190425814));
#1404=CARTESIAN_POINT('',(5.26971150890028,0.337790770499877,1.78099190425814));
#1405=CARTESIAN_POINT('',(5.26971150890028,0.775290770499877,1.76128397531902));
#1406=CARTESIAN_POINT('Origin',(5.19097135141997,0.775290770499877,2.31279010976153));
#1407=CARTESIAN_POINT('',(5.19097135141997,-0.974709229500123,1.78099190425814));
#1408=CARTESIAN_POINT('',(5.19097135141997,0.337790770499877,1.78099190425814));
#1409=CARTESIAN_POINT('',(5.19097135141997,-0.974709229500123,2.31279010976153));
#1410=CARTESIAN_POINT('Origin',(3.16675875299477,-0.0997092295001227,1.78099190425814));
#1411=CARTESIAN_POINT('',(3.12738867425461,0.775290770499877,1.78099190425814));
#1412=CARTESIAN_POINT('',(3.12738867425461,0.337790770499877,1.78099190425814));
#1413=CARTESIAN_POINT('',(3.12738867425461,0.775290770499877,1.78099190425814));
#1414=CARTESIAN_POINT('',(5.19097135141997,0.775290770499877,1.78099190425814));
#1415=CARTESIAN_POINT('',(5.19097135141997,0.337790770499877,1.78099190425814));
#1416=CARTESIAN_POINT('',(5.19097135141997,0.775290770499877,1.78099190425814));
#1417=CARTESIAN_POINT('',(5.23034143016013,-0.974709229500123,1.78099190425814));
#1418=CARTESIAN_POINT('',(3.16675875299477,-0.974709229500123,1.78099190425814));
#1419=CARTESIAN_POINT('',(1.02856977661682,0.0612159673502709,1.78099190425814));
#1420=CARTESIAN_POINT('Origin',(3.12738867425461,0.775290770499877,2.31279010976153));
#1421=CARTESIAN_POINT('',(3.12738867425461,0.775290770499877,2.08623819618096));
#1422=CARTESIAN_POINT('Origin',(3.16675875299477,-0.974709229500123,1.9878358888996));
#1423=CARTESIAN_POINT('Origin',(5.19097135141997,0.775290770499877,2.31279010976153));
#1424=CARTESIAN_POINT('',(5.19097135141997,0.775290770499877,2.08623819618096));
#1425=CARTESIAN_POINT('Origin',(5.23034143016013,-0.974709229500123,1.9878358888996));
#1426=CARTESIAN_POINT('Origin',(4.2244359183491,0.775290770499877,1.85968628260039));
#1427=CARTESIAN_POINT('',(1.02856977661682,0.775290770499877,1.40658245543924));
#1428=CARTESIAN_POINT('Origin',(7.42030206008139,-2.43455174918516,1.40658245543924));
#1429=CARTESIAN_POINT('',(1.02856977661682,-2.43455174918516,1.40658245543924));
#1430=CARTESIAN_POINT('',(7.42030206008139,-2.43455174918516,1.40658245543924));
#1431=CARTESIAN_POINT('Origin',(7.42030206008139,-2.31644151296469,2.31279010976153));
#1432=CARTESIAN_POINT('',(1.02856977661682,-2.31644151296469,1.85968628260038));
#1433=CARTESIAN_POINT('Origin',(1.02856977661682,0.775290770499877,1.40658245543924));
#1434=CARTESIAN_POINT('Origin',(1.02856977661682,0.775290770499877,1.40658245543924));
#1435=CARTESIAN_POINT('',(1.02856977661682,-2.94626041060248,1.40658245543924));
#1436=CARTESIAN_POINT('Origin',(0.871089461656189,-2.94626041060248,1.85968628260038));
#1437=CARTESIAN_POINT('',(0.713609146695559,-2.94626041060248,2.31279010976153));
#1438=CARTESIAN_POINT('Origin',(7.42030206008139,0.775290770499877,2.31279010976153));
#1439=CARTESIAN_POINT('',(7.42030206008139,-2.94626041060248,2.31279010976153));
#1440=CARTESIAN_POINT('Origin',(7.57778237504202,-2.94626041060248,1.85968628260039));
#1441=CARTESIAN_POINT('',(7.73526269000265,-2.94626041060248,1.40658245543924));
#1442=CARTESIAN_POINT('Origin',(7.73526269000265,0.775290770499877,2.31279010976153));
#1443=CARTESIAN_POINT('Origin',(0.713609146695559,0.775290770499877,1.40658245543924));
#1444=UNCERTAINTY_MEASURE_WITH_UNIT(LENGTH_MEASURE(0.000393700787401575),
#1450,'DISTANCE_ACCURACY_VALUE',
'Maximum model space distance between geometric entities at asserted c
onnectivities');
#1445=UNCERTAINTY_MEASURE_WITH_UNIT(LENGTH_MEASURE(0.000393700787401575),
#1450,'DISTANCE_ACCURACY_VALUE',
'Maximum model space distance between geometric entities at asserted c
onnectivities');
#1446=(
GEOMETRIC_REPRESENTATION_CONTEXT(3)
GLOBAL_UNCERTAINTY_ASSIGNED_CONTEXT((#1444))
GLOBAL_UNIT_ASSIGNED_CONTEXT((#1450,#1454,#1455))
REPRESENTATION_CONTEXT('','3D')
);
#1447=(
GEOMETRIC_REPRESENTATION_CONTEXT(3)
GLOBAL_UNCERTAINTY_ASSIGNED_CONTEXT((#1445))
GLOBAL_UNIT_ASSIGNED_CONTEXT((#1450,#1454,#1455))
REPRESENTATION_CONTEXT('','3D')
);
#1448=DIMENSIONAL_EXPONENTS(1.,0.,0.,0.,0.,0.,0.);
#1449=DIMENSIONAL_EXPONENTS(0.,1.,0.,0.,0.,0.,0.);
#1450=(
CONVERSION_BASED_UNIT('inch',#1453)
LENGTH_UNIT()
NAMED_UNIT(#1448)
);
#1451=(
LENGTH_UNIT()
NAMED_UNIT(*)
SI_UNIT(.MILLI.,.METRE.)
);
#1452=(
LENGTH_UNIT()
NAMED_UNIT(*)
SI_UNIT(.CENTI.,.METRE.)
);
#1453=LENGTH_MEASURE_WITH_UNIT(LENGTH_MEASURE(25.4),#1451);
#1454=(
NAMED_UNIT(*)
PLANE_ANGLE_UNIT()
SI_UNIT($,.RADIAN.)
);
#1455=(
NAMED_UNIT(*)
SI_UNIT($,.STERADIAN.)
SOLID_ANGLE_UNIT()
);
#1456=SHAPE_DEFINITION_REPRESENTATION(#1457,#1458);
#1457=PRODUCT_DEFINITION_SHAPE('',$,#1460);
#1458=SHAPE_REPRESENTATION('',(#916),#1446);
#1459=PRODUCT_DEFINITION_CONTEXT('part definition',#1464,'design');
#1460=PRODUCT_DEFINITION('case','case',#1461,#1459);
#1461=PRODUCT_DEFINITION_FORMATION('',$,#1466);
#1462=PRODUCT_RELATED_PRODUCT_CATEGORY('case','case',(#1466));
#1463=APPLICATION_PROTOCOL_DEFINITION('international standard',
'automotive_design',2009,#1464);
#1464=APPLICATION_CONTEXT(
'Core Data for Automotive Mechanical Design Process');
#1465=PRODUCT_CONTEXT('part definition',#1464,'mechanical');
#1466=PRODUCT('case','case',$,(#1465));
#1467=PRESENTATION_STYLE_ASSIGNMENT((#1468));
#1468=SURFACE_STYLE_USAGE(.BOTH.,#1471);
#1469=SURFACE_STYLE_RENDERING_WITH_PROPERTIES($,#1475,(#1470));
#1470=SURFACE_STYLE_TRANSPARENT(0.);
#1471=SURFACE_SIDE_STYLE('',(#1472,#1469));
#1472=SURFACE_STYLE_FILL_AREA(#1473);
#1473=FILL_AREA_STYLE('',(#1474));
#1474=FILL_AREA_STYLE_COLOUR('',#1475);
#1475=COLOUR_RGB('',0.749019607843137,0.749019607843137,0.749019607843137);
ENDSEC;
END-ISO-10303-21;
